<svg width="180" height="139" viewBox="0 0 180 139" fill="none" xmlns="http://www.w3.org/2000/svg">
<g filter="url(#filter0_d_55_2)">
<rect x="34.5976" y="34.9797" width="94.739" height="54.668" transform="rotate(24.416 34.5976 34.9797)" fill="#060505" stroke="#FFFEFE" stroke-width="2.62207" stroke-linejoin="round"/>
<path d="M120.864 74.1411L168.662 53.6508L146.064 103.43L98.2663 123.92L120.864 74.1411Z" fill="#060505" stroke="#FFFEFE" stroke-width="2.62207" stroke-linejoin="round"/>
<path d="M81.9681 14.2957L168.662 53.6508L121.291 74.335L34.5975 34.9798L81.9681 14.2957Z" fill="#060505" stroke="#FFFEFE" stroke-width="2.62207" stroke-linejoin="round"/>
<path d="M37.3365 83.2748C30.6141 80.2231 28.6956 75.7897 31.0383 70.629L35.5199 72.6635C34.4446 76.0245 35.2418 78.1472 39.0105 79.858C42.6772 81.5225 44.982 80.6851 45.9992 78.4443C46.7544 76.7807 46.3309 75.2781 42.8768 73.0549L39.9875 71.211C35.2524 68.2015 34.0846 65.5421 35.8725 61.6037C37.8453 57.2579 42.3375 55.5708 48.6186 58.4221C54.8996 61.2735 56.6021 65.7317 54.4598 70.451L50.08 68.4627C51.0691 65.4721 50.17 63.3032 46.9446 61.839C43.7192 60.3748 41.6151 61.2213 40.6132 63.4282C39.858 65.0918 40.2536 66.2951 43.2787 68.2007L46.1679 70.0446C50.7672 72.9924 52.6357 76.0928 50.7399 80.2688C48.6901 84.7844 44.059 86.3265 37.3365 83.2748ZM55.4532 91.499C51.3451 89.6341 50.0784 86.5612 51.5426 83.3358C52.7602 80.6536 55.3269 79.239 59.8947 80.9032L63.5984 82.2159C65.441 82.8476 66.166 82.6035 66.5821 81.6868C67.3682 79.9553 66.7781 78.4589 64.6052 77.4725C62.568 76.5477 61.0469 76.9219 60.0295 78.7122L55.6836 76.7393C57.302 73.1744 60.5908 71.8829 65.9892 74.3335C71.3875 76.7841 72.5802 80.1101 70.9619 83.675L67.5557 91.1784C66.4768 93.555 65.987 95.1753 66.0645 95.9066L62.0921 94.1033C61.8757 93.227 61.9617 92.4062 62.5782 91.0481C60.6843 92.6043 58.441 92.8553 55.4532 91.499ZM58.0997 89.0969C60.8158 90.33 63.2838 88.9525 64.4398 86.4061L64.9946 85.1838C64.5195 85.4186 63.6122 85.2524 62.3777 84.8148L60.2296 84.0444C57.9302 83.2463 56.6313 83.7622 56.0611 85.0185C55.3521 86.5802 55.8589 88.0797 58.0997 89.0969ZM85.952 104.935L80.8932 102.638L79.1881 92.7736L75.3037 94.2042L73.0843 99.0933L68.7045 97.105L79.6783 72.9314L84.0581 74.9196L77.5694 89.2133L88.4726 84.9495L93.5654 87.2614L83.529 91.0588L85.952 104.935ZM89.8528 107.033C88.1552 106.262 87.6823 104.778 88.2834 103.454C88.8845 102.13 90.313 101.509 92.0105 102.28C93.7081 103.05 94.181 104.534 93.5799 105.859C92.9788 107.183 91.5504 107.804 89.8528 107.033Z" fill="white"/>
</g>
<defs>
<filter id="filter0_d_55_2" x="0.688705" y="3.98465" width="179.284" height="132.247" filterUnits="userSpaceOnUse" color-interpolation-filters="sRGB">
<feFlood flood-opacity="0" result="BackgroundImageFix"/>
<feColorMatrix in="SourceAlpha" type="matrix" values="0 0 0 0 0 0 0 0 0 0 0 0 0 0 0 0 0 0 127 0" result="hardAlpha"/>
<feOffset dy="1"/>
<feGaussianBlur stdDeviation="5"/>
<feComposite in2="hardAlpha" operator="out"/>
<feColorMatrix type="matrix" values="0 0 0 0 0 0 0 0 0 0 0 0 0 0 0 0 0 0 0.5 0"/>
<feBlend mode="normal" in2="BackgroundImageFix" result="effect1_dropShadow_55_2"/>
<feBlend mode="normal" in="SourceGraphic" in2="effect1_dropShadow_55_2" result="shape"/>
</filter>
</defs>
</svg>
