<svg width="176" height="74" viewBox="0 0 176 74" fill="none" xmlns="http://www.w3.org/2000/svg">
<g filter="url(#filter0_d_65_16)">
<rect x="12.6475" y="9.78822" width="152.55" height="21" rx="1.5" transform="rotate(3.95041 12.6475 9.78822)" fill="black" stroke="white"/>
<path d="M21.2896 24.9196L21.8931 16.1804L22.9705 16.2548L22.6341 21.1272L23.8911 21.214L25.9223 18.6238L27.1554 18.7089L24.8199 21.6991L26.8204 25.3015L25.5634 25.2147L23.8505 22.1494L22.5696 22.0609L22.367 24.994L21.2896 24.9196ZM30.8898 25.7028C30.1156 25.6493 29.5051 25.3746 29.0582 24.8787C28.6198 24.3753 28.429 23.7125 28.4858 22.8905L28.5933 21.3342C28.65 20.5122 28.9298 19.886 29.4327 19.4556C29.9441 19.0178 30.5868 18.8256 31.361 18.8791C31.8798 18.9149 32.3235 19.0498 32.6923 19.2837C33.069 19.5182 33.3522 19.8305 33.5418 20.2205C33.7313 20.6105 33.8085 21.0609 33.7732 21.5716L33.6922 22.7448L29.574 22.4604L29.531 23.083C29.4974 23.5698 29.6103 23.9665 29.8698 24.2731C30.1299 24.5718 30.4913 24.7371 30.9542 24.769C31.3533 24.7966 31.6857 24.7434 31.9516 24.6094C32.226 24.4679 32.4002 24.2674 32.4743 24.0079L33.5517 24.0823C33.4419 24.6281 33.1442 25.0486 32.6587 25.3438C32.1737 25.6311 31.5841 25.7507 30.8898 25.7028ZM29.6319 21.6224L32.6966 21.8341L32.7197 21.4989C32.7556 20.9801 32.6474 20.5717 32.3954 20.2736C32.1518 19.9681 31.7867 19.7986 31.2998 19.7649C30.813 19.7313 30.424 19.8488 30.1328 20.1174C29.8501 20.3785 29.6908 20.7685 29.655 21.2872L29.6319 21.6224ZM38.068 26.1985C37.2938 26.145 36.6833 25.8703 36.2364 25.3744C35.798 24.871 35.6072 24.2082 35.664 23.3862L35.7715 21.8299C35.8283 21.0079 36.1081 20.3817 36.6109 19.9513C37.1223 19.5135 37.765 19.3213 38.5392 19.3748C39.058 19.4106 39.5017 19.5455 39.8705 19.7794C40.2472 20.0139 40.5304 20.3262 40.72 20.7162C40.9096 21.1062 40.9867 21.5566 40.9514 22.0673L40.8704 23.2405L36.7522 22.9562L36.7092 23.5787C36.6756 24.0655 36.7886 24.4622 37.048 24.7688C37.3081 25.0675 37.6696 25.2328 38.1325 25.2647C38.5315 25.2923 38.864 25.2391 39.1298 25.1051C39.4042 24.9636 39.5784 24.7632 39.6525 24.5036L40.7299 24.578C40.6201 25.1238 40.3224 25.5443 39.8369 25.8395C39.352 26.1268 38.7623 26.2465 38.068 26.1985ZM36.8101 22.1182L39.8748 22.3298L39.8979 21.9946C39.9338 21.4758 39.8256 21.0674 39.5736 20.7693C39.3301 20.4638 38.9649 20.2943 38.478 20.2606C37.9912 20.227 37.6022 20.3445 37.311 20.6131C37.0283 20.8742 36.8691 21.2642 36.8332 21.783L36.8101 22.1182ZM42.6156 28.5574L43.2191 19.8182L44.2965 19.8926L44.2097 21.1496L44.2217 21.1505C44.3073 20.7233 44.518 20.4011 44.8538 20.1837C45.1901 19.9583 45.6057 19.8627 46.1005 19.8969C46.7629 19.9427 47.2745 20.1985 47.6353 20.6645C47.9966 21.1225 48.1511 21.7305 48.0987 22.4887L47.9656 24.4161C47.9132 25.1743 47.6764 25.7594 47.255 26.1714C46.8336 26.5833 46.2917 26.7664 45.6293 26.7207C45.1345 26.6865 44.736 26.5347 44.4338 26.2652C44.1317 25.9958 43.9673 25.6476 43.9406 25.2208L43.9047 25.2183L43.8253 26.7164L43.693 28.6318L42.6156 28.5574ZM45.3346 25.7621C45.7895 25.7935 46.153 25.6983 46.4249 25.4765C46.6968 25.2547 46.8512 24.8765 46.8882 24.3417L47.0204 22.4263C47.0579 21.8836 46.9569 21.4877 46.7175 21.2386C46.4787 20.9815 46.1318 20.8373 45.6769 20.8059C45.2379 20.7756 44.8771 20.891 44.5945 21.1521C44.3198 21.4138 44.1653 21.7921 44.1312 22.2869L44.0072 24.0826C43.973 24.5775 44.074 24.9734 44.3101 25.2703C44.5541 25.5679 44.8957 25.7318 45.3346 25.7621ZM59.3409 27.6435C58.6067 27.5928 58.0473 27.3898 57.6629 27.0344C57.287 26.6717 57.12 26.187 57.1619 25.5805L58.2393 25.6549C58.2183 25.9582 58.3096 26.205 58.5129 26.3955C58.7168 26.578 59.0143 26.6827 59.4054 26.7097L59.9321 26.7461C60.3312 26.7737 60.6445 26.7071 60.8721 26.5464C61.1077 26.3862 61.2365 26.1465 61.2586 25.8273C61.2977 25.2606 61.0604 24.9235 60.5466 24.8158L58.7451 24.4268C58.3026 24.3321 57.9681 24.1246 57.7416 23.8042C57.5157 23.4758 57.4201 23.0603 57.4548 22.5575C57.4945 21.9828 57.7212 21.5454 58.1348 21.2452C58.5565 20.9455 59.1145 20.8197 59.8088 20.8676L60.3356 20.904C60.9741 20.9481 61.4818 21.1435 61.8588 21.4903C62.2443 21.8297 62.4354 22.2559 62.4321 22.7689L61.3427 22.6936C61.3427 22.4611 61.2442 22.2618 61.0472 22.0959C60.8581 21.9304 60.6 21.8364 60.2727 21.8138L59.746 21.7775C59.3789 21.7521 59.0858 21.8161 58.8667 21.9693C58.6476 22.1226 58.5281 22.3429 58.5083 22.6302C58.4763 23.0931 58.6696 23.3711 59.0882 23.4642L60.7716 23.821C61.878 24.0578 62.3914 24.7508 62.3121 25.9C62.2696 26.5146 62.0331 26.9794 61.6023 27.2945C61.1801 27.6021 60.6019 27.7306 59.8677 27.6799L59.3409 27.6435ZM66.8766 28.1879C66.0785 28.1328 65.4555 27.8653 65.0075 27.3853C64.5595 26.9053 64.3625 26.2742 64.4165 25.4921L64.5405 23.6963C64.5945 22.9142 64.8764 22.3162 65.3861 21.9023C65.8958 21.4885 66.5497 21.3091 67.3478 21.3642C68.106 21.4166 68.7025 21.6622 69.1373 22.1012C69.5801 22.5408 69.7892 23.1125 69.7646 23.8165L68.6872 23.7421C68.6925 23.3175 68.5711 22.9843 68.3232 22.7427C68.0758 22.493 67.7286 22.3528 67.2817 22.3219C66.8108 22.2894 66.4224 22.3989 66.1163 22.6504C65.8188 22.8945 65.6529 23.2639 65.6188 23.7588L65.4939 25.5665C65.4598 26.0613 65.573 26.454 65.8336 26.7447C66.1021 27.0359 66.4719 27.1977 66.9428 27.2302C67.3897 27.2611 67.7528 27.1699 68.0322 26.9566C68.3115 26.7434 68.4775 26.4301 68.5301 26.0167L69.6076 26.0911C69.5351 26.7918 69.2494 27.3294 68.7504 27.7039C68.2594 28.079 67.6348 28.2403 66.8766 28.1879ZM71.7167 28.4019L72.1714 21.8176L73.2488 21.892L73.162 23.149L73.186 23.1506C73.271 22.7315 73.4737 22.4087 73.7941 22.1822C74.1145 21.9558 74.53 21.8602 75.0408 21.8955C75.7272 21.9429 76.2396 22.1867 76.5781 22.6271C76.9251 23.06 77.0724 23.6556 77.02 24.4138L76.9812 24.9765L75.9037 24.902L75.9426 24.3394C76.0087 23.3817 75.5749 22.8706 74.6411 22.8061C74.1703 22.7736 73.8018 22.8844 73.5356 23.1387C73.2695 23.393 73.1187 23.7755 73.0835 24.2863L72.7941 28.4763L71.7167 28.4019ZM81.1389 29.1488C80.3488 29.0942 79.7343 28.8193 79.2954 28.3238C78.8645 27.829 78.6776 27.1665 78.735 26.3365L78.8391 24.8281C78.897 23.9901 79.1731 23.3596 79.6674 22.9367C80.1623 22.5057 80.8088 22.3178 81.6069 22.3729C82.4049 22.4281 83.0195 22.703 83.4504 23.1979C83.8819 23.6848 84.0687 24.3472 84.0108 25.1852L83.9066 26.6936C83.8493 27.5237 83.5692 28.1539 83.0664 28.5843C82.5715 29.0152 81.929 29.2034 81.1389 29.1488ZM81.2051 28.1911C81.6759 28.2236 82.0522 28.1173 82.3337 27.8721C82.6233 27.6274 82.7857 27.2497 82.8209 26.739L82.9416 24.9911C82.9769 24.4803 82.868 24.0839 82.6148 23.8018C82.3696 23.5202 82.0116 23.3632 81.5407 23.3307C81.0778 23.2987 80.7016 23.405 80.4121 23.6497C80.1225 23.8943 79.9601 24.272 79.9248 24.7828L79.8041 26.5306C79.7689 27.0414 79.8778 27.4379 80.131 27.72C80.3841 28.0021 80.7422 28.1591 81.2051 28.1911ZM89.2815 29.6149C88.6989 29.5746 88.2436 29.3748 87.9155 29.0153C87.5961 28.6485 87.4556 28.1857 87.4942 27.627L87.9018 21.7251L85.6272 21.568L85.695 20.5863L89.047 20.8178L88.5716 27.7014C88.5529 27.9728 88.6138 28.1935 88.7544 28.3636C88.8956 28.5257 89.0939 28.6156 89.3493 28.6332L91.3844 28.7738L91.3166 29.7554L89.2815 29.6149ZM96.4597 30.1106C95.8771 30.0703 95.4218 29.8705 95.0938 29.5111C94.7743 29.1442 94.6338 28.6814 94.6724 28.1227L95.08 22.2208L92.8054 22.0637L92.8732 21.082L96.2252 21.3135L95.7498 28.1971C95.7311 28.4685 95.792 28.6892 95.9326 28.8593C96.0738 29.0214 96.2721 29.1113 96.5275 29.1289L98.5626 29.2695L98.4948 30.2511L96.4597 30.1106ZM100.106 30.3624L100.174 29.3807L102.509 29.542L102.828 24.921L100.733 24.7763L100.8 23.7946L103.973 24.0137L103.586 29.6164L105.801 29.7693L105.733 30.751L100.106 30.3624ZM103.396 22.7831C103.133 22.7649 102.93 22.6827 102.788 22.5366C102.646 22.3904 102.582 22.2016 102.598 21.9702C102.615 21.7307 102.704 21.5484 102.865 21.4232C103.026 21.29 103.239 21.2325 103.502 21.2507C103.765 21.2689 103.968 21.3551 104.11 21.5092C104.252 21.6553 104.315 21.8481 104.298 22.0875C104.282 22.319 104.194 22.4973 104.033 22.6225C103.872 22.7477 103.66 22.8012 103.396 22.7831ZM107.368 30.8639L107.823 24.2796L108.9 24.354L108.814 25.611L108.826 25.6118C108.912 25.1767 109.115 24.8499 109.435 24.6314C109.754 24.413 110.166 24.3211 110.669 24.3558C111.331 24.4015 111.844 24.6414 112.207 25.0755C112.57 25.5095 112.727 26.0777 112.678 26.78L112.372 31.2095L111.295 31.1351L111.588 26.8972C111.622 26.3944 111.521 26.0024 111.284 25.7214C111.055 25.433 110.725 25.2739 110.294 25.2441C109.848 25.2133 109.483 25.3284 109.2 25.5896C108.925 25.8513 108.77 26.2375 108.735 26.7483L108.446 30.9383L107.368 30.8639ZM115.224 33.5715L115.292 32.5899L117.147 32.718C117.522 32.7439 117.825 32.6566 118.055 32.4559C118.285 32.2633 118.412 31.9874 118.437 31.6283L118.479 31.0297L118.577 29.9539L118.541 29.9515C118.45 30.3381 118.242 30.6284 117.916 30.8224C117.59 31.0084 117.192 31.0852 116.721 31.0527C116.042 31.0058 115.523 30.7534 115.161 30.2954C114.8 29.8375 114.645 29.2334 114.697 28.4831L114.793 27.0945C114.845 26.3442 115.081 25.7632 115.503 25.3512C115.924 24.9393 116.474 24.7567 117.152 24.8036C117.623 24.8361 118.007 24.9748 118.302 25.2198C118.598 25.4647 118.765 25.785 118.801 26.1804L118.825 26.1821L118.904 25.0448L119.969 25.1184L119.515 31.7027C119.469 32.3651 119.225 32.8735 118.784 33.228C118.35 33.5909 117.778 33.7479 117.067 33.6988L115.224 33.5715ZM117.106 30.1771C117.553 30.208 117.914 30.0926 118.189 29.8309C118.463 29.5692 118.618 29.1909 118.652 28.6961L118.739 27.4391C118.773 26.9443 118.672 26.5484 118.436 26.2514C118.2 25.9544 117.858 25.7905 117.411 25.7597C116.956 25.7282 116.592 25.8354 116.318 26.0811C116.053 26.3274 115.905 26.674 115.874 27.121L115.77 28.6174C115.74 29.0643 115.839 29.428 116.068 29.7085C116.305 29.9895 116.651 30.1457 117.106 30.1771ZM134.771 28.8951L134.683 30.1641L131.373 32.6419L128.459 29.7222L128.548 28.4412L130.592 30.5311C130.698 30.6346 130.786 30.7449 130.858 30.8622C130.93 30.9794 130.98 31.0751 131.007 31.1491L131.518 23.7507L132.475 23.8169L131.965 31.2152C131.985 31.1525 132.043 31.0723 132.138 30.9746C132.233 30.8689 132.348 30.7646 132.484 30.6617L134.771 28.8951ZM146.408 33.5599C145.865 33.5224 145.441 33.3367 145.135 33.0029C144.83 32.661 144.696 32.2267 144.732 31.7L144.999 27.8332L143.108 27.7026L143.175 26.7209L145.067 26.8515L145.195 24.996L146.272 25.0704L146.144 26.9259L148.838 27.112L148.77 28.0936L146.077 27.9076L145.81 31.7744C145.794 31.9979 145.845 32.1858 145.963 32.3383C146.089 32.4834 146.26 32.5633 146.476 32.5782L148.391 32.7105L148.323 33.6921L146.408 33.5599ZM152.921 34.1059C152.131 34.0513 151.516 33.7763 151.078 33.2809C150.647 32.786 150.46 32.1236 150.517 31.2936L150.621 29.7852C150.679 28.9472 150.955 28.3167 151.45 27.8937C151.944 27.4628 152.591 27.2749 153.389 27.33C154.187 27.3851 154.802 27.6601 155.233 28.155C155.664 28.6419 155.851 29.3043 155.793 30.1423L155.689 31.6507C155.631 32.4807 155.351 33.1109 154.849 33.5413C154.354 33.9723 153.711 34.1604 152.921 34.1059ZM152.987 33.1482C153.458 33.1807 153.834 33.0743 154.116 32.8292C154.405 32.5845 154.568 32.2068 154.603 31.696L154.724 29.9482C154.759 29.4374 154.65 29.041 154.397 28.7588C154.152 28.4773 153.794 28.3202 153.323 28.2877C152.86 28.2558 152.484 28.3621 152.194 28.6067C151.905 28.8514 151.742 29.2291 151.707 29.7399L151.586 31.4877C151.551 31.9985 151.66 32.3949 151.913 32.677C152.166 32.9591 152.524 33.1162 152.987 33.1482Z" fill="white"/>
</g>
<g filter="url(#filter1_d_65_16)">
<rect x="25.5271" y="40.995" width="116" height="21" rx="1.5" transform="rotate(-3.19634 25.5271 40.995)" fill="black" stroke="white"/>
<path d="M37.0416 54.9948C36.3866 55.0313 35.8472 54.8411 35.4233 54.4241C35.0074 54.0066 34.7784 53.4225 34.7365 52.6717L34.6288 50.7427C34.5864 49.9839 34.7487 49.3739 35.1155 48.9127C35.4824 48.4515 35.9973 48.2024 36.6602 48.1654C37.1555 48.1377 37.5698 48.2388 37.9031 48.4686C38.2444 48.6979 38.4588 49.0224 38.5464 49.4422L38.5584 49.4415L38.4508 47.9452L38.3437 46.0282L39.422 45.968L39.9105 54.7144L38.8321 54.7746L38.7619 53.5165L38.7499 53.5172C38.7181 53.9517 38.5493 54.3016 38.2436 54.5671C37.9375 54.8245 37.5369 54.9671 37.0416 54.9948ZM37.3489 54.0401C37.7962 54.0152 38.1398 53.8557 38.3798 53.5619C38.6198 53.2681 38.726 52.8735 38.6983 52.3783L38.598 50.5811C38.5703 50.0859 38.4209 49.7056 38.1496 49.4403C37.8784 49.175 37.5192 49.0549 37.0719 49.0799C36.6166 49.1053 36.2678 49.245 36.0256 49.4989C35.7829 49.7448 35.6768 50.1393 35.7071 50.6825L35.8142 52.5995C35.844 53.1346 35.9935 53.5149 36.2625 53.7402C36.5314 53.9656 36.8936 54.0656 37.3489 54.0401ZM42.0265 54.5962L41.9716 53.6137L44.308 53.4832L44.0497 48.8585L41.953 48.9755L41.8981 47.9931L45.0731 47.8158L45.3863 53.423L47.6028 53.2992L47.6577 54.2817L42.0265 54.5962ZM44.3479 46.6664C44.0843 46.6811 43.8729 46.6248 43.7135 46.4975C43.5542 46.3702 43.468 46.1907 43.4551 45.9591C43.4417 45.7195 43.5071 45.5275 43.6513 45.3833C43.795 45.231 43.9987 45.1475 44.2623 45.1328C44.5259 45.1181 44.7376 45.1784 44.8974 45.3137C45.0567 45.441 45.1431 45.6245 45.1565 45.8641C45.1694 46.0957 45.1038 46.2837 44.9596 46.4279C44.8154 46.5722 44.6115 46.6517 44.3479 46.6664ZM51.5283 54.1617C50.7935 54.2027 50.2132 54.0709 49.7876 53.7662C49.3695 53.453 49.1435 52.9929 49.1096 52.3858L50.1879 52.3256C50.2048 52.6291 50.326 52.8627 50.5515 53.0264C50.7765 53.1821 51.0848 53.249 51.4761 53.2272L52.0033 53.1977C52.4027 53.1754 52.7053 53.0704 52.9112 52.8826C53.125 52.6944 53.223 52.4405 53.2052 52.121C53.1735 51.5539 52.8961 51.2489 52.3729 51.206L50.537 51.0441C50.0861 51.0052 49.7284 50.8409 49.4638 50.5512C49.1988 50.2535 49.0522 49.8531 49.0241 49.3499C48.992 48.7747 49.1625 48.3125 49.5356 47.9632C49.9167 47.6134 50.4547 47.4191 51.1496 47.3803L51.6768 47.3508C52.3158 47.3152 52.8439 47.4459 53.2611 47.7431C53.6859 48.0319 53.9285 48.431 53.989 48.9404L52.8987 49.0013C52.8698 48.7705 52.7473 48.5851 52.5311 48.4449C52.323 48.3043 52.0552 48.2431 51.7277 48.2614L51.2005 48.2909C50.8331 48.3114 50.5502 48.4113 50.3519 48.5906C50.1536 48.77 50.0624 49.0034 50.0785 49.291C50.1044 49.7542 50.3308 50.006 50.7577 50.0463L52.4724 50.1909C53.5996 50.2882 54.1953 50.912 54.2595 52.0622C54.2939 52.6772 54.1169 53.1678 53.7288 53.534C53.3481 53.8918 52.7904 54.0912 52.0555 54.1323L51.5283 54.1617ZM59.0732 53.7644C58.2745 53.809 57.623 53.621 57.1188 53.2005C56.6145 52.78 56.3405 52.1783 56.2968 51.3955L56.1965 49.5983C56.1528 48.8155 56.358 48.1871 56.8123 47.7131C57.2666 47.239 57.8931 46.9797 58.6919 46.935C59.4507 46.8927 60.0731 47.0622 60.5591 47.4437C61.0531 47.8248 61.3318 48.3661 61.395 49.0676L60.3166 49.1279C60.269 48.7059 60.1072 48.3904 59.8311 48.1815C59.5546 47.9645 59.1927 47.8686 58.7454 47.8936C58.2741 47.9199 57.9023 48.0768 57.6299 48.3645C57.3651 48.6437 57.2465 49.0309 57.2741 49.5261L57.3752 51.3353C57.4028 51.8305 57.564 52.2061 57.8587 52.4621C58.1615 52.7176 58.5484 52.8322 59.0197 52.8059C59.467 52.7809 59.816 52.6453 60.0666 52.3989C60.3173 52.1525 60.443 51.821 60.4438 51.4043L61.5221 51.3441C61.5374 52.0483 61.3208 52.6173 60.8723 53.051C60.4317 53.4842 59.8321 53.722 59.0732 53.7644ZM66.1602 53.3446C65.3694 53.3888 64.7254 53.1924 64.2283 52.7554C63.7392 52.318 63.4714 51.6839 63.425 50.8532L63.3407 49.3436C63.2939 48.5049 63.4894 47.845 63.9272 47.3638C64.3646 46.8747 64.9827 46.6078 65.7815 46.5632C66.5802 46.5186 67.2242 46.715 67.7133 47.1524C68.202 47.5818 68.4698 48.2158 68.5166 49.0545L68.6009 50.5642C68.6473 51.3949 68.4478 52.055 68.0024 52.5446C67.565 53.0338 66.9509 53.3004 66.1602 53.3446ZM66.1066 52.3861C66.5779 52.3598 66.938 52.2075 67.1868 51.9292C67.4437 51.6504 67.5579 51.2554 67.5293 50.7442L67.4316 48.9949C67.4031 48.4837 67.2456 48.1039 66.9593 47.8555C66.681 47.6066 66.3063 47.4954 65.835 47.5217C65.3717 47.5475 65.0116 47.6999 64.7548 47.9786C64.4979 48.2574 64.3838 48.6523 64.4123 49.1636L64.51 50.9128C64.5386 51.424 64.696 51.8038 64.9823 52.0523C65.2686 52.3007 65.6434 52.412 66.1066 52.3861ZM72.632 52.887L70.0235 46.4224L71.1857 46.3575L72.871 50.7103C72.9736 50.969 73.0638 51.2204 73.1415 51.4644C73.2188 51.7005 73.2772 51.8855 73.3167 52.0195C73.3491 51.8815 73.3865 51.6911 73.4291 51.4484C73.4711 51.1976 73.5248 50.9382 73.5899 50.6702L74.7801 46.1568L75.9183 46.0932L74.0458 52.8081L72.632 52.887ZM80.5297 52.5662C79.7549 52.6094 79.115 52.4128 78.6099 51.9763C78.1123 51.5314 77.8405 50.8975 77.7946 50.0748L77.7076 48.5172C77.6616 47.6945 77.8614 47.0384 78.3068 46.5488C78.7597 46.0507 79.3736 45.7801 80.1484 45.7368C80.6676 45.7078 81.1246 45.7865 81.5196 45.9727C81.9226 46.1585 82.2424 46.4331 82.4791 46.7965C82.7157 47.1599 82.8483 47.5972 82.8768 48.1084L82.9424 49.2825L78.8208 49.5127L78.8556 50.1357C78.8828 50.623 79.0442 51.0026 79.3399 51.2745C79.635 51.5385 80.0143 51.6575 80.4776 51.6316C80.8769 51.6093 81.2002 51.5152 81.4473 51.3491C81.702 51.1747 81.8499 50.9541 81.8911 50.6873L82.9694 50.6271C82.9283 51.1823 82.6853 51.6365 82.2403 51.9899C81.7948 52.3353 81.2247 52.5274 80.5297 52.5662ZM78.774 48.674L81.8412 48.5027L81.8225 48.1673C81.7935 47.6481 81.6354 47.2563 81.3482 46.9919C81.0686 46.719 80.6851 46.5962 80.1979 46.6234C79.7106 46.6506 79.3393 46.8156 79.0837 47.1183C78.8358 47.4126 78.7263 47.8194 78.7553 48.3385L78.774 48.674ZM85.4547 52.171L85.0867 45.5812L86.165 45.521L86.2353 46.779L86.2592 46.7777C86.2915 46.3512 86.4525 46.0057 86.7422 45.7412C87.0319 45.4766 87.4323 45.33 87.9435 45.3015C88.6305 45.2631 89.1692 45.4414 89.5599 45.8362C89.958 46.2226 90.1783 46.7952 90.2207 47.554L90.2521 48.1172L89.1738 48.1774L89.1423 47.6143C89.0888 46.6557 88.5948 46.2026 87.6602 46.2548C87.189 46.2811 86.8371 46.437 86.6047 46.7224C86.3722 47.0078 86.2703 47.4061 86.2988 47.9173L86.533 52.1107L85.4547 52.171ZM99.1999 51.4034L98.8319 44.8136L99.7664 44.7614L99.8153 45.6361L99.8392 45.6347C99.8627 45.337 99.9651 45.0909 100.147 44.8965C100.336 44.7016 100.582 44.5957 100.886 44.5787C101.174 44.5627 101.422 44.6329 101.631 44.7895C101.84 44.9461 101.996 45.1657 102.1 45.4484L102.112 45.4477C102.152 45.157 102.263 44.9225 102.446 44.744C102.636 44.5651 102.883 44.4672 103.186 44.4503C103.61 44.4266 103.954 44.5676 104.22 44.8733C104.493 45.1706 104.643 45.5708 104.671 46.074L104.951 51.0822L103.944 51.1384L103.664 46.1182C103.649 45.8546 103.574 45.6505 103.438 45.5059C103.301 45.3533 103.121 45.2832 102.897 45.2957C102.681 45.3078 102.514 45.3932 102.395 45.5521C102.275 45.711 102.223 45.9223 102.238 46.1859L102.519 51.218L101.632 51.2675L101.352 46.2474C101.337 45.9838 101.262 45.7797 101.125 45.635C100.989 45.4824 100.812 45.4121 100.597 45.4242C100.373 45.4367 100.202 45.5224 100.082 45.6813C99.9629 45.8402 99.9106 46.0514 99.9253 46.315L100.206 51.3472L99.1999 51.4034ZM109.265 50.9374C108.474 50.9816 107.83 50.7852 107.333 50.3482C106.844 49.9108 106.576 49.2768 106.53 48.4461L106.445 46.9364C106.399 46.0977 106.594 45.4378 107.032 44.9566C107.469 44.4675 108.087 44.2006 108.886 44.156C109.685 44.1114 110.329 44.3078 110.818 44.7452C111.307 45.1746 111.575 45.8087 111.621 46.6474L111.706 48.157C111.752 48.9877 111.553 49.6479 111.107 50.1375C110.67 50.6266 110.056 50.8933 109.265 50.9374ZM109.211 49.9789C109.683 49.9526 110.043 49.8003 110.292 49.522C110.548 49.2432 110.663 48.8483 110.634 48.3371L110.536 46.5878C110.508 46.0766 110.35 45.6968 110.064 45.4483C109.786 45.1995 109.411 45.0882 108.94 45.1145C108.476 45.1404 108.116 45.2927 107.859 45.5715C107.603 45.8502 107.488 46.2452 107.517 46.7564L107.615 48.5057C107.643 49.0169 107.801 49.3967 108.087 49.6451C108.373 49.8935 108.748 50.0048 109.211 49.9789ZM114.191 50.5662L113.823 43.9765L114.901 43.9162L114.972 45.1743L114.996 45.1729C115.028 44.7465 115.189 44.401 115.479 44.1364C115.768 43.8718 116.169 43.7253 116.68 43.6967C117.367 43.6584 117.906 43.8366 118.296 44.2314C118.694 44.6178 118.915 45.1904 118.957 45.9493L118.989 46.5124L117.91 46.5726L117.879 46.0095C117.825 45.051 117.331 44.5978 116.397 44.65C115.925 44.6763 115.574 44.8322 115.341 45.1176C115.109 45.403 115.007 45.8013 115.035 46.3125L115.269 50.506L114.191 50.5662ZM123.634 50.159C122.86 50.2023 122.22 50.0057 121.715 49.5691C121.217 49.1242 120.945 48.4904 120.899 47.6676L120.812 46.1101C120.766 45.2874 120.966 44.6312 121.411 44.1416C121.864 43.6436 122.478 43.3729 123.253 43.3297C123.772 43.3007 124.229 43.3793 124.624 43.5656C125.027 43.7514 125.347 44.026 125.584 44.3893C125.82 44.7527 125.953 45.19 125.982 45.7012L126.047 46.8754L121.926 47.1055L121.96 47.7286C121.988 48.2158 122.149 48.5954 122.445 48.8674C122.74 49.1313 123.119 49.2503 123.582 49.2245C123.982 49.2022 124.305 49.108 124.552 48.942C124.807 48.7675 124.955 48.5469 124.996 48.2802L126.074 48.22C126.033 48.7751 125.79 49.2294 125.345 49.5827C124.9 49.9281 124.329 50.1202 123.634 50.159ZM121.879 46.2669L124.946 46.0956L124.927 45.7601C124.898 45.2409 124.74 44.8491 124.453 44.5847C124.173 44.3119 123.79 44.1891 123.303 44.2163C122.815 44.2435 122.444 44.4084 122.188 44.7112C121.94 45.0055 121.831 45.4122 121.86 45.9314L121.879 46.2669ZM130.177 47.0895L129.688 40.9271L130.958 40.8562L131.159 47.0346L130.177 47.0895ZM130.636 49.708C130.428 49.7195 130.252 49.6612 130.109 49.533C129.966 49.4048 129.888 49.2369 129.876 49.0292C129.865 48.8215 129.923 48.646 130.051 48.5026C130.18 48.3593 130.348 48.2818 130.555 48.2702L130.915 48.2501C131.146 48.2372 131.326 48.2953 131.453 48.4244C131.588 48.545 131.661 48.7092 131.673 48.9169C131.685 49.1245 131.627 49.3041 131.499 49.4554C131.371 49.5988 131.203 49.6763 130.995 49.6879L130.636 49.708Z" fill="white"/>
</g>
<defs>
<filter id="filter0_d_65_16" x="0.82428" y="0.411697" width="174.388" height="52.2128" filterUnits="userSpaceOnUse" color-interpolation-filters="sRGB">
<feFlood flood-opacity="0" result="BackgroundImageFix"/>
<feColorMatrix in="SourceAlpha" type="matrix" values="0 0 0 0 0 0 0 0 0 0 0 0 0 0 0 0 0 0 127 0" result="hardAlpha"/>
<feOffset dy="1"/>
<feGaussianBlur stdDeviation="5"/>
<feComposite in2="hardAlpha" operator="out"/>
<feColorMatrix type="matrix" values="0 0 0 0 0 0 0 0 0 0 0 0 0 0 0 0 0 0 0.25 0"/>
<feBlend mode="normal" in2="BackgroundImageFix" result="effect1_dropShadow_65_16"/>
<feBlend mode="normal" in="SourceGraphic" in2="effect1_dropShadow_65_16" result="shape"/>
</filter>
<filter id="filter1_d_65_16" x="15.1306" y="25.1306" width="137.783" height="48.2282" filterUnits="userSpaceOnUse" color-interpolation-filters="sRGB">
<feFlood flood-opacity="0" result="BackgroundImageFix"/>
<feColorMatrix in="SourceAlpha" type="matrix" values="0 0 0 0 0 0 0 0 0 0 0 0 0 0 0 0 0 0 127 0" result="hardAlpha"/>
<feOffset dy="1"/>
<feGaussianBlur stdDeviation="5"/>
<feComposite in2="hardAlpha" operator="out"/>
<feColorMatrix type="matrix" values="0 0 0 0 0 0 0 0 0 0 0 0 0 0 0 0 0 0 0.25 0"/>
<feBlend mode="normal" in2="BackgroundImageFix" result="effect1_dropShadow_65_16"/>
<feBlend mode="normal" in="SourceGraphic" in2="effect1_dropShadow_65_16" result="shape"/>
</filter>
</defs>
</svg>
