<svg width="296" height="169" viewBox="0 0 296 169" fill="none" xmlns="http://www.w3.org/2000/svg">
<g filter="url(#filter0_d_46_11)">
<mask id="path-1-outside-1_46_11" maskUnits="userSpaceOnUse" x="-0.299793" y="-5.08732" width="297.782" height="167.85" fill="black">
<rect fill="white" x="-0.299793" y="-5.08732" width="297.782" height="167.85"/>
<path d="M29.2537 147.241L24.4607 121.66L34.2035 117.747L38.9964 143.329L29.2537 147.241ZM29.6278 117.372C27.9246 118.056 26.3881 118.154 25.0184 117.665C23.6775 117.164 22.7461 116.264 22.2244 114.965C21.6099 113.435 21.6627 111.939 22.3828 110.476C23.1317 109.002 24.4443 107.888 26.3207 107.135C28.0239 106.451 29.5343 106.33 30.8521 106.773C32.1986 107.205 33.1328 108.07 33.6545 109.369C34.3038 110.985 34.2597 112.545 33.5224 114.048C32.8024 115.511 31.5042 116.619 29.6278 117.372ZM39.6908 125.751L40.8662 111.149L44.1836 116.404C42.5959 117.042 41.1056 117.087 39.7126 116.54C38.3369 115.953 37.3476 114.909 36.7447 113.408C36.0143 111.589 36.0206 109.894 36.7636 108.321C37.5355 106.737 38.773 105.603 40.4762 104.919C42.0928 104.27 43.5687 104.23 44.9039 104.8C46.268 105.359 47.2573 106.403 47.8717 107.933C48.1964 108.741 48.3448 109.57 48.3171 110.419C48.3183 111.257 48.1639 112.375 47.8539 113.773L45.753 123.317L39.6908 125.751ZM82.3063 97.925C84.125 97.1946 85.8808 96.9755 87.5738 97.2677C89.2552 97.5311 90.7294 98.3638 91.9965 99.7658C93.252 101.139 94.1271 103.151 94.6218 105.802L97.2758 119.922L87.4897 123.852L85.1236 111.075C84.8441 109.544 84.3748 108.543 83.7156 108.07C83.0448 107.568 82.3197 107.474 81.5403 107.787C80.6454 108.146 79.9935 108.777 79.5846 109.679C79.1641 110.552 79.1024 111.817 79.3993 113.474L81.774 126.148L71.9879 130.078L69.6218 117.301C69.3423 115.77 68.873 114.769 68.2138 114.296C67.543 113.794 66.8179 113.7 66.0385 114.013C65.1436 114.372 64.483 115.023 64.0569 115.965C63.648 116.867 63.6036 118.176 63.9237 119.891L66.2721 132.374L56.4861 136.304L51.6931 110.723L60.9163 107.019L61.9203 112.398L60.4218 112.799C60.771 110.58 61.557 108.739 62.7796 107.276C63.9906 105.784 65.4044 104.713 67.021 104.064C68.3201 103.542 69.6368 103.315 70.9714 103.383C72.3231 103.41 73.5974 103.786 74.7942 104.512C75.9795 105.21 76.9631 106.323 77.7451 107.853L74.8599 108.056C75.0934 105.716 75.8473 103.67 77.1215 101.918C78.3841 100.137 80.1124 98.8061 82.3063 97.925ZM127.122 108.74C125.332 109.458 123.562 110.018 121.813 110.419C120.063 110.821 118.417 111.063 116.875 111.146C115.35 111.188 113.98 111.118 112.767 110.935L113.681 101.818C115.062 102.001 116.403 102.083 117.702 102.063C119.019 102.004 120.281 101.849 121.488 101.599C122.724 101.337 123.905 100.98 125.031 100.528C125.926 100.169 126.633 99.8009 127.152 99.4246C127.7 99.0368 128.067 98.6551 128.251 98.2793C128.453 97.8631 128.484 97.4818 128.345 97.1354C128.159 96.6735 127.749 96.4026 127.113 96.3226C126.478 96.2426 125.681 96.261 124.722 96.3779C123.792 96.4832 122.761 96.6291 121.629 96.8155C120.514 96.9615 119.362 97.0555 118.172 97.0976C116.97 97.1109 115.815 96.9883 114.705 96.7299C113.625 96.4599 112.639 95.9674 111.749 95.2523C110.858 94.5372 110.146 93.5157 109.613 92.1878C108.685 89.8784 108.486 87.6287 109.014 85.4386C109.571 83.2368 110.805 81.2161 112.714 79.3765C114.641 77.4963 117.192 75.9186 120.367 74.6433C122.619 73.7389 124.805 73.1293 126.924 72.8144C129.061 72.459 131.005 72.4159 132.756 72.6849L132.066 81.611C130.553 81.3474 128.999 81.3178 127.404 81.5222C125.839 81.715 124.321 82.1071 122.848 82.6983C121.867 83.0925 121.085 83.524 120.502 83.9927C119.907 84.4326 119.501 84.8809 119.282 85.3375C119.092 85.7826 119.066 86.1783 119.206 86.5248C119.391 86.9866 119.807 87.272 120.455 87.3809C121.09 87.4608 121.887 87.4424 122.846 87.3255C123.793 87.1798 124.824 87.0339 125.939 86.8879C127.071 86.7015 128.217 86.593 129.379 86.5625C130.557 86.4915 131.701 86.5852 132.81 86.8436C133.908 87.0732 134.902 87.5455 135.793 88.2605C136.672 88.9468 137.378 89.9538 137.912 91.2817C138.816 93.5334 138.989 95.7601 138.432 97.9618C137.863 100.135 136.615 102.161 134.689 104.041C132.791 105.91 130.269 107.476 127.122 108.74ZM154.48 97.4501C152.46 98.2617 150.591 98.5763 148.875 98.3938C147.159 98.2114 145.723 97.5144 144.566 96.3029C143.397 95.0625 142.603 93.3364 142.184 91.1245L138.195 69.7966L147.981 65.8663L151.953 87.1509C152.133 88.0171 152.458 88.5741 152.926 88.8219C153.394 89.0696 153.96 89.0602 154.624 88.7935C155.028 88.6312 155.372 88.443 155.655 88.2288C155.955 87.9742 156.257 87.685 156.563 87.361L160.332 93.4907C159.635 94.3408 158.763 95.093 157.719 95.7472C156.715 96.4187 155.635 96.9864 154.48 97.4501ZM137.706 85.9837L136.265 78.2651L154.149 71.0827L155.589 78.8013L137.706 85.9837ZM162.878 93.5744L158.085 67.9931L167.828 64.0801L172.621 89.6615L162.878 93.5744ZM163.253 63.7053C161.549 64.3893 160.013 64.4868 158.643 63.9977C157.302 63.497 156.371 62.5971 155.849 61.2981C155.235 59.7681 155.287 58.2719 156.007 56.8093C156.756 55.3352 158.069 54.2214 159.945 53.4678C161.649 52.7837 163.159 52.6632 164.477 53.1061C165.823 53.5375 166.758 54.4027 167.279 55.7017C167.928 57.3183 167.884 58.8781 167.147 60.3811C166.427 61.8436 165.129 62.9517 163.253 63.7053ZM191.077 82.7522C188.479 83.7956 186.033 84.2583 183.739 84.1402C181.434 83.9932 179.417 83.3115 177.688 82.095C175.959 80.8786 174.654 79.1734 173.773 76.9794C172.73 74.3814 172.431 71.8025 172.878 69.2427C173.325 66.683 174.437 64.3592 176.213 62.2713C177.99 60.1834 180.336 58.554 183.251 57.383C186.08 56.2468 188.783 55.882 191.36 56.2885C193.937 56.6951 196.073 57.7983 197.768 59.5983L190.985 66.7478C190.14 65.8132 189.279 65.2541 188.4 65.0704C187.551 64.8752 186.708 64.9457 185.87 65.2819C185.004 65.6297 184.318 66.1737 183.81 66.9139C183.292 67.6251 182.987 68.4516 182.895 69.3934C182.833 70.3235 183.017 71.3226 183.446 72.3907C183.898 73.5165 184.586 74.3128 185.511 74.7794C186.436 75.246 187.505 75.2358 188.717 74.7489C189.67 74.3663 190.414 73.7991 190.95 73.0474C191.487 72.2957 191.809 71.2612 191.917 69.944L200.731 71.2314C200.411 73.7736 199.415 76.051 197.742 78.0637C196.099 80.0647 193.877 81.6276 191.077 82.7522ZM211.563 70.2499L208.824 57.1695L214.873 45.1858L226.911 40.3512L218.564 57.3811L214.561 63.8162L211.563 70.2499ZM203.558 77.2365L197.062 42.5332L206.848 38.6029L213.344 73.3062L203.558 77.2365ZM220.835 70.2976L212.681 64.0182L216.679 53.8137L232.31 65.689L220.835 70.2976ZM246.687 60.4176C244.089 61.461 241.629 61.9295 239.306 61.823C237.013 61.7049 234.987 61.0434 233.229 59.8385C231.472 58.6336 230.146 56.9198 229.254 54.697C228.21 52.0989 227.883 49.5316 228.272 46.9951C228.662 44.4586 229.716 42.158 231.434 40.0933C233.182 38.017 235.528 36.3875 238.472 35.205C241.012 34.1847 243.357 33.7626 245.506 33.9387C247.656 34.1147 249.519 34.7909 251.098 35.9671C252.677 37.1434 253.878 38.7563 254.701 40.8059C254.991 41.5276 255.217 42.258 255.38 42.9972C255.572 43.7248 255.723 44.4351 255.833 45.1282L237.43 52.5193L236.444 47.4343L249.435 42.217L245.869 45.1075C245.728 44.091 245.401 43.3173 244.886 42.7866C244.389 42.2154 243.782 41.8725 243.065 41.758C242.337 41.6146 241.554 41.711 240.717 42.0472C239.534 42.5226 238.723 43.2169 238.285 44.1303C237.847 45.0436 237.673 46.0692 237.761 47.2071C237.878 48.3334 238.157 49.4451 238.597 50.542C239.189 52.0143 240.002 52.9114 241.036 53.2334C242.088 53.515 243.379 53.3486 244.909 52.7341C245.804 52.3747 246.646 51.8854 247.437 51.2662C248.216 50.6181 248.87 49.8691 249.401 49.0192L255.854 53.3167C254.678 55.0629 253.296 56.5061 251.709 57.6464C250.151 58.775 248.477 59.6988 246.687 60.4176ZM260.475 54.3771L255.682 28.7958L264.905 25.0915L266.259 32.3423L264.584 30.8023C264.812 28.5317 265.63 26.6444 267.037 25.1405C268.473 23.625 270.317 22.4151 272.569 21.5108L274.315 30.8666C273.888 30.9712 273.495 31.0786 273.137 31.1889C272.808 31.2875 272.47 31.4064 272.124 31.5456C270.507 32.1948 269.339 33.0832 268.618 34.2107C267.927 35.3265 267.744 36.7912 268.07 38.6046L270.261 50.4468L260.475 54.3771Z"/>
</mask>
<path d="M29.2537 147.241L24.4607 121.66L34.2035 117.747L38.9964 143.329L29.2537 147.241ZM29.6278 117.372C27.9246 118.056 26.3881 118.154 25.0184 117.665C23.6775 117.164 22.7461 116.264 22.2244 114.965C21.6099 113.435 21.6627 111.939 22.3828 110.476C23.1317 109.002 24.4443 107.888 26.3207 107.135C28.0239 106.451 29.5343 106.33 30.8521 106.773C32.1986 107.205 33.1328 108.07 33.6545 109.369C34.3038 110.985 34.2597 112.545 33.5224 114.048C32.8024 115.511 31.5042 116.619 29.6278 117.372ZM39.6908 125.751L40.8662 111.149L44.1836 116.404C42.5959 117.042 41.1056 117.087 39.7126 116.54C38.3369 115.953 37.3476 114.909 36.7447 113.408C36.0143 111.589 36.0206 109.894 36.7636 108.321C37.5355 106.737 38.773 105.603 40.4762 104.919C42.0928 104.27 43.5687 104.23 44.9039 104.8C46.268 105.359 47.2573 106.403 47.8717 107.933C48.1964 108.741 48.3448 109.57 48.3171 110.419C48.3183 111.257 48.1639 112.375 47.8539 113.773L45.753 123.317L39.6908 125.751ZM82.3063 97.925C84.125 97.1946 85.8808 96.9755 87.5738 97.2677C89.2552 97.5311 90.7294 98.3638 91.9965 99.7658C93.252 101.139 94.1271 103.151 94.6218 105.802L97.2758 119.922L87.4897 123.852L85.1236 111.075C84.8441 109.544 84.3748 108.543 83.7156 108.07C83.0448 107.568 82.3197 107.474 81.5403 107.787C80.6454 108.146 79.9935 108.777 79.5846 109.679C79.1641 110.552 79.1024 111.817 79.3993 113.474L81.774 126.148L71.9879 130.078L69.6218 117.301C69.3423 115.77 68.873 114.769 68.2138 114.296C67.543 113.794 66.8179 113.7 66.0385 114.013C65.1436 114.372 64.483 115.023 64.0569 115.965C63.648 116.867 63.6036 118.176 63.9237 119.891L66.2721 132.374L56.4861 136.304L51.6931 110.723L60.9163 107.019L61.9203 112.398L60.4218 112.799C60.771 110.58 61.557 108.739 62.7796 107.276C63.9906 105.784 65.4044 104.713 67.021 104.064C68.3201 103.542 69.6368 103.315 70.9714 103.383C72.3231 103.41 73.5974 103.786 74.7942 104.512C75.9795 105.21 76.9631 106.323 77.7451 107.853L74.8599 108.056C75.0934 105.716 75.8473 103.67 77.1215 101.918C78.3841 100.137 80.1124 98.8061 82.3063 97.925ZM127.122 108.74C125.332 109.458 123.562 110.018 121.813 110.419C120.063 110.821 118.417 111.063 116.875 111.146C115.35 111.188 113.98 111.118 112.767 110.935L113.681 101.818C115.062 102.001 116.403 102.083 117.702 102.063C119.019 102.004 120.281 101.849 121.488 101.599C122.724 101.337 123.905 100.98 125.031 100.528C125.926 100.169 126.633 99.8009 127.152 99.4246C127.7 99.0368 128.067 98.6551 128.251 98.2793C128.453 97.8631 128.484 97.4818 128.345 97.1354C128.159 96.6735 127.749 96.4026 127.113 96.3226C126.478 96.2426 125.681 96.261 124.722 96.3779C123.792 96.4832 122.761 96.6291 121.629 96.8155C120.514 96.9615 119.362 97.0555 118.172 97.0976C116.97 97.1109 115.815 96.9883 114.705 96.7299C113.625 96.4599 112.639 95.9674 111.749 95.2523C110.858 94.5372 110.146 93.5157 109.613 92.1878C108.685 89.8784 108.486 87.6287 109.014 85.4386C109.571 83.2368 110.805 81.2161 112.714 79.3765C114.641 77.4963 117.192 75.9186 120.367 74.6433C122.619 73.7389 124.805 73.1293 126.924 72.8144C129.061 72.459 131.005 72.4159 132.756 72.6849L132.066 81.611C130.553 81.3474 128.999 81.3178 127.404 81.5222C125.839 81.715 124.321 82.1071 122.848 82.6983C121.867 83.0925 121.085 83.524 120.502 83.9927C119.907 84.4326 119.501 84.8809 119.282 85.3375C119.092 85.7826 119.066 86.1783 119.206 86.5248C119.391 86.9866 119.807 87.272 120.455 87.3809C121.09 87.4608 121.887 87.4424 122.846 87.3255C123.793 87.1798 124.824 87.0339 125.939 86.8879C127.071 86.7015 128.217 86.593 129.379 86.5625C130.557 86.4915 131.701 86.5852 132.81 86.8436C133.908 87.0732 134.902 87.5455 135.793 88.2605C136.672 88.9468 137.378 89.9538 137.912 91.2817C138.816 93.5334 138.989 95.7601 138.432 97.9618C137.863 100.135 136.615 102.161 134.689 104.041C132.791 105.91 130.269 107.476 127.122 108.74ZM154.48 97.4501C152.46 98.2617 150.591 98.5763 148.875 98.3938C147.159 98.2114 145.723 97.5144 144.566 96.3029C143.397 95.0625 142.603 93.3364 142.184 91.1245L138.195 69.7966L147.981 65.8663L151.953 87.1509C152.133 88.0171 152.458 88.5741 152.926 88.8219C153.394 89.0696 153.96 89.0602 154.624 88.7935C155.028 88.6312 155.372 88.443 155.655 88.2288C155.955 87.9742 156.257 87.685 156.563 87.361L160.332 93.4907C159.635 94.3408 158.763 95.093 157.719 95.7472C156.715 96.4187 155.635 96.9864 154.48 97.4501ZM137.706 85.9837L136.265 78.2651L154.149 71.0827L155.589 78.8013L137.706 85.9837ZM162.878 93.5744L158.085 67.9931L167.828 64.0801L172.621 89.6615L162.878 93.5744ZM163.253 63.7053C161.549 64.3893 160.013 64.4868 158.643 63.9977C157.302 63.497 156.371 62.5971 155.849 61.2981C155.235 59.7681 155.287 58.2719 156.007 56.8093C156.756 55.3352 158.069 54.2214 159.945 53.4678C161.649 52.7837 163.159 52.6632 164.477 53.1061C165.823 53.5375 166.758 54.4027 167.279 55.7017C167.928 57.3183 167.884 58.8781 167.147 60.3811C166.427 61.8436 165.129 62.9517 163.253 63.7053ZM191.077 82.7522C188.479 83.7956 186.033 84.2583 183.739 84.1402C181.434 83.9932 179.417 83.3115 177.688 82.095C175.959 80.8786 174.654 79.1734 173.773 76.9794C172.73 74.3814 172.431 71.8025 172.878 69.2427C173.325 66.683 174.437 64.3592 176.213 62.2713C177.99 60.1834 180.336 58.554 183.251 57.383C186.08 56.2468 188.783 55.882 191.36 56.2885C193.937 56.6951 196.073 57.7983 197.768 59.5983L190.985 66.7478C190.14 65.8132 189.279 65.2541 188.4 65.0704C187.551 64.8752 186.708 64.9457 185.87 65.2819C185.004 65.6297 184.318 66.1737 183.81 66.9139C183.292 67.6251 182.987 68.4516 182.895 69.3934C182.833 70.3235 183.017 71.3226 183.446 72.3907C183.898 73.5165 184.586 74.3128 185.511 74.7794C186.436 75.246 187.505 75.2358 188.717 74.7489C189.67 74.3663 190.414 73.7991 190.95 73.0474C191.487 72.2957 191.809 71.2612 191.917 69.944L200.731 71.2314C200.411 73.7736 199.415 76.051 197.742 78.0637C196.099 80.0647 193.877 81.6276 191.077 82.7522ZM211.563 70.2499L208.824 57.1695L214.873 45.1858L226.911 40.3512L218.564 57.3811L214.561 63.8162L211.563 70.2499ZM203.558 77.2365L197.062 42.5332L206.848 38.6029L213.344 73.3062L203.558 77.2365ZM220.835 70.2976L212.681 64.0182L216.679 53.8137L232.31 65.689L220.835 70.2976ZM246.687 60.4176C244.089 61.461 241.629 61.9295 239.306 61.823C237.013 61.7049 234.987 61.0434 233.229 59.8385C231.472 58.6336 230.146 56.9198 229.254 54.697C228.21 52.0989 227.883 49.5316 228.272 46.9951C228.662 44.4586 229.716 42.158 231.434 40.0933C233.182 38.017 235.528 36.3875 238.472 35.205C241.012 34.1847 243.357 33.7626 245.506 33.9387C247.656 34.1147 249.519 34.7909 251.098 35.9671C252.677 37.1434 253.878 38.7563 254.701 40.8059C254.991 41.5276 255.217 42.258 255.38 42.9972C255.572 43.7248 255.723 44.4351 255.833 45.1282L237.43 52.5193L236.444 47.4343L249.435 42.217L245.869 45.1075C245.728 44.091 245.401 43.3173 244.886 42.7866C244.389 42.2154 243.782 41.8725 243.065 41.758C242.337 41.6146 241.554 41.711 240.717 42.0472C239.534 42.5226 238.723 43.2169 238.285 44.1303C237.847 45.0436 237.673 46.0692 237.761 47.2071C237.878 48.3334 238.157 49.4451 238.597 50.542C239.189 52.0143 240.002 52.9114 241.036 53.2334C242.088 53.515 243.379 53.3486 244.909 52.7341C245.804 52.3747 246.646 51.8854 247.437 51.2662C248.216 50.6181 248.87 49.8691 249.401 49.0192L255.854 53.3167C254.678 55.0629 253.296 56.5061 251.709 57.6464C250.151 58.775 248.477 59.6988 246.687 60.4176ZM260.475 54.3771L255.682 28.7958L264.905 25.0915L266.259 32.3423L264.584 30.8023C264.812 28.5317 265.63 26.6444 267.037 25.1405C268.473 23.625 270.317 22.4151 272.569 21.5108L274.315 30.8666C273.888 30.9712 273.495 31.0786 273.137 31.1889C272.808 31.2875 272.47 31.4064 272.124 31.5456C270.507 32.1948 269.339 33.0832 268.618 34.2107C267.927 35.3265 267.744 36.7912 268.07 38.6046L270.261 50.4468L260.475 54.3771Z" fill="black"/>
<path d="M29.2537 147.241L18.5041 149.256C19.1072 152.475 21.1214 155.254 23.9927 156.83C26.8641 158.405 30.2904 158.611 33.3297 157.39L29.2537 147.241ZM24.4607 121.66L20.3847 111.511C15.5444 113.455 12.7505 118.547 13.7111 123.674L24.4607 121.66ZM34.2035 117.747L44.9531 115.733C44.3499 112.514 42.3358 109.735 39.4644 108.159C36.5931 106.584 33.1667 106.378 30.1275 107.598L34.2035 117.747ZM38.9964 143.329L43.0724 153.477C47.9128 151.533 50.7066 146.441 49.746 141.314L38.9964 143.329ZM25.0184 117.665L21.1926 127.91C21.2418 127.929 21.2912 127.947 21.3406 127.964L25.0184 117.665ZM22.3828 110.476L12.6323 105.523C12.6116 105.564 12.5911 105.605 12.5708 105.646L22.3828 110.476ZM30.8521 106.773L27.3672 117.14C27.4166 117.156 27.466 117.173 27.5156 117.188L30.8521 106.773ZM33.5224 114.048L43.3344 118.879C43.3367 118.874 43.3389 118.87 43.3412 118.865L33.5224 114.048ZM29.2537 147.241L40.0033 145.227L35.2103 119.646L24.4607 121.66L13.7111 123.674L18.5041 149.256L29.2537 147.241ZM24.4607 121.66L28.5367 131.809L38.2795 127.896L34.2035 117.747L30.1275 107.598L20.3847 111.511L24.4607 121.66ZM34.2035 117.747L23.4539 119.761L28.2469 145.343L38.9964 143.329L49.746 141.314L44.9531 115.733L34.2035 117.747ZM38.9964 143.329L34.9205 133.18L25.1777 137.093L29.2537 147.241L33.3297 157.39L43.0724 153.477L38.9964 143.329ZM29.6278 117.372L25.5518 107.224C25.5787 107.213 25.914 107.081 26.5057 107.044C27.1326 107.004 27.9003 107.081 28.6961 107.365L25.0184 117.665L21.3406 127.964C25.8336 129.569 30.1927 128.931 33.7038 127.521L29.6278 117.372ZM25.0184 117.665L28.8441 107.419C29.4328 107.639 30.1896 108.05 30.9136 108.749C31.6422 109.453 32.1074 110.227 32.3731 110.889L22.2244 114.965L12.0757 119.041C13.7727 123.266 17.0439 126.361 21.1926 127.91L25.0184 117.665ZM22.2244 114.965L32.3731 110.889C32.5767 111.396 32.7656 112.155 32.733 113.081C32.7002 114.01 32.4558 114.777 32.1947 115.307L22.3828 110.476L12.5708 105.646C10.4612 109.931 10.3188 114.667 12.0757 119.041L22.2244 114.965ZM22.3828 110.476L32.1332 115.43C31.8228 116.041 31.4096 116.531 31.0051 116.874C30.6243 117.197 30.3636 117.297 30.3967 117.283L26.3207 107.135L22.2447 96.9861C18.4817 98.4974 14.8335 101.19 12.6323 105.523L22.3828 110.476ZM26.3207 107.135L30.3967 117.283C30.4689 117.254 29.2123 117.76 27.3672 117.14L30.8521 106.773L34.3369 96.4066C29.8564 94.9004 25.5788 95.647 22.2447 96.9861L26.3207 107.135ZM30.8521 106.773L27.5156 117.188C26.8351 116.97 25.9618 116.539 25.131 115.769C24.2978 114.998 23.787 114.145 23.5058 113.445L33.6545 109.369L43.8032 105.293C42.0537 100.937 38.6002 97.7711 34.1885 96.3579L30.8521 106.773ZM33.6545 109.369L23.5058 113.445C23.3365 113.023 23.1512 112.328 23.1762 111.442C23.2015 110.545 23.4338 109.781 23.7036 109.231L33.5224 114.048L43.3412 118.865C45.5057 114.453 45.5547 109.654 43.8032 105.293L33.6545 109.369ZM33.5224 114.048L23.7105 109.217C24.0385 108.551 24.4802 108.023 24.9086 107.658C25.3107 107.314 25.5872 107.209 25.5518 107.224L29.6278 117.372L33.7038 127.521C37.4556 126.014 41.1553 123.305 43.3344 118.879L33.5224 114.048ZM39.6908 125.751L28.7895 124.874C28.4856 128.649 30.1568 132.313 33.207 134.559C36.2572 136.804 40.2521 137.312 43.7668 135.9L39.6908 125.751ZM40.8662 111.149L50.1142 105.311C47.6012 101.33 42.8228 99.4041 38.2517 100.529C33.6806 101.655 30.3425 105.579 29.9648 110.272L40.8662 111.149ZM44.1836 116.404L48.2596 126.553C51.2713 125.343 53.5902 122.858 54.5892 119.77C55.5882 116.683 55.1642 113.31 53.4317 110.566L44.1836 116.404ZM39.7126 116.54L35.4185 126.599C35.5171 126.641 35.6163 126.681 35.7161 126.721L39.7126 116.54ZM36.7636 108.321L26.9322 103.53C26.9131 103.57 26.8941 103.609 26.8754 103.649L36.7636 108.321ZM44.9039 104.8L40.6098 114.859C40.6599 114.88 40.7101 114.901 40.7604 114.922L44.9039 104.8ZM48.3171 110.419L37.3863 110.063C37.3823 110.187 37.3803 110.311 37.3805 110.435L48.3171 110.419ZM47.8539 113.773L37.1765 111.406C37.1753 111.412 37.1742 111.417 37.1731 111.422L47.8539 113.773ZM45.753 123.317L49.829 133.465C53.1842 132.118 55.6565 129.199 56.4339 125.668L45.753 123.317ZM39.6908 125.751L50.5922 126.629L51.7676 112.026L40.8662 111.149L29.9648 110.272L28.7895 124.874L39.6908 125.751ZM40.8662 111.149L31.6181 116.987L34.9356 122.242L44.1836 116.404L53.4317 110.566L50.1142 105.311L40.8662 111.149ZM44.1836 116.404L40.1076 106.255C40.3324 106.165 40.8289 106.007 41.542 105.985C42.2815 105.962 43.0332 106.095 43.7091 106.36L39.7126 116.54L35.7161 126.721C40.0802 128.434 44.483 128.07 48.2596 126.553L44.1836 116.404ZM39.7126 116.54L44.0067 106.482C44.6385 106.752 45.3029 107.188 45.8782 107.795C46.441 108.389 46.7455 108.963 46.8935 109.332L36.7447 113.408L26.596 117.484C28.1827 121.434 31.1445 124.774 35.4185 126.599L39.7126 116.54ZM36.7447 113.408L46.8935 109.332C46.9728 109.529 47.1411 110.048 47.1382 110.813C47.1353 111.609 46.9467 112.37 46.6518 112.994L36.7636 108.321L26.8754 103.649C24.6597 108.337 24.89 113.236 26.596 117.484L36.7447 113.408ZM36.7636 108.321L46.595 113.112C46.4097 113.492 46.1029 113.94 45.6593 114.346C45.2215 114.747 44.807 114.966 44.5522 115.068L40.4762 104.919L36.4002 94.7706C32.2959 96.419 28.9453 99.3993 26.9322 103.53L36.7636 108.321ZM40.4762 104.919L44.5522 115.068C44.3681 115.142 43.8587 115.315 43.089 115.335C42.2802 115.357 41.4157 115.203 40.6098 114.859L44.9039 104.8L49.198 94.7421C44.6738 92.8107 40.1324 93.2717 36.4002 94.7706L40.4762 104.919ZM44.9039 104.8L40.7604 114.922C40.0436 114.628 39.3284 114.156 38.7296 113.524C38.1495 112.912 37.8546 112.337 37.723 112.009L47.8717 107.933L58.0205 103.857C56.4474 99.9405 53.4853 96.4959 49.0474 94.6791L44.9039 104.8ZM47.8717 107.933L37.723 112.009C37.4971 111.446 37.3633 110.768 37.3863 110.063L48.3171 110.419L59.248 110.776C59.3264 108.372 58.8957 106.036 58.0205 103.857L47.8717 107.933ZM48.3171 110.419L37.3805 110.435C37.3802 110.209 37.3985 110.172 37.3684 110.39C37.3406 110.591 37.2837 110.923 37.1765 111.406L47.8539 113.773L58.5314 116.14C58.9111 114.427 59.2566 112.411 59.2538 110.404L48.3171 110.419ZM47.8539 113.773L37.1731 111.422L35.0721 120.965L45.753 123.317L56.4339 125.668L58.5348 116.125L47.8539 113.773ZM45.753 123.317L41.677 113.168L35.6149 115.603L39.6908 125.751L43.7668 135.9L49.829 133.465L45.753 123.317ZM87.5738 97.2677L85.7134 108.045C85.7693 108.055 85.8253 108.064 85.8813 108.073L87.5738 97.2677ZM91.9965 99.7658L83.8826 107.099C83.8967 107.115 83.9109 107.13 83.9251 107.146L91.9965 99.7658ZM94.6218 105.802L83.8708 107.808L83.8734 107.822L94.6218 105.802ZM97.2758 119.922L101.352 130.071C106.194 128.126 108.988 123.031 108.024 117.902L97.2758 119.922ZM87.4897 123.852L76.7359 125.844C77.333 129.068 79.3454 131.855 82.2187 133.435C85.0919 135.015 88.5227 135.223 91.5657 134.001L87.4897 123.852ZM85.1236 111.075L74.3648 113.039C74.3664 113.048 74.3681 113.057 74.3698 113.066L85.1236 111.075ZM83.7156 108.07L77.1659 116.828C77.2241 116.872 77.2828 116.915 77.3418 116.957L83.7156 108.07ZM79.5846 109.679L89.4376 114.425C89.4743 114.349 89.5102 114.272 89.5451 114.195L79.5846 109.679ZM79.3993 113.474L68.634 115.403C68.6392 115.431 68.6444 115.46 68.6497 115.488L79.3993 113.474ZM81.774 126.148L85.8499 136.297C90.6903 134.353 93.4842 129.261 92.5235 124.134L81.774 126.148ZM71.9879 130.078L61.2341 132.07C61.8312 135.294 63.8436 138.08 66.7168 139.661C69.5901 141.241 73.0209 141.449 76.0639 140.227L71.9879 130.078ZM69.6218 117.301L58.863 119.265C58.8646 119.274 58.8663 119.283 58.8679 119.292L69.6218 117.301ZM68.2138 114.296L61.6641 123.054C61.7223 123.098 61.7809 123.141 61.84 123.183L68.2138 114.296ZM64.0569 115.965L74.0174 120.482L74.0216 120.472L64.0569 115.965ZM63.9237 119.891L53.1727 121.897C53.1737 121.902 53.1747 121.908 53.1756 121.913L63.9237 119.891ZM66.2721 132.374L70.3481 142.523C75.1913 140.577 77.9852 135.481 77.0202 130.352L66.2721 132.374ZM56.4861 136.304L45.7365 138.318C46.3396 141.537 48.3538 144.317 51.2251 145.892C54.0965 147.468 57.5228 147.674 60.562 146.453L56.4861 136.304ZM51.6931 110.723L47.6171 100.574C42.7767 102.518 39.9829 107.61 40.9435 112.737L51.6931 110.723ZM60.9163 107.019L71.6672 105.012C71.0661 101.791 69.0525 99.0095 66.1806 97.4324C63.3086 95.8552 59.8808 95.6488 56.8403 96.8699L60.9163 107.019ZM61.9203 112.398L64.7454 122.964C70.2662 121.487 73.7197 116.01 72.6713 110.392L61.9203 112.398ZM60.4218 112.799L49.6182 111.098C49.0427 114.754 50.3549 118.452 53.1055 120.928C55.856 123.404 59.6719 124.32 63.2469 123.364L60.4218 112.799ZM62.7796 107.276L71.1721 114.289C71.2055 114.249 71.2385 114.208 71.2713 114.168L62.7796 107.276ZM70.9714 103.383L70.4193 114.305C70.5305 114.311 70.6417 114.315 70.753 114.317L70.9714 103.383ZM74.7942 104.512L69.1209 113.862C69.1632 113.888 69.2056 113.913 69.2483 113.938L74.7942 104.512ZM77.7451 107.853L78.5139 118.763C82.1759 118.504 85.4641 116.426 87.2689 113.229C89.0736 110.033 89.154 106.144 87.4831 102.875L77.7451 107.853ZM74.8599 108.056L63.9773 106.97C63.6571 110.178 64.7685 113.364 67.0147 115.676C69.2608 117.989 72.4129 119.192 75.6287 118.966L74.8599 108.056ZM77.1215 101.918L85.9666 108.351C85.9924 108.315 86.0181 108.279 86.0436 108.243L77.1215 101.918ZM82.3063 97.925L86.3823 108.074C86.511 108.022 86.4913 108.047 86.3413 108.065C86.1822 108.085 85.9605 108.088 85.7134 108.045L87.5738 97.2677L89.4342 86.4905C85.473 85.8067 81.6603 86.3987 78.2304 87.7763L82.3063 97.925ZM87.5738 97.2677L85.8813 108.073C85.4332 108.002 84.9728 107.844 84.562 107.612C84.1642 107.388 83.9466 107.17 83.8826 107.099L91.9965 99.7658L100.11 92.4326C97.3606 89.3901 93.6981 87.1571 89.2663 86.4629L87.5738 97.2677ZM91.9965 99.7658L83.9251 107.146C83.6071 106.798 83.5252 106.574 83.5654 106.667C83.6097 106.768 83.7416 107.116 83.8708 107.808L94.6218 105.802L105.373 103.795C104.663 99.9894 103.187 95.7967 100.068 92.3859L91.9965 99.7658ZM94.6218 105.802L83.8734 107.822L86.5273 121.942L97.2758 119.922L108.024 117.902L105.37 103.781L94.6218 105.802ZM97.2758 119.922L93.1998 109.773L83.4137 113.704L87.4897 123.852L91.5657 134.001L101.352 130.071L97.2758 119.922ZM87.4897 123.852L98.2435 121.861L95.8774 109.083L85.1236 111.075L74.3698 113.066L76.7359 125.844L87.4897 123.852ZM85.1236 111.075L95.8824 109.11C95.5057 107.048 94.4114 102.282 90.0894 99.1825L83.7156 108.07L77.3418 116.957C75.6977 115.778 74.9417 114.42 74.6586 113.816C74.3694 113.199 74.3313 112.856 74.3648 113.039L85.1236 111.075ZM83.7156 108.07L90.2653 99.3114C86.5275 96.5162 81.7736 95.9075 77.4643 97.6383L81.5403 107.787L85.6163 117.936C84.5287 118.372 83.0148 118.697 81.2582 118.468C79.5001 118.24 78.1139 117.537 77.1659 116.828L83.7156 108.07ZM81.5403 107.787L77.4643 97.6383C73.8793 99.0781 71.1616 101.772 69.6241 105.162L79.5846 109.679L89.5451 114.195C89.2336 114.882 88.7341 115.665 87.984 116.39C87.2299 117.12 86.3975 117.622 85.6163 117.936L81.5403 107.787ZM79.5846 109.679L69.7316 104.932C67.8118 108.918 68.1978 112.968 68.634 115.403L79.3993 113.474L90.1646 111.546C90.1171 111.281 90.1666 111.406 90.1465 111.816C90.127 112.217 90.0253 113.205 89.4376 114.425L79.5846 109.679ZM79.3993 113.474L68.6497 115.488L71.0244 128.162L81.774 126.148L92.5235 124.134L90.1489 111.46L79.3993 113.474ZM81.774 126.148L77.698 115.999L67.9119 119.93L71.9879 130.078L76.0639 140.227L85.8499 136.297L81.774 126.148ZM71.9879 130.078L82.7417 128.087L80.3756 115.309L69.6218 117.301L58.8679 119.292L61.2341 132.07L71.9879 130.078ZM69.6218 117.301L80.3805 115.336C80.0039 113.274 78.9096 108.508 74.5876 105.408L68.2138 114.296L61.84 123.183C60.1959 122.004 59.4399 120.646 59.1568 120.042C58.8675 119.425 58.8295 119.082 58.863 119.265L69.6218 117.301ZM68.2138 114.296L74.7635 105.537C71.0257 102.742 66.2717 102.133 61.9625 103.864L66.0385 114.013L70.1144 124.162C69.0268 124.598 67.513 124.923 65.7564 124.694C63.9983 124.465 62.6121 123.763 61.6641 123.054L68.2138 114.296ZM66.0385 114.013L61.9625 103.864C58.2499 105.355 55.5881 108.151 54.0921 111.458L64.0569 115.965L74.0216 120.472C73.7439 121.086 73.2801 121.839 72.5477 122.561C71.8048 123.293 70.9565 123.823 70.1144 124.162L66.0385 114.013ZM64.0569 115.965L54.0964 111.449C52.2903 115.432 52.7176 119.459 53.1727 121.897L63.9237 119.891L74.6747 117.884C74.6158 117.569 74.6593 117.638 74.6473 117.994C74.6357 118.334 74.562 119.281 74.0174 120.482L64.0569 115.965ZM63.9237 119.891L53.1756 121.913L55.524 134.396L66.2721 132.374L77.0202 130.352L74.6718 117.869L63.9237 119.891ZM66.2721 132.374L62.1962 122.225L52.4101 126.156L56.4861 136.304L60.562 146.453L70.3481 142.523L66.2721 132.374ZM56.4861 136.304L67.2356 134.29L62.4427 108.709L51.6931 110.723L40.9435 112.737L45.7365 138.318L56.4861 136.304ZM51.6931 110.723L55.7691 120.872L64.9922 117.167L60.9163 107.019L56.8403 96.8699L47.6171 100.574L51.6931 110.723ZM60.9163 107.019L50.1653 109.025L51.1693 114.405L61.9203 112.398L72.6713 110.392L71.6672 105.012L60.9163 107.019ZM61.9203 112.398L59.0951 101.833L57.5966 102.234L60.4218 112.799L63.2469 123.364L64.7454 122.964L61.9203 112.398ZM60.4218 112.799L71.2254 114.5C71.2764 114.175 71.3332 114.044 71.3316 114.048C71.3309 114.05 71.3186 114.078 71.29 114.125C71.2611 114.173 71.2218 114.229 71.1721 114.289L62.7796 107.276L54.3871 100.263C51.6844 103.498 50.2201 107.275 49.6182 111.098L60.4218 112.799ZM62.7796 107.276L71.2713 114.168C71.3687 114.048 71.4005 114.035 71.3509 114.073C71.3277 114.09 71.292 114.115 71.245 114.141C71.1978 114.168 71.1475 114.192 71.097 114.213L67.021 104.064L62.945 93.9153C59.4305 95.3268 56.5467 97.6009 54.2879 100.384L62.7796 107.276ZM67.021 104.064L71.097 114.213C71.0657 114.225 70.9778 114.256 70.8419 114.28C70.7044 114.304 70.5586 114.312 70.4193 114.305L70.9714 103.383L71.5234 92.4599C68.5331 92.3087 65.641 92.8325 62.945 93.9153L67.021 104.064ZM70.9714 103.383L70.753 114.317C70.4702 114.311 70.1568 114.267 69.8413 114.173C69.5281 114.081 69.2847 113.962 69.1209 113.862L74.7942 104.512L80.4676 95.1623C77.6846 93.4737 74.5376 92.515 71.1897 92.4481L70.9714 103.383ZM74.7942 104.512L69.2483 113.938C68.2431 113.347 67.936 112.692 68.007 112.831L77.7451 107.853L87.4831 102.875C85.9901 99.9544 83.7158 97.0722 80.3402 95.0862L74.7942 104.512ZM77.7451 107.853L76.9762 96.9434L74.091 97.1467L74.8599 108.056L75.6287 118.966L78.5139 118.763L77.7451 107.853ZM74.8599 108.056L85.7424 109.143C85.8002 108.564 85.9305 108.4 85.9666 108.351L77.1215 101.918L68.2765 95.4858C65.7642 98.9405 64.3867 102.869 63.9773 106.97L74.8599 108.056ZM77.1215 101.918L86.0436 108.243C86.0489 108.236 86.0478 108.238 86.0412 108.245C86.0345 108.252 86.0317 108.254 86.038 108.249C86.045 108.243 86.1376 108.172 86.3823 108.074L82.3063 97.925L78.2304 87.7763C74.256 89.3725 70.7777 91.9563 68.1995 95.5931L77.1215 101.918ZM121.813 110.419L119.369 99.7592L121.813 110.419ZM116.875 111.146L117.18 122.078C117.274 122.075 117.368 122.071 117.462 122.066L116.875 111.146ZM112.767 110.935L101.885 109.843C101.303 115.642 105.372 120.879 111.135 121.749L112.767 110.935ZM113.681 101.818L115.118 90.9758C112.182 90.587 109.215 91.4048 106.894 93.2424C104.572 95.08 103.095 97.7803 102.799 100.726L113.681 101.818ZM117.702 102.063L117.863 112.999C117.975 112.997 118.086 112.994 118.197 112.989L117.702 102.063ZM121.488 101.599L123.707 112.308C123.723 112.305 123.738 112.302 123.754 112.298L121.488 101.599ZM127.152 99.4246L120.836 90.496C120.803 90.5196 120.77 90.5435 120.737 90.5675L127.152 99.4246ZM128.251 98.2793L138.07 103.096C138.078 103.08 138.086 103.063 138.094 103.047L128.251 98.2793ZM127.113 96.3226L125.748 107.174L125.748 107.174L127.113 96.3226ZM124.722 96.3779L125.952 107.245C125.983 107.242 126.014 107.238 126.045 107.234L124.722 96.3779ZM121.629 96.8155L123.049 107.66C123.168 107.644 123.287 107.626 123.406 107.607L121.629 96.8155ZM118.172 97.0976L118.292 108.034C118.381 108.033 118.47 108.031 118.559 108.027L118.172 97.0976ZM114.705 96.7299L112.054 107.34C112.111 107.355 112.168 107.368 112.225 107.381L114.705 96.7299ZM111.749 95.2523L118.596 86.7243L118.596 86.7242L111.749 95.2523ZM109.014 85.4386L98.4116 82.7551C98.4016 82.7945 98.3919 82.834 98.3823 82.8736L109.014 85.4386ZM112.714 79.3765L120.302 87.2525C120.319 87.2364 120.335 87.2203 120.352 87.204L112.714 79.3765ZM126.924 72.8144L128.532 83.6323C128.594 83.623 128.656 83.6132 128.719 83.6029L126.924 72.8144ZM132.756 72.6849L143.66 73.5271C144.1 67.8236 140.071 62.7442 134.417 61.8752L132.756 72.6849ZM132.066 81.611L130.19 92.3855C133.226 92.9141 136.344 92.1374 138.778 90.2464C141.211 88.3554 142.733 85.5256 142.971 82.4531L132.066 81.611ZM127.404 81.5222L128.742 92.3768C128.76 92.3745 128.778 92.3723 128.796 92.37L127.404 81.5222ZM120.502 83.9927L127.008 92.7839C127.126 92.6966 127.242 92.607 127.356 92.515L120.502 83.9927ZM119.282 85.3375L109.42 80.6106C109.351 80.7534 109.286 80.8978 109.224 81.0434L119.282 85.3375ZM120.455 87.3809L118.64 98.166C118.79 98.1911 118.939 98.213 119.089 98.2319L120.455 87.3809ZM122.846 87.3255L124.169 98.1818C124.283 98.1679 124.396 98.1523 124.509 98.1349L122.846 87.3255ZM125.939 86.8879L127.359 97.732C127.478 97.7163 127.597 97.6987 127.716 97.6792L125.939 86.8879ZM129.379 86.5625L129.666 97.4954C129.789 97.4921 129.913 97.4868 130.036 97.4794L129.379 86.5625ZM132.81 86.8436L130.33 97.4952C130.41 97.514 130.491 97.5319 130.572 97.5488L132.81 86.8436ZM135.793 88.2606L128.946 96.7886C128.985 96.8198 129.024 96.8507 129.063 96.8814L135.793 88.2606ZM138.432 97.9618L149.012 100.732C149.02 100.703 149.027 100.674 149.034 100.645L138.432 97.9618ZM134.689 104.041L127.051 96.2137C127.039 96.225 127.027 96.2364 127.016 96.2478L134.689 104.041ZM127.122 108.74L123.046 98.591C121.747 99.1125 120.523 99.4948 119.369 99.7592L121.813 110.419L124.256 121.08C126.602 120.542 128.917 119.804 131.198 118.888L127.122 108.74ZM121.813 110.419L119.369 99.7592C118.134 100.042 117.113 100.18 116.287 100.225L116.875 111.146L117.462 122.066C119.72 121.945 121.992 121.599 124.256 121.08L121.813 110.419ZM116.875 111.146L116.569 100.213C115.543 100.242 114.839 100.187 114.399 100.121L112.767 110.935L111.135 121.749C113.121 122.049 115.156 122.134 117.18 122.078L116.875 111.146ZM112.767 110.935L123.649 112.026L124.563 102.909L113.681 101.818L102.799 100.726L101.885 109.843L112.767 110.935ZM113.681 101.818L112.245 112.66C114.118 112.908 115.993 113.026 117.863 112.999L117.702 102.063L117.541 91.1279C116.812 91.1387 116.006 91.0936 115.118 90.9758L113.681 101.818ZM117.702 102.063L118.197 112.989C120.054 112.905 121.894 112.684 123.707 112.308L121.488 101.599L119.269 90.8897C118.668 91.0142 117.985 91.1028 117.208 91.1379L117.702 102.063ZM121.488 101.599L123.754 112.298C125.583 111.911 127.371 111.374 129.107 110.677L125.031 100.528L120.955 90.3794C120.439 90.5865 119.866 90.7633 119.223 90.8994L121.488 101.599ZM125.031 100.528L129.107 110.677C130.46 110.133 132.059 109.374 133.568 108.282L127.152 99.4246L120.737 90.5675C120.874 90.468 120.983 90.3981 121.055 90.3546C121.128 90.3107 121.173 90.2866 121.186 90.2801C121.205 90.2697 121.138 90.306 120.955 90.3794L125.031 100.528ZM127.152 99.4246L133.468 108.353C134.7 107.482 136.734 105.819 138.07 103.096L128.251 98.2793L118.432 93.4625C118.948 92.4119 119.545 91.6939 119.946 91.2758C120.352 90.8526 120.687 90.6018 120.836 90.496L127.152 99.4246ZM128.251 98.2793L138.094 103.047C139.294 100.57 140.046 96.9255 138.494 93.0594L128.345 97.1354L118.196 101.211C116.922 98.0381 117.612 95.1561 118.408 93.5117L128.251 98.2793ZM128.345 97.1354L138.494 93.0594C136.393 87.8283 131.742 85.8822 128.479 85.4715L127.113 96.3226L125.748 107.174C124.885 107.065 123.426 106.738 121.874 105.714C120.199 104.608 118.922 103.018 118.196 101.211L128.345 97.1354ZM127.113 96.3226L128.479 85.4715C126.622 85.2379 124.847 85.345 123.398 85.5217L124.722 96.3779L126.045 107.234C126.241 107.21 126.316 107.21 126.292 107.21C126.276 107.21 126.223 107.211 126.137 107.208C126.051 107.204 125.919 107.195 125.748 107.174L127.113 96.3226ZM124.722 96.3779L123.491 85.5107C122.343 85.6407 121.126 85.8143 119.852 86.0243L121.629 96.8155L123.406 107.607C124.395 107.444 125.24 107.326 125.952 107.245L124.722 96.3779ZM121.629 96.8155L120.209 85.9715C119.456 86.07 118.65 86.1373 117.785 86.1678L118.172 97.0976L118.559 108.027C120.074 107.974 121.572 107.853 123.049 107.66L121.629 96.8155ZM118.172 97.0976L118.051 86.1617C117.677 86.1658 117.398 86.1276 117.186 86.0783L114.705 96.7299L112.225 107.381C114.232 107.849 116.263 108.056 118.292 108.034L118.172 97.0976ZM114.705 96.7299L117.356 86.1194C117.581 86.1756 117.816 86.2607 118.044 86.3749C118.272 86.4886 118.457 86.6128 118.596 86.7243L111.749 95.2523L104.901 103.78C106.992 105.459 109.401 106.678 112.054 107.34L114.705 96.7299ZM111.749 95.2523L118.596 86.7242C119.496 87.4469 119.769 88.1311 119.761 88.1119L109.613 92.1878L99.4639 96.2638C100.523 98.9004 102.22 101.628 104.901 103.78L111.749 95.2523ZM109.613 92.1878L119.761 88.1119C119.708 87.9789 119.682 87.8898 119.67 87.8423C119.659 87.7958 119.66 87.7839 119.661 87.8022C119.663 87.8211 119.664 87.8558 119.661 87.9001C119.658 87.9445 119.651 87.9808 119.646 88.0036L109.014 85.4386L98.3823 82.8736C97.2651 87.5043 97.782 92.076 99.4639 96.2638L109.613 92.1878ZM109.014 85.4386L119.616 88.122C119.617 88.1185 119.619 88.1095 119.627 88.0912C119.635 88.0723 119.654 88.0322 119.692 87.9697C119.768 87.8459 119.941 87.6004 120.302 87.2525L112.714 79.3765L105.126 71.5004C101.997 74.5148 99.5485 78.2635 98.4116 82.7551L109.014 85.4386ZM112.714 79.3765L120.352 87.204C121.018 86.554 122.25 85.6729 124.443 84.792L120.367 74.6433L116.291 64.4946C112.134 66.1643 108.264 68.4386 105.076 71.5489L112.714 79.3765ZM120.367 74.6433L124.443 84.792C126.004 84.1653 127.361 83.8062 128.532 83.6323L126.924 72.8144L125.317 61.9965C122.248 62.4524 119.234 63.3126 116.291 64.4946L120.367 74.6433ZM126.924 72.8144L128.719 83.6029C129.957 83.3968 130.712 83.4359 131.095 83.4947L132.756 72.6849L134.417 61.8752C131.298 61.3959 128.165 61.5213 125.13 62.026L126.924 72.8144ZM132.756 72.6849L121.852 71.8428L121.162 80.7688L132.066 81.611L142.971 82.4531L143.66 73.5271L132.756 72.6849ZM132.066 81.611L133.943 70.8365C131.301 70.3764 128.644 70.337 126.013 70.6744L127.404 81.5222L128.796 92.37C129.353 92.2985 129.804 92.3183 130.19 92.3855L132.066 81.611ZM127.404 81.5222L126.067 70.6676C123.557 70.9769 121.118 71.6077 118.772 72.5496L122.848 82.6983L126.924 92.8471C127.523 92.6065 128.122 92.4531 128.742 92.3768L127.404 81.5222ZM122.848 82.6983L118.772 72.5496C117.169 73.1937 115.339 74.1099 113.648 75.4705L120.502 83.9927L127.356 92.515C127.071 92.7441 126.868 92.8611 126.808 92.8938C126.746 92.9282 126.774 92.9073 126.924 92.8471L122.848 82.6983ZM120.502 83.9927L113.996 75.2015C112.581 76.2488 110.682 77.9759 109.42 80.6106L119.282 85.3375L129.144 90.0645C128.319 91.7858 127.234 92.6164 127.008 92.7839L120.502 83.9927ZM119.282 85.3375L109.224 81.0434C108.247 83.3313 107.543 86.8313 109.057 90.6007L119.206 86.5248L129.354 82.4488C130.59 85.5254 129.937 88.2339 129.34 89.6316L119.282 85.3375ZM119.206 86.5248L109.057 90.6007C111.108 95.7079 115.589 97.6528 118.64 98.166L120.455 87.3809L122.269 76.5957C123.061 76.729 124.406 77.0813 125.84 78.0643C127.386 79.1241 128.63 80.6463 129.354 82.4488L119.206 86.5248ZM120.455 87.3809L119.089 98.2319C120.946 98.4656 122.72 98.3584 124.169 98.1818L122.846 87.3255L121.523 76.4692C121.327 76.4931 121.252 76.4939 121.276 76.4933C121.291 76.493 121.344 76.4921 121.431 76.4958C121.517 76.4995 121.649 76.5083 121.82 76.5298L120.455 87.3809ZM122.846 87.3255L124.509 98.1349C125.363 98.0035 126.312 97.8691 127.359 97.732L125.939 86.8879L124.519 76.0439C123.336 76.1987 122.223 76.356 121.183 76.5161L122.846 87.3255ZM125.939 86.8879L127.716 97.6792C128.349 97.5749 128.998 97.5129 129.666 97.4954L129.379 86.5625L129.091 75.6296C127.437 75.6731 125.793 75.8281 124.162 76.0967L125.939 86.8879ZM129.379 86.5625L130.036 97.4794C130.199 97.4695 130.285 97.4848 130.33 97.4952L132.81 86.8436L135.291 76.1921C133.117 75.6857 130.914 75.5136 128.721 75.6457L129.379 86.5625ZM132.81 86.8436L130.572 97.5488C130.289 97.4897 129.987 97.3914 129.687 97.2487C129.387 97.1065 129.139 96.9435 128.946 96.7886L135.793 88.2606L142.64 79.7325C140.432 77.9593 137.864 76.7272 135.048 76.1385L132.81 86.8436ZM135.793 88.2606L129.063 96.8814C128.049 96.0897 127.749 95.3229 127.763 95.3577L137.912 91.2817L148.06 87.2057C147.008 84.5847 145.295 81.8038 142.523 79.6397L135.793 88.2606ZM137.912 91.2817L127.763 95.3577C127.801 95.4536 127.816 95.5085 127.82 95.5249C127.824 95.5404 127.819 95.5272 127.816 95.4902C127.813 95.4527 127.813 95.4078 127.817 95.3617C127.821 95.3158 127.828 95.2863 127.83 95.2783L138.432 97.9618L149.034 100.645C150.2 96.0417 149.765 91.4499 148.06 87.2057L137.912 91.2817ZM138.432 97.9618L127.852 95.1919C127.857 95.1724 127.848 95.2289 127.757 95.3769C127.66 95.5342 127.455 95.8196 127.051 96.2137L134.689 104.041L142.327 111.869C145.392 108.878 147.849 105.177 149.012 100.732L138.432 97.9618ZM134.689 104.041L127.016 96.2478C126.389 96.8648 125.202 97.7251 123.046 98.591L127.122 108.74L131.198 118.888C135.335 117.227 139.192 114.955 142.361 111.835L134.689 104.041ZM148.875 98.3938L150.032 87.5185L150.032 87.5185L148.875 98.3938ZM144.566 96.3029L136.606 103.803C136.623 103.821 136.64 103.839 136.657 103.856L144.566 96.3029ZM142.184 91.1245L131.434 93.1355C131.436 93.1437 131.437 93.1519 131.439 93.1601L142.184 91.1245ZM138.195 69.7966L134.119 59.6479C129.279 61.5915 126.485 66.6815 127.444 71.8076L138.195 69.7966ZM147.981 65.8663L158.732 63.8598C158.131 60.6388 156.117 57.8571 153.245 56.28C150.373 54.7028 146.945 54.4964 143.905 55.7176L147.981 65.8663ZM151.953 87.1509L141.202 89.1574C141.216 89.2315 141.231 89.3055 141.246 89.3793L151.953 87.1509ZM155.655 88.2288L162.257 96.9475C162.419 96.8253 162.576 96.6987 162.731 96.5678L155.655 88.2288ZM156.563 87.361L165.879 81.6323C164.097 78.734 161.068 76.8303 157.683 76.4819C154.299 76.1335 150.945 77.3801 148.609 79.8545L156.563 87.361ZM160.332 93.4907L168.786 100.429C171.746 96.823 172.092 91.7361 169.649 87.7619L160.332 93.4907ZM157.719 95.7472L151.914 86.4782C151.822 86.5361 151.73 86.5953 151.639 86.6559L157.719 95.7472ZM137.706 85.9837L126.955 87.9902C127.556 91.2111 129.57 93.9928 132.442 95.57C135.314 97.1471 138.741 97.3535 141.782 96.1324L137.706 85.9837ZM136.265 78.2651L132.189 68.1164C127.352 70.0593 124.558 75.1468 125.514 80.2716L136.265 78.2651ZM154.149 71.0827L164.9 69.0762C164.299 65.8553 162.285 63.0735 159.413 61.4964C156.541 59.9192 153.113 59.7128 150.073 60.934L154.149 71.0827ZM155.589 78.8013L159.665 88.95C164.503 87.007 167.297 81.9196 166.34 76.7948L155.589 78.8013ZM154.48 97.4501L150.404 87.3014C149.617 87.6176 149.565 87.4688 150.032 87.5185L148.875 98.3938L147.719 109.269C151.618 109.684 155.302 108.906 158.556 107.599L154.48 97.4501ZM148.875 98.3938L150.032 87.5185C150.329 87.5501 150.778 87.6485 151.285 87.8946C151.797 88.1429 152.198 88.4592 152.475 88.7493L144.566 96.3029L136.657 103.856C139.659 107 143.515 108.822 147.719 109.269L148.875 98.3938ZM144.566 96.3029L152.526 88.8031C152.843 89.1391 152.988 89.4167 153.03 89.5084C153.066 89.5865 153.003 89.4764 152.93 89.0889L142.184 91.1245L131.439 93.1601C132.124 96.7776 133.615 100.628 136.606 103.803L144.566 96.3029ZM142.184 91.1245L152.935 89.1135L148.945 67.7856L138.195 69.7966L127.444 71.8076L131.434 93.1355L142.184 91.1245ZM138.195 69.7966L142.271 79.9453L152.057 76.015L147.981 65.8663L143.905 55.7176L134.119 59.6479L138.195 69.7966ZM147.981 65.8663L137.23 67.8728L141.202 89.1574L151.953 87.1509L162.704 85.1444L158.732 63.8598L147.981 65.8663ZM151.953 87.1509L141.246 89.3793C141.657 91.3542 143.004 95.9454 147.811 98.4889L152.926 88.8219L158.04 79.1548C159.969 80.1751 161.141 81.6121 161.783 82.7158C162.388 83.7541 162.594 84.6017 162.66 84.9224L151.953 87.1509ZM152.926 88.8219L147.811 98.4889C152.031 100.721 156.157 99.9636 158.7 98.9422L154.624 88.7935L150.548 78.6448C151.763 78.1567 154.758 77.418 158.04 79.1548L152.926 88.8219ZM154.624 88.7935L158.7 98.9422C159.81 98.4966 161.047 97.8639 162.257 96.9475L155.655 88.2288L149.052 79.5102C149.697 79.022 150.247 78.7658 150.548 78.6448L154.624 88.7935ZM155.655 88.2288L162.731 96.5678C163.375 96.0207 163.97 95.4474 164.517 94.8676L156.563 87.361L148.609 79.8545C148.578 79.8874 148.559 79.9058 148.553 79.9119C148.547 79.9179 148.555 79.9097 148.578 79.8898L155.655 88.2288ZM156.563 87.361L147.247 93.0898L151.016 99.2194L160.332 93.4907L169.649 87.7619L165.879 81.6323L156.563 87.361ZM160.332 93.4907L151.879 86.552C151.944 86.4722 151.993 86.4276 152.009 86.4142C152.023 86.4018 151.997 86.426 151.914 86.4782L157.719 95.7472L163.524 105.016C165.452 103.809 167.253 102.298 168.786 100.429L160.332 93.4907ZM157.719 95.7472L151.639 86.6559C151.283 86.8941 150.878 87.1113 150.404 87.3014L154.48 97.4501L158.556 107.599C160.392 106.861 162.146 105.943 163.798 104.839L157.719 95.7472ZM137.706 85.9837L148.457 83.9772L147.016 76.2586L136.265 78.2651L125.514 80.2716L126.955 87.9902L137.706 85.9837ZM136.265 78.2651L140.341 88.4138L158.225 81.2314L154.149 71.0827L150.073 60.934L132.189 68.1164L136.265 78.2651ZM154.149 71.0827L143.398 73.0892L144.838 80.8078L155.589 78.8013L166.34 76.7948L164.9 69.0762L154.149 71.0827ZM155.589 78.8013L151.513 68.6526L133.63 75.835L137.706 85.9837L141.782 96.1324L159.665 88.95L155.589 78.8013ZM162.878 93.5744L152.129 95.5885C152.732 98.8077 154.746 101.587 157.617 103.163C160.489 104.738 163.915 104.944 166.954 103.723L162.878 93.5744ZM158.085 67.9931L154.009 57.8444C149.169 59.7884 146.375 64.8802 147.336 70.0071L158.085 67.9931ZM167.828 64.0801L178.578 62.0661C177.975 58.8469 175.961 56.0675 173.089 54.492C170.218 52.9165 166.791 52.7108 163.752 53.9314L167.828 64.0801ZM172.621 89.6615L176.697 99.8102C181.538 97.8662 184.331 92.7744 183.371 87.6474L172.621 89.6615ZM158.643 63.9977L154.817 74.2433C154.867 74.2617 154.916 74.2797 154.965 74.2974L158.643 63.9977ZM156.007 56.8093L146.257 51.8557C146.236 51.8965 146.216 51.9375 146.196 51.9786L156.007 56.8093ZM164.477 53.1061L160.992 63.4727C161.041 63.4893 161.091 63.5055 161.14 63.5214L164.477 53.1061ZM167.147 60.3811L176.959 65.2118C176.961 65.2072 176.964 65.2025 176.966 65.1979L167.147 60.3811ZM162.878 93.5744L173.628 91.5604L168.835 65.979L158.085 67.9931L147.336 70.0071L152.129 95.5885L162.878 93.5744ZM158.085 67.9931L162.161 78.1418L171.904 74.2288L167.828 64.0801L163.752 53.9314L154.009 57.8444L158.085 67.9931ZM167.828 64.0801L157.079 66.0942L161.872 91.6755L172.621 89.6615L183.371 87.6474L178.578 62.0661L167.828 64.0801ZM172.621 89.6615L168.545 79.5128L158.802 83.4257L162.878 93.5744L166.954 103.723L176.697 99.8102L172.621 89.6615ZM163.253 63.7053L159.177 53.5566C159.203 53.5458 159.539 53.4142 160.13 53.3767C160.757 53.3369 161.525 53.4138 162.321 53.698L158.643 63.9977L154.965 74.2974C159.458 75.9017 163.817 75.2641 167.328 73.854L163.253 63.7053ZM158.643 63.9977L162.469 53.752C163.058 53.9718 163.814 54.3826 164.538 55.0822C165.267 55.7862 165.732 56.5605 165.998 57.2221L155.849 61.2981L145.7 65.3741C147.397 69.5994 150.669 72.6942 154.817 74.2433L158.643 63.9977ZM155.849 61.2981L165.998 57.2221C166.201 57.729 166.39 58.4885 166.358 59.414C166.325 60.3428 166.081 61.1097 165.819 61.6401L156.007 56.8093L146.196 51.9786C144.086 56.2637 143.944 60.9996 145.7 65.3741L155.849 61.2981ZM156.007 56.8093L165.758 61.763C165.448 62.374 165.034 62.864 164.63 63.2073C164.249 63.5305 163.988 63.6298 164.021 63.6165L159.945 53.4678L155.869 43.319C152.106 44.8304 148.458 47.523 146.257 51.8557L156.007 56.8093ZM159.945 53.4678L164.021 63.6165C164.094 63.5874 162.837 64.0929 160.992 63.4727L164.477 53.1061L167.962 42.7396C163.481 41.2334 159.204 41.98 155.869 43.319L159.945 53.4678ZM164.477 53.1061L161.14 63.5214C160.46 63.3034 159.586 62.8718 158.756 62.1024C157.923 61.3307 157.412 60.4779 157.131 59.7777L167.279 55.7017L177.428 51.6258C175.678 47.2697 172.225 44.1041 167.813 42.6909L164.477 53.1061ZM167.279 55.7017L157.131 59.7777C156.961 59.3562 156.776 58.661 156.801 57.7754C156.826 56.8783 157.059 56.1144 157.328 55.5643L167.147 60.3811L176.966 65.1979C179.13 60.7856 179.179 55.9868 177.428 51.6258L167.279 55.7017ZM167.147 60.3811L157.335 55.5504C157.663 54.8841 158.105 54.3562 158.533 53.9905C158.935 53.6473 159.212 53.5423 159.177 53.5566L163.253 63.7053L167.328 73.854C171.08 72.3472 174.78 69.6378 176.959 65.2118L167.147 60.3811ZM183.739 84.1402L183.043 95.0547C183.088 95.0575 183.132 95.0601 183.177 95.0623L183.739 84.1402ZM172.878 69.2427L162.105 67.3614L162.105 67.3614L172.878 69.2427ZM176.213 62.2713L167.883 55.1845L176.213 62.2713ZM191.36 56.2885L189.656 67.0916L189.656 67.0916L191.36 56.2885ZM197.768 59.5983L205.702 67.1259C209.695 62.9175 209.707 56.3236 205.73 52.1003L197.768 59.5983ZM190.985 66.7478L182.871 74.081C184.914 76.341 187.806 77.6468 190.852 77.6837C193.899 77.7206 196.822 76.4853 198.919 74.2754L190.985 66.7478ZM188.4 65.0704L185.951 75.7292C186.021 75.7454 186.092 75.7608 186.162 75.7756L188.4 65.0704ZM183.81 66.9139L192.646 73.3597C192.709 73.2731 192.771 73.1856 192.831 73.0971L183.81 66.9139ZM182.895 69.3934L172.01 68.3402C171.999 68.4477 171.99 68.5554 171.983 68.6632L182.895 69.3934ZM185.511 74.7794L180.585 84.5438L180.585 84.5438L185.511 74.7794ZM190.95 73.0474L182.047 66.6966L182.047 66.6966L190.95 73.0474ZM191.917 69.944L193.497 59.1222C190.508 58.6856 187.472 59.5047 185.108 61.3852C182.744 63.2658 181.263 66.0404 181.016 69.051L191.917 69.944ZM200.731 71.2314L211.582 72.597C212.325 66.688 208.204 61.2703 202.311 60.4096L200.731 71.2314ZM197.742 78.0637L189.331 71.074C189.317 71.09 189.304 71.106 189.291 71.1221L197.742 78.0637ZM191.077 82.7522L187.001 72.6034C185.558 73.1827 184.703 73.2387 184.302 73.218L183.739 84.1402L183.177 95.0623C187.362 95.2779 191.399 94.4085 195.153 92.9009L191.077 82.7522ZM183.739 84.1402L184.435 73.2257C184.158 73.208 184.028 73.1673 183.999 73.1578C183.977 73.1503 183.982 73.1509 183.981 73.1505L177.688 82.095L171.395 91.0396C174.924 93.5223 178.919 94.7917 183.043 95.0547L183.739 84.1402ZM177.688 82.095L183.981 73.1505C184.005 73.1671 184.032 73.1888 184.057 73.2132C184.082 73.2375 184.096 73.2544 184.098 73.2569C184.105 73.2659 184.03 73.1729 183.922 72.9035L173.773 76.9794L163.624 81.0554C165.197 84.9706 167.737 88.4661 171.395 91.0396L177.688 82.095ZM173.773 76.9794L183.922 72.9035C183.576 72.0421 183.582 71.523 183.652 71.1241L172.878 69.2427L162.105 67.3614C161.28 72.082 161.883 76.7206 163.624 81.0554L173.773 76.9794ZM172.878 69.2427L183.652 71.1241C183.745 70.5935 183.959 70.0449 184.543 69.3581L176.213 62.2713L167.883 55.1845C164.915 58.6735 162.906 62.7725 162.105 67.3614L172.878 69.2427ZM176.213 62.2713L184.543 69.3581C185.013 68.8063 185.815 68.1393 187.327 67.5317L183.251 57.383L179.175 47.2343C174.857 48.9687 170.967 51.5606 167.883 55.1845L176.213 62.2713ZM183.251 57.383L187.327 67.5317C188.636 67.0059 189.337 67.0413 189.656 67.0916L191.36 56.2885L193.064 45.4855C188.229 44.7227 183.524 45.4878 179.175 47.2343L183.251 57.383ZM191.36 56.2885L189.656 67.0916C189.777 67.1106 189.846 67.1304 189.874 67.1393C189.901 67.1479 189.898 67.1493 189.876 67.138C189.854 67.1264 189.829 67.1111 189.809 67.0955C189.789 67.0803 189.788 67.0768 189.807 67.0963L197.768 59.5983L205.73 52.1003C202.277 48.4341 197.894 46.2475 193.064 45.4855L191.36 56.2885ZM197.768 59.5983L189.835 52.0707L183.051 59.2203L190.985 66.7478L198.919 74.2754L205.702 67.1259L197.768 59.5983ZM190.985 66.7478L199.099 59.4147C197.311 57.4366 194.535 55.1798 190.638 54.3652L188.4 65.0704L186.162 75.7756C184.023 75.3283 182.969 74.1898 182.871 74.081L190.985 66.7478ZM188.4 65.0704L190.85 54.4117C187.744 53.698 184.626 53.9958 181.794 55.1332L185.87 65.2819L189.946 75.4306C188.789 75.8956 187.357 76.0525 185.951 75.7292L188.4 65.0704ZM185.87 65.2819L181.794 55.1332C179.01 56.2516 176.568 58.1355 174.79 60.7306L183.81 66.9139L192.831 73.0971C192.067 74.212 190.999 75.0079 189.946 75.4306L185.87 65.2819ZM183.81 66.9139L174.975 60.468C173.216 62.8789 172.275 65.6004 172.01 68.3402L182.895 69.3934L193.781 70.4465C193.698 71.3028 193.367 72.3714 192.646 73.3597L183.81 66.9139ZM182.895 69.3934L171.983 68.6632C171.789 71.5712 172.396 74.2242 173.297 76.4667L183.446 72.3907L193.594 68.3147C193.637 68.421 193.878 69.0758 193.808 70.1236L182.895 69.3934ZM183.446 72.3907L173.297 76.4667C174.561 79.6138 176.888 82.6787 180.585 84.5438L185.511 74.7794L190.437 65.015C191.271 65.4355 191.999 66.0141 192.574 66.6785C193.131 67.3232 193.437 67.9232 193.594 68.3147L183.446 72.3907ZM185.511 74.7794L180.585 84.5438C185.018 86.7803 189.483 86.2269 192.793 84.8976L188.717 74.7489L184.641 64.6002C185.026 64.4458 185.809 64.196 186.902 64.1856C188.057 64.1746 189.29 64.4364 190.437 65.015L185.511 74.7794ZM188.717 74.7489L192.793 84.8976C195.461 83.8263 197.972 82.0376 199.854 79.3982L190.95 73.0474L182.047 66.6966C182.857 65.5606 183.879 64.9063 184.641 64.6002L188.717 74.7489ZM190.95 73.0474L199.854 79.3982C201.927 76.4925 202.613 73.3187 202.817 70.8369L191.917 69.944L181.016 69.051C181.004 69.2037 181.046 68.0989 182.047 66.6966L190.95 73.0474ZM191.917 69.944L190.336 80.7658L199.15 82.0532L200.731 71.2314L202.311 60.4096L193.497 59.1222L191.917 69.944ZM200.731 71.2314L189.88 69.8658C189.826 70.2929 189.7 70.629 189.331 71.074L197.742 78.0637L206.154 85.0534C209.129 81.473 210.996 77.2542 211.582 72.597L200.731 71.2314ZM197.742 78.0637L189.291 71.1221C188.993 71.485 188.379 72.0497 187.001 72.6034L191.077 82.7522L195.153 92.9009C199.374 91.2054 203.204 88.6444 206.194 85.0052L197.742 78.0637ZM211.563 70.2499L200.859 72.4915C201.824 77.1011 205.632 80.5751 210.31 81.1146C214.989 81.6541 219.487 79.1379 221.477 74.869L211.563 70.2499ZM208.824 57.1695L199.061 52.2413C197.943 54.4554 197.611 56.9836 198.12 59.4111L208.824 57.1695ZM214.873 45.1858L210.797 35.0371C208.33 36.0281 206.308 37.884 205.11 40.2577L214.873 45.1858ZM226.911 40.3512L236.731 45.1644C238.724 41.0988 238.005 36.2258 234.924 32.9084C231.843 29.5909 227.036 28.515 222.835 30.2024L226.911 40.3512ZM218.564 57.3811L227.851 63.1578C228.045 62.8458 228.223 62.5242 228.385 62.1943L218.564 57.3811ZM214.561 63.8162L205.274 58.0396C205.043 58.4125 204.833 58.799 204.648 59.1971L214.561 63.8162ZM203.558 77.2365L192.808 79.2486C193.41 82.4683 195.424 85.2483 198.296 86.8242C201.168 88.4001 204.594 88.606 207.634 87.3853L203.558 77.2365ZM197.062 42.5332L192.986 32.3845C188.147 34.3283 185.353 39.4189 186.312 44.5453L197.062 42.5332ZM206.848 38.6029L217.598 36.5908C216.996 33.3712 214.982 30.5912 212.11 29.0152C209.239 27.4393 205.812 27.2334 202.772 28.4542L206.848 38.6029ZM213.344 73.3062L217.42 83.4549C222.26 81.5112 225.053 76.4205 224.094 71.2941L213.344 73.3062ZM220.835 70.2976L214.162 78.9626C217.23 81.325 221.318 81.8894 224.911 80.4463L220.835 70.2976ZM212.681 64.0181L202.498 60.0288C200.724 64.5582 202.154 69.7151 206.008 72.6831L212.681 64.0181ZM216.679 53.8137L223.295 45.1052C220.565 43.0315 217.021 42.3576 213.721 43.2847C210.421 44.2118 207.746 46.6326 206.496 49.8244L216.679 53.8137ZM232.31 65.689L236.386 75.8377C240.04 74.3702 242.623 71.0515 243.149 67.149C243.674 63.2465 242.061 59.3626 238.926 56.9805L232.31 65.689ZM211.563 70.2499L222.268 68.0083L219.529 54.9279L208.824 57.1695L198.12 59.4111L200.859 72.4915L211.563 70.2499ZM208.824 57.1695L218.588 62.0976L224.636 50.1139L214.873 45.1858L205.11 40.2577L199.061 52.2413L208.824 57.1695ZM214.873 45.1858L218.949 55.3345L230.987 50.4999L226.911 40.3512L222.835 30.2024L210.797 35.0371L214.873 45.1858ZM226.911 40.3512L217.09 35.538L208.743 52.5679L218.564 57.3811L228.385 62.1943L236.731 45.1644L226.911 40.3512ZM218.564 57.3811L209.277 51.6044L205.274 58.0396L214.561 63.8162L223.848 69.5929L227.851 63.1578L218.564 57.3811ZM214.561 63.8162L204.648 59.1971L201.65 65.6308L211.563 70.2499L221.477 74.869L224.474 68.4353L214.561 63.8162ZM203.558 77.2365L214.308 75.2245L207.812 40.5212L197.062 42.5332L186.312 44.5453L192.808 79.2486L203.558 77.2365ZM197.062 42.5332L201.138 52.6819L210.924 48.7516L206.848 38.6029L202.772 28.4542L192.986 32.3845L197.062 42.5332ZM206.848 38.6029L196.099 40.615L202.594 75.3183L213.344 73.3062L224.094 71.2941L217.598 36.5908L206.848 38.6029ZM213.344 73.3062L209.268 63.1575L199.482 67.0878L203.558 77.2365L207.634 87.3853L217.42 83.4549L213.344 73.3062ZM220.835 70.2976L227.508 61.6326L219.354 55.3532L212.681 64.0181L206.008 72.6831L214.162 78.9626L220.835 70.2976ZM212.681 64.0181L222.864 68.0075L226.862 57.803L216.679 53.8137L206.496 49.8244L202.498 60.0288L212.681 64.0181ZM216.679 53.8137L210.063 62.5222L225.694 74.3975L232.31 65.689L238.926 56.9805L223.295 45.1052L216.679 53.8137ZM232.31 65.689L228.234 55.5403L216.759 60.1489L220.835 70.2976L224.911 80.4463L236.386 75.8377L232.31 65.689ZM239.306 61.823L238.744 72.7452C238.765 72.7462 238.785 72.7472 238.805 72.7481L239.306 61.823ZM233.229 59.8385L239.413 50.8176L233.229 59.8385ZM228.272 46.9951L239.082 48.6541L228.272 46.9951ZM231.434 40.0933L223.067 33.051C223.054 33.0662 223.041 33.0814 223.028 33.0966L231.434 40.0933ZM245.506 33.9387L244.613 44.8388L244.613 44.8388L245.506 33.9387ZM251.098 35.9671L244.564 44.7371L244.564 44.7371L251.098 35.9671ZM255.38 42.9972L244.699 45.3493C244.731 45.4945 244.766 45.6391 244.804 45.7829L255.38 42.9972ZM255.833 45.1282L259.909 55.2769C264.648 53.3738 267.439 48.4451 266.633 43.4028L255.833 45.1282ZM237.43 52.5193L226.694 54.6017C227.315 57.805 229.334 60.5636 232.2 62.1241C235.066 63.6846 238.479 63.8841 241.506 62.668L237.43 52.5193ZM236.444 47.4343L232.368 37.2855C227.504 39.2393 224.709 44.3702 225.708 49.5167L236.444 47.4343ZM249.435 42.217L256.321 50.7131C260.524 47.3061 261.605 41.3378 258.862 36.6737C256.12 32.0097 250.379 30.0518 245.359 32.0683L249.435 42.217ZM245.869 45.1075L235.034 46.6003C235.573 50.511 238.178 53.8278 241.849 55.2786C245.52 56.7295 249.689 56.0893 252.755 53.6036L245.869 45.1075ZM244.886 42.7866L236.64 49.9704C236.768 50.1177 236.9 50.2615 237.036 50.4017L244.886 42.7866ZM243.065 41.758L240.952 52.4885C241.08 52.5138 241.209 52.5368 241.339 52.5575L243.065 41.758ZM238.285 44.1303L248.148 48.8572L238.285 44.1303ZM237.761 47.2071L226.857 48.0527C226.864 48.148 226.873 48.2432 226.883 48.3382L237.761 47.2071ZM241.036 53.2334L237.785 63.6758C237.925 63.7193 238.066 63.7601 238.208 63.798L241.036 53.2334ZM247.437 51.2662L254.181 59.876C254.265 59.8097 254.349 59.7422 254.432 59.6735L247.437 51.2662ZM249.401 49.0192L255.463 39.9165C253.002 38.2774 249.982 37.7048 247.092 38.329C244.201 38.9533 241.687 40.7214 240.122 43.2301L249.401 49.0192ZM255.854 53.3167L264.925 59.4258C266.551 57.0119 267.147 54.0495 266.582 51.1945C266.018 48.3394 264.338 45.8272 261.916 44.214L255.854 53.3167ZM251.709 57.6464L245.328 48.7645C245.316 48.7728 245.305 48.781 245.293 48.7892L251.709 57.6464ZM246.687 60.4176L242.611 50.2689C241.174 50.846 240.28 50.9195 239.808 50.8978L239.306 61.823L238.805 72.7481C242.978 72.9395 247.004 72.076 250.763 70.5663L246.687 60.4176ZM239.306 61.823L239.869 50.9008C239.611 50.8875 239.49 50.851 239.462 50.8419C239.439 50.8346 239.433 50.8312 239.413 50.8176L233.229 59.8385L227.046 68.8594C230.596 71.2925 234.6 72.5317 238.744 72.7452L239.306 61.823ZM233.229 59.8385L239.413 50.8176C239.444 50.8391 239.479 50.8665 239.511 50.8972C239.543 50.9278 239.562 50.951 239.569 50.9593C239.585 50.9798 239.512 50.8939 239.402 50.621L229.254 54.697L219.105 58.773C220.699 62.7422 223.292 66.286 227.046 68.8594L233.229 59.8385ZM229.254 54.697L239.402 50.621C239.02 49.6702 239.017 49.0801 239.082 48.6541L228.272 46.9951L217.462 45.3362C216.749 49.9831 217.4 54.5277 219.105 58.773L229.254 54.697ZM228.272 46.9951L239.082 48.6541C239.156 48.1761 239.331 47.7017 239.84 47.0899L231.434 40.0933L223.028 33.0966C220.1 36.6143 218.167 40.741 217.462 45.3362L228.272 46.9951ZM231.434 40.0933L239.802 47.1355C240.214 46.646 240.985 45.9815 242.548 45.3537L238.472 35.205L234.396 25.0562C230.07 26.7936 226.149 29.3879 223.067 33.051L231.434 40.0933ZM238.472 35.205L242.548 45.3537C243.926 44.8004 244.55 44.8336 244.613 44.8388L245.506 33.9387L246.399 23.0385C242.164 22.6916 238.099 23.569 234.396 25.0562L238.472 35.205ZM245.506 33.9387L244.613 44.8388C244.711 44.8468 244.769 44.8574 244.793 44.8626C244.817 44.8676 244.812 44.8683 244.787 44.8589C244.76 44.8494 244.723 44.8334 244.678 44.8097C244.634 44.7859 244.595 44.7604 244.564 44.7371L251.098 35.9671L257.632 27.1971C254.255 24.6807 250.39 23.3655 246.399 23.0386L245.506 33.9387ZM251.098 35.9671L244.564 44.7371C244.529 44.7114 244.495 44.6818 244.465 44.6513C244.435 44.621 244.417 44.5985 244.411 44.5905C244.396 44.5711 244.458 44.6465 244.552 44.8819L254.701 40.8059L264.85 36.7299C263.37 33.0466 261.016 29.7178 257.632 27.1971L251.098 35.9671ZM254.701 40.8059L244.552 44.8819C244.624 45.0599 244.669 45.2143 244.699 45.3493L255.38 42.9972L266.061 40.6451C265.765 39.3017 265.358 37.9953 264.85 36.7299L254.701 40.8059ZM255.38 42.9972L244.804 45.7829C244.91 46.1858 244.984 46.5419 245.034 46.8536L255.833 45.1282L266.633 43.4028C266.461 42.3284 266.233 41.2638 265.956 40.2115L255.38 42.9972ZM255.833 45.1282L251.757 34.9795L233.354 42.3706L237.43 52.5193L241.506 62.668L259.909 55.2769L255.833 45.1282ZM237.43 52.5193L248.167 50.4369L247.181 45.3518L236.444 47.4343L225.708 49.5167L226.694 54.6017L237.43 52.5193ZM236.444 47.4343L240.52 57.583L253.511 52.3657L249.435 42.217L245.359 32.0683L232.368 37.2855L236.444 47.4343ZM249.435 42.217L242.548 33.7209L238.982 36.6114L245.869 45.1075L252.755 53.6036L256.321 50.7131L249.435 42.217ZM245.869 45.1075L256.703 43.6146C256.365 41.1649 255.394 37.911 252.736 35.1715L244.886 42.7866L237.036 50.4017C235.408 48.7237 235.092 47.0171 235.034 46.6003L245.869 45.1075ZM244.886 42.7866L253.133 35.6028C251.033 33.1923 248.156 31.4963 244.791 30.9585L243.065 41.758L241.339 52.5575C240.466 52.4181 239.553 52.1174 238.679 51.6237C237.811 51.1333 237.136 50.5406 236.64 49.9704L244.886 42.7866ZM243.065 41.758L245.179 31.0275C241.965 30.3946 239.015 30.9452 236.641 31.8985L240.717 42.0472L244.793 52.196C244.094 52.4768 242.709 52.8346 240.952 52.4885L243.065 41.758ZM240.717 42.0472L236.641 31.8985C233.603 33.1187 230.328 35.4293 228.423 39.4033L238.285 44.1303L248.148 48.8572C247.118 51.0045 245.464 51.9265 244.793 52.196L240.717 42.0472ZM238.285 44.1303L228.423 39.4033C227.053 42.2618 226.639 45.2461 226.857 48.0527L237.761 47.2071L248.665 46.3615C248.706 46.8923 248.642 47.8255 248.148 48.8572L238.285 44.1303ZM237.761 47.2071L226.883 48.3382C227.11 50.5189 227.646 52.6196 228.449 54.618L238.597 50.542L248.746 46.466C248.668 46.2705 248.646 46.148 248.639 46.076L237.761 47.2071ZM238.597 50.542L228.449 54.618C229.679 57.6799 232.366 61.9887 237.785 63.6758L241.036 53.2334L244.287 42.7911C247.637 43.8341 248.699 46.3486 248.746 46.466L238.597 50.542ZM241.036 53.2334L238.208 63.798C242.452 64.9344 246.328 63.9497 248.985 62.8828L244.909 52.7341L240.833 42.5854C240.71 42.6346 240.916 42.5347 241.395 42.473C241.893 42.4088 242.772 42.3765 243.865 42.6689L241.036 53.2334ZM244.909 52.7341L248.985 62.8828C250.876 62.1232 252.612 61.1051 254.181 59.876L247.437 51.2662L240.693 42.6563C240.683 42.6641 240.692 42.656 240.72 42.6397C240.749 42.6231 240.787 42.6037 240.833 42.5854L244.909 52.7341ZM247.437 51.2662L254.432 59.6735C256.096 58.2886 257.525 56.6585 258.68 54.8082L249.401 49.0192L240.122 43.2301C240.164 43.1621 240.217 43.0906 240.277 43.0213C240.338 42.9522 240.395 42.8979 240.442 42.8589L247.437 51.2662ZM249.401 49.0192L243.338 58.1218L249.791 62.4194L255.854 53.3167L261.916 44.214L255.463 39.9165L249.401 49.0192ZM255.854 53.3167L246.782 47.2075C246.275 47.9609 245.782 48.4383 245.328 48.7645L251.709 57.6464L258.091 66.5282C260.81 64.574 263.08 62.1649 264.925 59.4258L255.854 53.3167ZM251.709 57.6464L245.293 48.7892C244.461 49.392 243.573 49.8825 242.611 50.2689L246.687 60.4176L250.763 70.5663C253.381 69.515 255.841 68.158 258.125 66.5035L251.709 57.6464ZM260.475 54.3771L249.726 56.3912C250.329 59.6103 252.343 62.3898 255.214 63.9652C258.086 65.5407 261.512 65.7465 264.551 64.5258L260.475 54.3771ZM255.682 28.7958L251.606 18.647C246.766 20.5911 243.972 25.6828 244.933 30.8098L255.682 28.7958ZM264.905 25.0915L275.656 23.085C275.055 19.8641 273.042 17.0824 270.17 15.5052C267.298 13.9281 263.87 13.7217 260.829 14.9428L264.905 25.0915ZM266.259 32.3423L258.855 40.3921C262.321 43.5799 267.439 44.1911 271.558 41.9092C275.677 39.6274 277.874 34.965 277.01 30.3358L266.259 32.3423ZM264.584 30.8023L253.702 29.7101C253.358 33.135 254.647 36.522 257.181 38.8521L264.584 30.8023ZM267.037 25.1405L259.099 17.6174C259.083 17.6341 259.067 17.6508 259.052 17.6676L267.037 25.1405ZM272.569 21.5108L283.32 19.5043C282.719 16.2833 280.705 13.5016 277.833 11.9245C274.961 10.3473 271.534 10.1409 268.493 11.362L272.569 21.5108ZM274.315 30.8666L276.915 41.4898C282.553 40.11 286.131 34.566 285.066 28.8601L274.315 30.8666ZM273.137 31.1889L276.278 41.6649C276.304 41.6571 276.33 41.6491 276.356 41.641L273.137 31.1889ZM268.618 34.2107L259.403 28.3214C259.376 28.3637 259.349 28.4062 259.322 28.4489L268.618 34.2107ZM268.07 38.6046L257.306 40.5399C257.309 40.5582 257.312 40.5765 257.316 40.5948L268.07 38.6046ZM270.261 50.4468L274.337 60.5955C279.169 58.6549 281.963 53.5767 281.015 48.4566L270.261 50.4468ZM260.475 54.3771L271.225 52.363L266.432 26.7817L255.682 28.7958L244.933 30.8098L249.726 56.3912L260.475 54.3771ZM255.682 28.7958L259.758 38.9445L268.981 35.2402L264.905 25.0915L260.829 14.9428L251.606 18.647L255.682 28.7958ZM264.905 25.0915L254.154 27.098L255.508 34.3488L266.259 32.3423L277.01 30.3358L275.656 23.085L264.905 25.0915ZM266.259 32.3423L273.662 24.2925L271.988 22.7524L264.584 30.8023L257.181 38.8521L258.855 40.3921L266.259 32.3423ZM264.584 30.8023L275.466 31.8945C275.48 31.7598 275.489 31.8337 275.404 32.0317C275.313 32.2414 275.175 32.4504 275.022 32.6134L267.037 25.1405L259.052 17.6676C255.828 21.1127 254.142 25.3243 253.702 29.7101L264.584 30.8023ZM267.037 25.1405L274.975 32.6636C275.166 32.462 275.619 32.0714 276.645 31.6595L272.569 21.5108L268.493 11.362C265.015 12.7587 261.781 14.788 259.099 17.6174L267.037 25.1405ZM272.569 21.5108L261.818 23.5173L263.564 32.8731L274.315 30.8666L285.066 28.8601L283.32 19.5043L272.569 21.5108ZM274.315 30.8666L271.715 20.2435C271.115 20.3905 270.512 20.5537 269.918 20.7367L273.137 31.1889L276.356 41.641C276.478 41.6035 276.661 41.5519 276.915 41.4898L274.315 30.8666ZM273.137 31.1889L269.997 20.7128C269.325 20.9141 268.675 21.145 268.048 21.3969L272.124 31.5456L276.2 41.6943C276.265 41.6679 276.291 41.661 276.278 41.6649L273.137 31.1889ZM272.124 31.5456L268.048 21.3969C264.952 22.6402 261.674 24.7668 259.403 28.3214L268.618 34.2107L277.834 40.0999C277.003 41.3996 276.062 41.7494 276.2 41.6943L272.124 31.5456ZM268.618 34.2107L259.322 28.4489C256.723 32.6428 256.694 37.1384 257.306 40.5399L268.07 38.6046L278.834 36.6694C278.793 36.444 279.13 38.0103 277.914 39.9724L268.618 34.2107ZM268.07 38.6046L257.316 40.5948L259.507 52.4369L270.261 50.4468L281.015 48.4566L278.824 36.6145L268.07 38.6046ZM270.261 50.4468L266.185 40.2981L256.399 44.2284L260.475 54.3771L264.551 64.5258L274.337 60.5955L270.261 50.4468Z" fill="white" mask="url(#path-1-outside-1_46_11)"/>
</g>
<defs>
<filter id="filter0_d_46_11" x="0.863449" y="0.574097" width="294.39" height="167.604" filterUnits="userSpaceOnUse" color-interpolation-filters="sRGB">
<feFlood flood-opacity="0" result="BackgroundImageFix"/>
<feColorMatrix in="SourceAlpha" type="matrix" values="0 0 0 0 0 0 0 0 0 0 0 0 0 0 0 0 0 0 127 0" result="hardAlpha"/>
<feOffset/>
<feGaussianBlur stdDeviation="5"/>
<feComposite in2="hardAlpha" operator="out"/>
<feColorMatrix type="matrix" values="0 0 0 0 0 0 0 0 0 0 0 0 0 0 0 0 0 0 0.5 0"/>
<feBlend mode="normal" in2="BackgroundImageFix" result="effect1_dropShadow_46_11"/>
<feBlend mode="normal" in="SourceGraphic" in2="effect1_dropShadow_46_11" result="shape"/>
</filter>
</defs>
</svg>
