<svg width="374" height="186" viewBox="0 0 374 186" fill="none" xmlns="http://www.w3.org/2000/svg">
<g filter="url(#filter0_dd_70_44)">
<path d="M339.834 148.353C336.376 144.692 333.743 141.874 331.188 139.2C330.285 138.213 329.349 137.337 328.588 136.272C327.453 134.856 325.801 133.168 327.516 131.383C329.199 129.71 331.026 131.208 332.4 132.212C333.918 133.138 335.305 134.507 336.615 135.734C342.746 141.261 348.844 146.899 354.833 152.505C356.407 154.05 358.124 155.516 359.381 157.328C362.116 161.018 361.117 163.615 356.689 164.484C350.749 165.633 344.764 166.528 338.779 167.424C336.258 167.889 333.627 168.322 331.094 168.423C329.646 168.48 328.141 167.919 326.681 167.612C327.151 164.379 329.103 164.228 330.868 163.903C335.328 162.922 339.866 162.084 344.326 161.104C345.871 160.714 347.526 160.356 349.363 158.968C347.451 158.167 345.682 157.288 343.738 156.598C329.141 151.48 314.654 146.394 300.058 141.276C278.86 133.863 257.773 126.483 236.608 118.959C234.883 118.334 233.321 117.154 231.397 115.989C234.25 113.574 236.361 114.915 238.196 115.573C248.672 118.882 259.194 122.445 269.638 125.866C292.14 133.299 314.643 140.733 337.146 148.167C337.728 148.217 338.089 148.203 339.834 148.353Z" fill="black"/>
<path d="M322.228 166.965C322.604 164.377 323.754 162.203 325.894 160.857C327.537 159.824 329.505 159.572 330.015 159.484C331.761 159.101 333.514 158.741 335.249 158.389C330.296 156.652 325.351 154.918 320.408 153.183C313.137 150.632 305.867 148.082 298.569 145.523L298.57 145.523C277.374 138.111 256.277 130.727 235.1 123.2L235.073 123.19C233.787 122.723 232.663 122.088 231.726 121.513C231.256 121.225 230.782 120.92 230.353 120.646C229.91 120.362 229.494 120.097 229.066 119.837L223.713 116.596L228.491 112.553C230.781 110.615 233.221 109.901 235.643 110.152C237.407 110.335 239.343 111.189 239.681 111.324C250.142 114.63 260.698 118.203 271.038 121.589L271.05 121.593C282.301 125.31 293.552 129.026 304.803 132.743C311.683 135.016 318.563 137.29 325.443 139.562C325.315 139.402 325.189 139.24 325.069 139.077C324.777 138.716 323.478 137.262 322.826 135.688C322.434 134.741 322.123 133.462 322.357 131.994C322.595 130.496 323.329 129.248 324.272 128.266L324.307 128.229L324.343 128.193C325.318 127.223 326.542 126.505 327.979 126.24C329.374 125.982 330.612 126.217 331.548 126.541C333.072 127.07 334.434 128.114 334.955 128.504C336.876 129.722 338.582 131.41 339.681 132.439C345.821 137.976 351.923 143.618 357.908 149.22L357.946 149.256L357.984 149.293C359.227 150.513 361.422 152.424 362.996 154.65C364.632 156.858 366.228 160.127 364.929 163.557C363.62 167.016 360.236 168.374 357.557 168.9L357.544 168.903C351.524 170.067 345.475 170.971 339.534 171.86C337.006 172.326 334.128 172.806 331.273 172.919C329.944 172.972 328.741 172.738 327.876 172.538C326.633 172.25 326.589 172.191 325.754 172.015L321.62 171.145L322.228 166.965Z" stroke="white" stroke-width="9"/>
</g>
<g filter="url(#filter1_d_70_44)">
<mask id="path-3-outside-1_70_44" maskUnits="userSpaceOnUse" x="8.62918" y="3.89526" width="267.154" height="143.327" fill="black">
<rect fill="white" x="8.62918" y="3.89526" width="267.154" height="143.327"/>
<path d="M26.2585 61.5622L45.6812 25.8669L56.2285 29.1403L63.3393 56.7387L58.8811 55.3551L70.6904 33.6286L83.1949 37.5094L63.7722 73.2046L53.2249 69.9312L46.1141 42.3329L50.5723 43.7165L38.7631 65.443L26.2585 61.5622ZM82.9971 79.7672C81.0399 79.1597 79.282 78.038 77.7234 76.4019C76.1761 74.7296 75.1013 72.6874 74.4989 70.2752C73.944 67.838 74.1221 65.1515 75.0333 62.2156C75.7982 59.751 76.918 57.615 78.3929 55.8077C79.8677 54.0005 81.5662 52.5607 83.4885 51.4883C85.4582 50.391 87.5148 49.718 89.6583 49.4693C91.8493 49.1956 94.014 49.3906 96.1525 50.0542C98.4721 50.7742 100.338 51.8697 101.749 53.3407C103.16 54.8118 103.879 56.7834 103.906 59.2556C103.981 61.7028 103.103 64.788 101.272 68.5112C99.775 71.5433 98.0502 74.028 96.0979 75.9652C94.1819 77.9137 92.1265 79.2229 89.9318 79.8928C87.7371 80.5627 85.4255 80.5208 82.9971 79.7672ZM90.6218 71.5239C91.7091 71.8614 92.7359 71.882 93.702 71.5858C94.6794 71.2533 95.543 70.6472 96.2929 69.7673C97.0791 68.8987 97.6859 67.7757 98.1133 66.3984C98.5408 65.0211 98.4908 63.7737 97.9634 62.6564C97.4722 61.5503 96.538 60.7835 95.1606 60.356C94.1095 60.0298 93.0772 60.0273 92.0635 60.3485C91.0974 60.6447 90.2213 61.2271 89.4351 62.0958C88.6852 62.9756 88.0965 64.1042 87.6691 65.4815C87.2416 66.8589 87.2735 68.1006 87.7647 69.2067C88.2921 70.324 89.2445 71.0965 90.6218 71.5239ZM90.6686 81.552L92.7327 77.7819L98.119 67.5326L103.037 57.2571L105.118 53.4326L117.405 57.2459L102.249 85.146L90.6686 81.552ZM116.123 89.4519L119.318 57.8398L131.442 61.6025L128.392 87.1798L122.031 85.2056L143.838 65.4496L155.962 69.2123L128.845 93.4002L116.123 89.4519ZM142.631 97.6785L163.197 59.8348L175.484 63.6481L167.992 77.4163L161.988 87.3543L157.372 95.697L154.32 101.306L142.631 97.6785ZM163.883 104.87C161.926 104.263 160.269 103.391 158.913 102.255C157.568 101.083 156.684 99.5765 156.262 97.7367C155.887 95.8719 156.116 93.5985 156.948 90.9163C157.736 88.3792 158.79 86.0045 160.113 83.7923C161.435 81.5801 162.969 79.7116 164.713 78.1868C166.47 76.6258 168.392 75.5534 170.48 74.9698C172.569 74.3861 174.755 74.4486 177.038 75.1573C179.032 75.776 180.784 76.9158 182.295 78.5769C183.853 80.2129 184.916 82.2314 185.482 84.6323C186.084 87.0445 185.924 89.7367 185.002 92.7088C184.248 95.1372 183.128 97.2732 181.642 99.1167C180.168 100.924 178.445 102.376 176.476 103.474C174.553 104.546 172.497 105.219 170.306 105.493C168.162 105.741 166.021 105.534 163.883 104.87ZM164.875 94.5684C165.962 94.9059 166.989 94.9265 167.955 94.6303C168.932 94.2979 169.796 93.6917 170.546 92.8118C171.332 91.9432 171.939 90.8202 172.366 89.4429C172.794 88.0656 172.744 86.8182 172.216 85.7009C171.725 84.5948 170.791 83.828 169.413 83.4005C168.362 83.0743 167.33 83.0718 166.316 83.393C165.35 83.6892 164.474 84.2716 163.688 85.1403C162.938 86.0201 162.349 87.1487 161.922 88.5261C161.494 89.9034 161.526 91.1451 162.017 92.2512C162.545 93.3686 163.497 94.141 164.875 94.5684ZM194.122 114.255C192.165 113.648 190.407 112.526 188.848 110.89C187.301 109.217 186.226 107.175 185.624 104.763C185.069 102.326 185.247 99.6393 186.158 96.7034C186.923 94.2388 188.043 92.1028 189.518 90.2956C190.992 88.4883 192.691 87.0485 194.613 85.9762C196.583 84.8788 198.64 84.2058 200.783 83.9571C202.974 83.6834 205.139 83.8784 207.277 84.542C209.597 85.262 211.462 86.3575 212.873 87.8285C214.284 89.2996 215.004 91.2712 215.031 93.7434C215.106 96.1906 214.228 99.2758 212.397 102.999C210.9 106.031 209.175 108.516 207.223 110.453C205.307 112.402 203.251 113.711 201.057 114.381C198.862 115.051 196.55 115.009 194.122 114.255ZM201.747 106.012C202.834 106.349 203.861 106.37 204.827 106.074C205.804 105.741 206.668 105.135 207.418 104.255C208.204 103.386 208.811 102.263 209.238 100.886C209.666 99.5089 209.616 98.2615 209.088 97.1442C208.597 96.0381 207.663 95.2713 206.285 94.8438C205.234 94.5176 204.202 94.5151 203.188 94.8363C202.222 95.1325 201.346 95.7149 200.56 96.5836C199.81 97.4634 199.221 98.592 198.794 99.9694C198.366 101.347 198.398 102.588 198.889 103.694C199.417 104.812 200.369 105.584 201.747 106.012ZM201.793 116.04L203.858 112.27L209.244 102.02L214.161 91.7449L216.242 87.9204L228.529 91.7337L213.374 119.634L201.793 116.04ZM218.767 121.307L233.922 93.4075L245.503 97.0015L241.202 104.905L240.803 102.159C242.766 100.185 244.993 99.0287 247.483 98.6888C250.008 98.3601 252.685 98.6344 255.512 99.5118L249.963 109.71C249.478 109.48 249.024 109.28 248.6 109.109C248.212 108.949 247.801 108.801 247.366 108.666C245.336 108.036 243.547 107.978 241.997 108.49C240.483 109.014 239.183 110.259 238.096 112.226L231.054 125.121L218.767 121.307Z"/>
</mask>
<path d="M26.2585 61.5622L45.6812 25.8669L56.2285 29.1403L63.3393 56.7387L58.8811 55.3551L70.6904 33.6286L83.1949 37.5094L63.7722 73.2046L53.2249 69.9312L46.1141 42.3329L50.5723 43.7165L38.7631 65.443L26.2585 61.5622ZM82.9971 79.7672C81.0399 79.1597 79.282 78.038 77.7234 76.4019C76.1761 74.7296 75.1013 72.6874 74.4989 70.2752C73.944 67.838 74.1221 65.1515 75.0333 62.2156C75.7982 59.751 76.918 57.615 78.3929 55.8077C79.8677 54.0005 81.5662 52.5607 83.4885 51.4883C85.4582 50.391 87.5148 49.718 89.6583 49.4693C91.8493 49.1956 94.014 49.3906 96.1525 50.0542C98.4721 50.7742 100.338 51.8697 101.749 53.3407C103.16 54.8118 103.879 56.7834 103.906 59.2556C103.981 61.7028 103.103 64.788 101.272 68.5112C99.775 71.5433 98.0502 74.028 96.0979 75.9652C94.1819 77.9137 92.1265 79.2229 89.9318 79.8928C87.7371 80.5627 85.4255 80.5208 82.9971 79.7672ZM90.6218 71.5239C91.7091 71.8614 92.7359 71.882 93.702 71.5858C94.6794 71.2533 95.543 70.6472 96.2929 69.7673C97.0791 68.8987 97.6859 67.7757 98.1133 66.3984C98.5408 65.0211 98.4908 63.7737 97.9634 62.6564C97.4722 61.5503 96.538 60.7835 95.1606 60.356C94.1095 60.0298 93.0772 60.0273 92.0635 60.3485C91.0974 60.6447 90.2213 61.2271 89.4351 62.0958C88.6852 62.9756 88.0965 64.1042 87.6691 65.4815C87.2416 66.8589 87.2735 68.1006 87.7647 69.2067C88.2921 70.324 89.2445 71.0965 90.6218 71.5239ZM90.6686 81.552L92.7327 77.7819L98.119 67.5326L103.037 57.2571L105.118 53.4326L117.405 57.2459L102.249 85.146L90.6686 81.552ZM116.123 89.4519L119.318 57.8398L131.442 61.6025L128.392 87.1798L122.031 85.2056L143.838 65.4496L155.962 69.2123L128.845 93.4002L116.123 89.4519ZM142.631 97.6785L163.197 59.8348L175.484 63.6481L167.992 77.4163L161.988 87.3543L157.372 95.697L154.32 101.306L142.631 97.6785ZM163.883 104.87C161.926 104.263 160.269 103.391 158.913 102.255C157.568 101.083 156.684 99.5765 156.262 97.7367C155.887 95.8719 156.116 93.5985 156.948 90.9163C157.736 88.3792 158.79 86.0045 160.113 83.7923C161.435 81.5801 162.969 79.7116 164.713 78.1868C166.47 76.6258 168.392 75.5534 170.48 74.9698C172.569 74.3861 174.755 74.4486 177.038 75.1573C179.032 75.776 180.784 76.9158 182.295 78.5769C183.853 80.2129 184.916 82.2314 185.482 84.6323C186.084 87.0445 185.924 89.7367 185.002 92.7088C184.248 95.1372 183.128 97.2732 181.642 99.1167C180.168 100.924 178.445 102.376 176.476 103.474C174.553 104.546 172.497 105.219 170.306 105.493C168.162 105.741 166.021 105.534 163.883 104.87ZM164.875 94.5684C165.962 94.9059 166.989 94.9265 167.955 94.6303C168.932 94.2979 169.796 93.6917 170.546 92.8118C171.332 91.9432 171.939 90.8202 172.366 89.4429C172.794 88.0656 172.744 86.8182 172.216 85.7009C171.725 84.5948 170.791 83.828 169.413 83.4005C168.362 83.0743 167.33 83.0718 166.316 83.393C165.35 83.6892 164.474 84.2716 163.688 85.1403C162.938 86.0201 162.349 87.1487 161.922 88.5261C161.494 89.9034 161.526 91.1451 162.017 92.2512C162.545 93.3686 163.497 94.141 164.875 94.5684ZM194.122 114.255C192.165 113.648 190.407 112.526 188.848 110.89C187.301 109.217 186.226 107.175 185.624 104.763C185.069 102.326 185.247 99.6393 186.158 96.7034C186.923 94.2388 188.043 92.1028 189.518 90.2956C190.992 88.4883 192.691 87.0485 194.613 85.9762C196.583 84.8788 198.64 84.2058 200.783 83.9571C202.974 83.6834 205.139 83.8784 207.277 84.542C209.597 85.262 211.462 86.3575 212.873 87.8285C214.284 89.2996 215.004 91.2712 215.031 93.7434C215.106 96.1906 214.228 99.2758 212.397 102.999C210.9 106.031 209.175 108.516 207.223 110.453C205.307 112.402 203.251 113.711 201.057 114.381C198.862 115.051 196.55 115.009 194.122 114.255ZM201.747 106.012C202.834 106.349 203.861 106.37 204.827 106.074C205.804 105.741 206.668 105.135 207.418 104.255C208.204 103.386 208.811 102.263 209.238 100.886C209.666 99.5089 209.616 98.2615 209.088 97.1442C208.597 96.0381 207.663 95.2713 206.285 94.8438C205.234 94.5176 204.202 94.5151 203.188 94.8363C202.222 95.1325 201.346 95.7149 200.56 96.5836C199.81 97.4634 199.221 98.592 198.794 99.9694C198.366 101.347 198.398 102.588 198.889 103.694C199.417 104.812 200.369 105.584 201.747 106.012ZM201.793 116.04L203.858 112.27L209.244 102.02L214.161 91.7449L216.242 87.9204L228.529 91.7337L213.374 119.634L201.793 116.04ZM218.767 121.307L233.922 93.4075L245.503 97.0015L241.202 104.905L240.803 102.159C242.766 100.185 244.993 99.0287 247.483 98.6888C250.008 98.3601 252.685 98.6344 255.512 99.5118L249.963 109.71C249.478 109.48 249.024 109.28 248.6 109.109C248.212 108.949 247.801 108.801 247.366 108.666C245.336 108.036 243.547 107.978 241.997 108.49C240.483 109.014 239.183 110.259 238.096 112.226L231.054 125.121L218.767 121.307Z" fill="black"/>
<path d="M26.2585 61.5622L14.539 55.1853C12.6286 58.6964 12.3929 62.879 13.897 66.5824C15.401 70.2859 18.4863 73.1198 22.3038 74.3046L26.2585 61.5622ZM45.6812 25.8669L49.6358 13.1245C43.5617 11.2394 37.0015 13.9037 33.9617 19.4901L45.6812 25.8669ZM56.2285 29.1403L69.1486 25.8115C67.9943 21.3314 64.6016 17.7692 60.1832 16.3979L56.2285 29.1403ZM63.3393 56.7387L59.3846 69.4811C64.0043 70.9148 69.0381 69.736 72.5407 66.4001C76.0434 63.0642 77.4662 58.0938 76.2593 53.4098L63.3393 56.7387ZM58.8811 55.3551L47.1588 48.9835C45.2504 52.4945 45.0163 56.676 46.5208 60.3781C48.0253 64.0802 51.1099 66.913 54.9265 68.0975L58.8811 55.3551ZM70.6904 33.6286L74.645 20.8861C68.5687 19.0004 62.0063 21.6672 58.968 27.257L70.6904 33.6286ZM83.1949 37.5094L94.9144 43.8863C96.8248 40.3752 97.0605 36.1926 95.5564 32.4891C94.0524 28.7857 90.9671 25.9518 87.1496 24.767L83.1949 37.5094ZM63.7722 73.2046L59.8176 85.9471C65.8917 87.8322 72.452 85.1679 75.4917 79.5815L63.7722 73.2046ZM53.2249 69.9312L40.3048 73.2601C41.4591 77.7401 44.8518 81.3024 49.2702 82.6737L53.2249 69.9312ZM46.1141 42.3329L50.0688 29.5905C45.4491 28.1568 40.4153 29.3356 36.9127 32.6715C33.41 36.0074 31.9872 40.9778 33.1941 45.6618L46.1141 42.3329ZM50.5723 43.7165L62.2946 50.0881C64.203 46.5771 64.4371 42.3956 62.9326 38.6935C61.4281 34.9914 58.3435 32.1585 54.5269 30.9741L50.5723 43.7165ZM38.7631 65.443L34.8084 78.1854C40.8847 80.0712 47.4471 77.4043 50.4854 71.8145L38.7631 65.443ZM26.2585 61.5622L37.9779 67.939L57.4006 32.2438L45.6812 25.8669L33.9617 19.4901L14.539 55.1853L26.2585 61.5622ZM45.6812 25.8669L41.7265 38.6094L52.2739 41.8828L56.2285 29.1403L60.1832 16.3979L49.6358 13.1245L45.6812 25.8669ZM56.2285 29.1403L43.3085 32.4692L50.4192 60.0675L63.3393 56.7387L76.2593 53.4098L69.1486 25.8115L56.2285 29.1403ZM63.3393 56.7387L67.2939 43.9962L62.8358 42.6126L58.8811 55.3551L54.9265 68.0975L59.3846 69.4811L63.3393 56.7387ZM58.8811 55.3551L70.6034 61.7266L82.4127 40.0002L70.6904 33.6286L58.968 27.257L47.1588 48.9835L58.8811 55.3551ZM70.6904 33.6286L66.7357 46.371L79.2403 50.2519L83.1949 37.5094L87.1496 24.767L74.645 20.8861L70.6904 33.6286ZM83.1949 37.5094L71.4755 31.1326L52.0528 66.8278L63.7722 73.2046L75.4917 79.5815L94.9144 43.8863L83.1949 37.5094ZM63.7722 73.2046L67.7269 60.4622L57.1795 57.1888L53.2249 69.9312L49.2702 82.6737L59.8176 85.9471L63.7722 73.2046ZM53.2249 69.9312L66.1449 66.6024L59.0342 39.004L46.1141 42.3329L33.1941 45.6618L40.3048 73.2601L53.2249 69.9312ZM46.1141 42.3329L42.1595 55.0754L46.6176 56.459L50.5723 43.7165L54.5269 30.9741L50.0688 29.5905L46.1141 42.3329ZM50.5723 43.7165L38.85 37.345L27.0407 59.0714L38.7631 65.443L50.4854 71.8145L62.2946 50.0881L50.5723 43.7165ZM38.7631 65.443L42.7177 52.7005L30.2131 48.8197L26.2585 61.5622L22.3038 74.3046L34.8084 78.1854L38.7631 65.443ZM77.7234 76.4019L67.9303 85.463C67.9742 85.5105 68.0185 85.5577 68.0631 85.6045L77.7234 76.4019ZM74.4989 70.2752L61.4898 73.2372C61.5104 73.3276 61.532 73.4179 61.5544 73.5079L74.4989 70.2752ZM78.3929 55.8077L68.0559 47.3723L68.0559 47.3723L78.3929 55.8077ZM83.4885 51.4883L76.9953 39.833L76.9885 39.8367L83.4885 51.4883ZM89.6583 49.4693L91.196 62.7224C91.2348 62.7179 91.2735 62.7132 91.3122 62.7084L89.6583 49.4693ZM103.906 59.2556L90.5652 59.4039C90.5662 59.4907 90.568 59.5774 90.5706 59.6642L103.906 59.2556ZM101.272 68.5112L113.235 74.4188C113.238 74.4123 113.242 74.4057 113.245 74.3991L101.272 68.5112ZM96.0979 75.9652L86.7002 66.4946C86.6615 66.5331 86.623 66.5717 86.5848 66.6106L96.0979 75.9652ZM89.9318 79.8928L93.8268 92.6536L89.9318 79.8928ZM93.702 71.5858L97.6129 84.3418C97.742 84.3021 97.8706 84.2606 97.9985 84.2171L93.702 71.5858ZM96.2929 69.7673L86.4008 60.8144C86.3119 60.9126 86.2245 61.0121 86.1386 61.1129L96.2929 69.7673ZM97.9634 62.6564L85.7696 68.0712C85.8113 68.1651 85.8541 68.2586 85.898 68.3516L97.9634 62.6564ZM92.0635 60.3485L95.9744 73.1045C96.0143 73.0922 96.0541 73.0798 96.0939 73.0672L92.0635 60.3485ZM89.4351 62.0958L79.543 53.1429C79.4541 53.2411 79.3667 53.3406 79.2808 53.4414L89.4351 62.0958ZM87.7647 69.2067L75.5708 74.6215C75.6126 74.7154 75.6554 74.8089 75.6993 74.9019L87.7647 69.2067ZM90.6686 81.552L78.9658 75.1447C77.0433 78.6561 76.7991 82.8452 78.3006 86.5562C79.8021 90.2672 82.8906 93.1078 86.7139 94.2944L90.6686 81.552ZM92.7327 77.7819L104.436 84.1891C104.472 84.1226 104.508 84.0557 104.543 83.9885L92.7327 77.7819ZM98.119 67.5326L109.929 73.7393C110.007 73.5916 110.082 73.4426 110.154 73.2921L98.119 67.5326ZM103.037 57.2571L91.3171 50.8802C91.2066 51.0833 91.1014 51.2891 91.0017 51.4976L103.037 57.2571ZM105.118 53.4326L109.072 40.6902C102.998 38.8051 96.4378 41.4693 93.3981 47.0558L105.118 53.4326ZM117.405 57.2459L129.129 63.6145C131.036 60.1036 131.269 55.9227 129.764 52.2213C128.26 48.52 125.175 45.6878 121.359 44.5035L117.405 57.2459ZM102.249 85.146L98.2943 97.8884C104.372 99.7746 110.935 97.1062 113.973 91.5146L102.249 85.146ZM82.9971 79.7672L86.9517 67.0247C87.129 67.0797 87.2818 67.1555 87.3878 67.2231C87.4881 67.2871 87.4821 67.3026 87.3837 67.1993L77.7234 76.4019L68.0631 85.6045C71.026 88.7147 74.6954 91.1605 79.0425 92.5096L82.9971 79.7672ZM77.7234 76.4019L87.5166 67.3408C87.5275 67.3526 87.54 67.3679 87.5514 67.384C87.5627 67.4001 87.5665 67.4078 87.5635 67.4021C87.5599 67.3954 87.5057 67.2923 87.4434 67.0425L74.4989 70.2752L61.5544 73.5079C62.6496 77.8933 64.7227 81.9963 67.9303 85.463L77.7234 76.4019ZM74.4989 70.2752L87.508 67.3132C87.5387 67.4481 87.5189 67.468 87.5291 67.3151C87.5401 67.1495 87.5871 66.778 87.7757 66.1703L75.0333 62.2156L62.2908 58.261C60.8427 62.9269 60.3064 68.0398 61.4898 73.2372L74.4989 70.2752ZM75.0333 62.2156L87.7757 66.1703C88.0875 65.1658 88.4461 64.5908 88.7298 64.2432L78.3929 55.8077L68.0559 47.3723C65.39 50.6392 63.5089 54.3362 62.2908 58.261L75.0333 62.2156ZM78.3929 55.8077L88.7298 64.2432C89.2044 63.6617 89.623 63.3438 89.9884 63.14L83.4885 51.4883L76.9885 39.8367C73.5094 41.7776 70.531 44.3393 68.0559 47.3723L78.3929 55.8077ZM83.4885 51.4883L89.9817 63.1437C90.4906 62.8602 90.8712 62.7601 91.196 62.7224L89.6583 49.4693L88.1206 36.2162C84.1585 36.6759 80.4259 37.9218 76.9953 39.833L83.4885 51.4883ZM89.6583 49.4693L91.3122 62.7084C91.5924 62.6734 91.8459 62.6875 92.1978 62.7967L96.1525 50.0542L100.107 37.3118C96.1821 36.0937 92.1061 35.7178 88.0044 36.2302L89.6583 49.4693ZM96.1525 50.0542L92.1978 62.7967C92.4969 62.8895 92.5856 62.9504 92.5348 62.9205C92.5091 62.9055 92.4535 62.8705 92.3775 62.811C92.3011 62.7511 92.2127 62.6732 92.12 62.5765L101.749 53.3407L111.377 44.1049C108.128 40.7174 104.171 38.5732 100.107 37.3118L96.1525 50.0542ZM101.749 53.3407L92.12 62.5765C91.5057 61.9361 91.0679 61.1959 90.8123 60.4953C90.5716 59.8354 90.5653 59.4151 90.5652 59.4039L103.906 59.2556L117.248 59.1073C117.191 54.0067 115.615 48.5231 111.377 44.1049L101.749 53.3407ZM103.906 59.2556L90.5706 59.6642C90.5554 59.1668 90.6446 59.145 90.4716 59.7529C90.3044 60.3404 89.9589 61.283 89.2997 62.6233L101.272 68.5112L113.245 74.3991C115.453 69.9084 117.415 64.4946 117.242 58.847L103.906 59.2556ZM101.272 68.5112L89.3094 62.6037C88.3204 64.6066 87.398 65.8022 86.7002 66.4946L96.0979 75.9652L105.496 85.4358C108.702 82.2538 111.23 78.4801 113.235 74.4188L101.272 68.5112ZM96.0979 75.9652L86.5848 66.6106C86.2501 66.9509 86.0327 67.1037 85.9516 67.1554C85.8787 67.2019 85.9108 67.1705 86.0368 67.132L89.9318 79.8928L93.8268 92.6536C98.5204 91.221 102.433 88.5521 105.611 85.3199L96.0979 75.9652ZM89.9318 79.8928L86.0368 67.132C86.2896 67.0548 86.5596 67.0198 86.7938 67.024C87.0163 67.028 87.0816 67.065 86.9517 67.0247L82.9971 79.7672L79.0425 92.5096C83.7387 93.9671 88.7992 94.1882 93.8268 92.6536L89.9318 79.8928ZM90.6218 71.5239L86.6671 84.2664C89.979 85.2942 93.7659 85.5212 97.6129 84.3418L93.702 71.5858L89.7912 58.8298C91.7059 58.2428 93.4392 58.4285 94.5764 58.7815L90.6218 71.5239ZM93.702 71.5858L97.9985 84.2171C101.515 83.0209 104.33 80.9059 106.447 78.4217L96.2929 69.7673L86.1386 61.1129C86.756 60.3884 87.8437 59.4858 89.4055 58.9545L93.702 71.5858ZM96.2929 69.7673L106.185 78.7202C108.538 76.1199 109.983 73.1657 110.856 70.353L98.1133 66.3984L85.3709 62.4437C85.3889 62.3857 85.6197 61.6774 86.4008 60.8144L96.2929 69.7673ZM98.1133 66.3984L110.856 70.353C112.096 66.3554 112.216 61.5949 110.029 56.9611L97.9634 62.6564L85.898 68.3516C85.3899 67.2751 85.111 66.1093 85.0651 64.9641C85.0206 63.8533 85.2028 62.9854 85.3709 62.4437L98.1133 66.3984ZM97.9634 62.6564L110.157 57.2416C107.804 51.9425 103.395 48.9419 99.1153 47.6136L95.1606 60.356L91.206 73.0985C90.56 72.898 89.5257 72.4643 88.4298 71.5649C87.2867 70.6267 86.367 69.4166 85.7696 68.0712L97.9634 62.6564ZM95.1606 60.356L99.1153 47.6136C95.5595 46.51 91.7388 46.4555 88.0332 47.6298L92.0635 60.3485L96.0939 73.0672C94.4155 73.5991 92.6595 73.5496 91.206 73.0985L95.1606 60.356ZM92.0635 60.3485L88.1527 47.5925C84.5409 48.6999 81.6825 50.7789 79.543 53.1429L89.4351 62.0958L99.3273 71.0486C98.7601 71.6754 97.6539 72.5895 95.9744 73.1045L92.0635 60.3485ZM89.4351 62.0958L79.2808 53.4414C77.1074 55.9915 75.7614 58.8373 74.9266 61.5269L87.6691 65.4815L100.412 69.4362C100.432 69.3712 100.263 69.9598 99.5895 70.7501L89.4351 62.0958ZM87.6691 65.4815L74.9266 61.5269C73.7343 65.3689 73.526 70.0165 75.5708 74.6215L87.7647 69.2067L99.9585 63.7919C100.442 64.8808 100.682 66.022 100.71 67.1036C100.737 68.1509 100.561 68.9539 100.412 69.4362L87.6691 65.4815ZM87.7647 69.2067L75.6993 74.9019C78.0936 79.9743 82.3717 82.9333 86.6671 84.2664L90.6218 71.5239L94.5764 58.7815C95.2284 58.9838 96.2263 59.4081 97.2787 60.2617C98.37 61.1467 99.2458 62.2738 99.8301 63.5115L87.7647 69.2067ZM90.6686 81.552L102.371 87.9592L104.436 84.1891L92.7327 77.7819L81.0299 71.3746L78.9658 75.1447L90.6686 81.552ZM92.7327 77.7819L104.543 83.9885L109.929 73.7393L98.119 67.5326L86.3085 61.3259L80.9223 71.5752L92.7327 77.7819ZM98.119 67.5326L110.154 73.2921L115.071 63.0166L103.037 57.2571L91.0017 51.4976L86.0841 61.7731L98.119 67.5326ZM103.037 57.2571L114.756 63.6339L116.837 59.8095L105.118 53.4326L93.3981 47.0558L91.3171 50.8802L103.037 57.2571ZM105.118 53.4326L101.163 66.1751L113.45 69.9884L117.405 57.2459L121.359 44.5035L109.072 40.6902L105.118 53.4326ZM117.405 57.2459L105.681 50.8773L90.525 78.7773L102.249 85.146L113.973 91.5146L129.129 63.6145L117.405 57.2459ZM102.249 85.146L106.204 72.4035L94.6232 68.8095L90.6686 81.552L86.7139 94.2944L98.2943 97.8884L102.249 85.146ZM116.123 89.4519L102.849 88.1104C102.211 94.424 106.108 100.313 112.169 102.194L116.123 89.4519ZM119.318 57.8398L123.273 45.0973C119.449 43.9106 115.294 44.5038 111.955 46.7133C108.616 48.9227 106.446 52.5148 106.044 56.4983L119.318 57.8398ZM131.442 61.6025L144.69 63.1825C145.452 56.7917 141.544 50.7677 135.397 48.8601L131.442 61.6025ZM128.392 87.1798L124.437 99.9222C128.221 101.097 132.331 100.529 135.654 98.3721C138.978 96.2156 141.171 92.6937 141.64 88.7598L128.392 87.1798ZM122.031 85.2056L113.073 75.3178C109.522 78.5344 107.969 83.4078 109.003 88.0857C110.037 92.7637 113.5 96.528 118.076 97.9481L122.031 85.2056ZM143.838 65.4496L147.793 52.7071C143.287 51.3087 138.377 52.3941 134.88 55.5618L143.838 65.4496ZM155.962 69.2123L164.843 79.1689C168.432 75.9675 170.021 71.0823 169 66.3825C167.98 61.6826 164.51 57.8954 159.917 56.4699L155.962 69.2123ZM128.845 93.4002L124.891 106.143C129.362 107.53 134.233 106.473 137.727 103.357L128.845 93.4002ZM116.123 89.4519L129.398 90.7934L132.593 59.1813L119.318 57.8398L106.044 56.4983L102.849 88.1104L116.123 89.4519ZM119.318 57.8398L115.363 70.5822L127.487 74.345L131.442 61.6025L135.397 48.8601L123.273 45.0973L119.318 57.8398ZM131.442 61.6025L118.194 60.0225L115.144 85.5998L128.392 87.1798L141.64 88.7598L144.69 63.1825L131.442 61.6025ZM128.392 87.1798L132.346 74.4373L125.985 72.4632L122.031 85.2056L118.076 97.9481L124.437 99.9222L128.392 87.1798ZM122.031 85.2056L130.988 95.0934L152.796 75.3374L143.838 65.4496L134.88 55.5618L113.073 75.3178L122.031 85.2056ZM143.838 65.4496L139.883 78.192L152.007 81.9548L155.962 69.2123L159.917 56.4699L147.793 52.7071L143.838 65.4496ZM155.962 69.2123L147.081 59.2557L119.964 83.4437L128.845 93.4002L137.727 103.357L164.843 79.1689L155.962 69.2123ZM128.845 93.4002L132.8 80.6578L120.078 76.7095L116.123 89.4519L112.169 102.194L124.891 106.143L128.845 93.4002ZM142.631 97.6785L130.908 91.3077C129 94.8187 128.766 99.0001 130.27 102.702C131.775 106.404 134.86 109.237 138.676 110.421L142.631 97.6785ZM163.197 59.8348L167.152 47.0924C161.075 45.2065 154.512 47.8737 151.474 53.464L163.197 59.8348ZM175.484 63.6481L187.203 70.025C189.114 66.5139 189.35 62.3313 187.846 58.6279C186.341 54.9244 183.256 52.0905 179.439 50.9057L175.484 63.6481ZM167.992 77.4163L179.412 84.3162C179.516 84.1442 179.616 83.9697 179.712 83.7931L167.992 77.4163ZM161.988 87.3543L150.568 80.4544C150.48 80.5997 150.395 80.7467 150.313 80.8953L161.988 87.3543ZM157.372 95.697L145.697 89.2379C145.682 89.2653 145.667 89.2927 145.652 89.3201L157.372 95.697ZM154.32 101.306L150.365 114.049C156.439 115.934 162.999 113.269 166.039 107.683L154.32 101.306ZM158.913 102.255L150.146 112.312C150.211 112.369 150.278 112.426 150.345 112.482L158.913 102.255ZM156.262 97.7367L143.182 100.367C143.206 100.486 143.231 100.604 143.258 100.722L156.262 97.7367ZM160.113 83.7923L171.565 90.6377L171.565 90.6377L160.113 83.7923ZM164.713 78.1868L173.493 88.2331C173.521 88.2083 173.55 88.1834 173.578 88.1584L164.713 78.1868ZM170.48 74.9698L174.071 87.8194L174.071 87.8194L170.48 74.9698ZM182.295 78.5769L172.426 87.5549C172.494 87.6306 172.564 87.7054 172.635 87.7795L182.295 78.5769ZM185.482 84.6323L172.496 87.6945C172.51 87.7514 172.523 87.8083 172.538 87.865L185.482 84.6323ZM181.642 99.1167L191.979 107.552C191.996 107.532 192.013 107.511 192.03 107.49L181.642 99.1167ZM176.476 103.474L169.982 91.8182L169.976 91.822L176.476 103.474ZM170.306 105.493L171.843 118.746C171.882 118.741 171.921 118.737 171.96 118.732L170.306 105.493ZM167.955 94.6303L171.866 107.386C171.995 107.347 172.123 107.305 172.251 107.262L167.955 94.6303ZM170.546 92.8118L160.654 83.8589C160.565 83.9571 160.477 84.0566 160.391 84.1574L170.546 92.8118ZM172.216 85.7009L160.022 91.1157C160.064 91.2096 160.107 91.3031 160.151 91.3961L172.216 85.7009ZM166.316 83.393L170.227 96.149C170.267 96.1367 170.307 96.1243 170.347 96.1117L166.316 83.393ZM163.688 85.1403L153.796 76.1874C153.707 76.2856 153.619 76.3851 153.534 76.4859L163.688 85.1403ZM162.017 92.2512L149.824 97.666C149.865 97.7599 149.908 97.8534 149.952 97.9464L162.017 92.2512ZM142.631 97.6785L154.353 104.049L174.92 66.2056L163.197 59.8348L151.474 53.464L130.908 91.3077L142.631 97.6785ZM163.197 59.8348L159.242 72.5773L171.529 76.3906L175.484 63.6481L179.439 50.9057L167.152 47.0924L163.197 59.8348ZM175.484 63.6481L163.765 57.2713L156.273 71.0394L167.992 77.4163L179.712 83.7931L187.203 70.025L175.484 63.6481ZM167.992 77.4163L156.573 70.5164L150.568 80.4544L161.988 87.3543L173.407 94.2543L179.412 84.3162L167.992 77.4163ZM161.988 87.3543L150.313 80.8953L145.697 89.2379L157.372 95.697L169.046 102.156L173.662 93.8134L161.988 87.3543ZM157.372 95.697L145.652 89.3201L142.6 94.9294L154.32 101.306L166.039 107.683L169.091 102.074L157.372 95.697ZM154.32 101.306L158.274 88.5638L146.585 84.936L142.631 97.6785L138.676 110.421L150.365 114.049L154.32 101.306ZM163.883 104.87L167.837 92.1277C167.566 92.0435 167.427 91.9756 167.386 91.9538C167.348 91.9338 167.392 91.9528 167.481 92.0278L158.913 102.255L150.345 112.482C153.254 114.92 156.546 116.563 159.928 117.613L163.883 104.87ZM158.913 102.255L167.68 92.1978C168.07 92.5374 168.446 92.9778 168.749 93.4944C169.048 94.0042 169.197 94.4536 169.266 94.7509L156.262 97.7367L143.258 100.722C144.272 105.138 146.55 109.178 150.146 112.312L158.913 102.255ZM156.262 97.7367L169.342 95.1067C169.464 95.7106 169.42 96.0387 169.427 95.9687C169.43 95.9396 169.443 95.8341 169.483 95.6449C169.524 95.4561 169.589 95.1996 169.691 94.871L156.948 90.9163L144.206 86.9617C143.004 90.8341 142.206 95.5162 143.182 100.367L156.262 97.7367ZM156.948 90.9163L169.691 94.871C170.174 93.314 170.802 91.9134 171.565 90.6377L160.113 83.7923L148.661 76.9468C146.779 80.0956 145.297 83.4443 144.206 86.9617L156.948 90.9163ZM160.113 83.7923L171.565 90.6377C172.249 89.4925 172.912 88.7406 173.493 88.2331L164.713 78.1868L155.934 68.1405C153.025 70.6826 150.621 73.6677 148.661 76.9468L160.113 83.7923ZM164.713 78.1868L173.578 88.1584C173.78 87.9791 173.913 87.8965 173.972 87.8634C174.028 87.8321 174.056 87.8237 174.071 87.8194L170.48 74.9698L166.889 62.1201C162.687 63.2943 158.992 65.421 155.849 68.2152L164.713 78.1868ZM170.48 74.9698L174.071 87.8194C173.812 87.8918 173.541 87.9222 173.305 87.9155C173.078 87.909 172.993 87.8717 173.083 87.8997L177.038 75.1573L180.993 62.4148C176.518 61.026 171.701 60.7753 166.889 62.1201L170.48 74.9698ZM177.038 75.1573L173.083 87.8997C172.905 87.8444 172.724 87.7591 172.572 87.6601C172.425 87.5644 172.38 87.5053 172.426 87.5549L182.295 78.5769L192.164 69.5988C189.178 66.3162 185.43 63.7919 180.993 62.4148L177.038 75.1573ZM182.295 78.5769L172.635 87.7795C172.6 87.7429 172.563 87.6993 172.529 87.6511C172.494 87.603 172.47 87.5613 172.454 87.5317C172.439 87.5025 172.437 87.495 172.445 87.5165C172.453 87.5385 172.473 87.5955 172.496 87.6945L185.482 84.6323L198.468 81.5702C197.409 77.0814 195.296 72.8807 191.955 69.3743L182.295 78.5769ZM185.482 84.6323L172.538 87.865C172.484 87.65 172.502 87.5615 172.495 87.6691C172.488 87.7918 172.45 88.1417 172.26 88.7541L185.002 92.7088L197.744 96.6634C199.21 91.9414 199.753 86.7099 198.426 81.3997L185.482 84.6323ZM185.002 92.7088L172.26 88.7541C171.968 89.694 171.608 90.3051 171.255 90.7433L181.642 99.1167L192.03 107.49C194.649 104.241 196.529 100.58 197.744 96.6634L185.002 92.7088ZM181.642 99.1167L171.305 90.6812C170.859 91.2278 170.428 91.57 169.982 91.8182L176.476 103.474L182.969 115.129C186.463 113.182 189.476 110.62 191.979 107.552L181.642 99.1167ZM176.476 103.474L169.976 91.822C169.556 92.0558 169.146 92.1918 168.652 92.2535L170.306 105.493L171.96 118.732C175.847 118.246 179.55 117.036 182.975 115.125L176.476 103.474ZM170.306 105.493L168.768 92.2395C168.541 92.2659 168.269 92.2617 167.837 92.1277L163.883 104.87L159.928 117.613C163.773 118.806 167.784 119.217 171.843 118.746L170.306 105.493ZM164.875 94.5684L160.92 107.311C164.232 108.339 168.019 108.566 171.866 107.386L167.955 94.6303L164.044 81.8743C165.959 81.2873 167.692 81.473 168.829 81.826L164.875 94.5684ZM167.955 94.6303L172.251 107.262C175.768 106.065 178.583 103.95 180.7 101.466L170.546 92.8118L160.391 84.1574C161.009 83.4329 162.097 82.5303 163.658 81.999L167.955 94.6303ZM170.546 92.8118L180.438 101.765C182.791 99.1644 184.236 96.2102 185.109 93.3975L172.366 89.4429L159.624 85.4882C159.642 85.4302 159.872 84.7219 160.654 83.8589L170.546 92.8118ZM172.366 89.4429L185.109 93.3975C186.349 89.4 186.469 84.6394 184.282 80.0057L172.216 85.7009L160.151 91.3961C159.643 90.3196 159.364 89.1538 159.318 88.0086C159.273 86.8978 159.456 86.0299 159.624 85.4882L172.366 89.4429ZM172.216 85.7009L184.41 80.2861C182.057 74.987 177.648 71.9864 173.368 70.6581L169.413 83.4005L165.459 96.143C164.813 95.9425 163.779 95.5088 162.683 94.6094C161.54 93.6712 160.62 92.4611 160.022 91.1157L172.216 85.7009ZM169.413 83.4005L173.368 70.6581C169.812 69.5545 165.992 69.5 162.286 70.6743L166.316 83.393L170.347 96.1117C168.668 96.6436 166.912 96.5941 165.459 96.143L169.413 83.4005ZM166.316 83.393L162.406 70.637C158.794 71.7444 155.935 73.8234 153.796 76.1874L163.688 85.1403L173.58 94.0931C173.013 94.7199 171.907 95.634 170.227 96.149L166.316 83.393ZM163.688 85.1403L153.534 76.4859C151.36 79.036 150.014 81.8818 149.179 84.5714L161.922 88.5261L174.664 92.4807C174.685 92.4157 174.516 93.0043 173.842 93.7946L163.688 85.1403ZM161.922 88.5261L149.179 84.5714C147.987 88.4134 147.779 93.061 149.824 97.666L162.017 92.2512L174.211 86.8364C174.695 87.9253 174.935 89.0665 174.963 90.1481C174.99 91.1954 174.814 91.9984 174.664 92.4807L161.922 88.5261ZM162.017 92.2512L149.952 97.9464C152.346 103.019 156.625 105.978 160.92 107.311L164.875 94.5684L168.829 81.826C169.481 82.0283 170.479 82.4526 171.532 83.3062C172.623 84.1912 173.499 85.3183 174.083 86.556L162.017 92.2512ZM188.848 110.89L179.055 119.951C179.099 119.998 179.143 120.046 179.188 120.092L188.848 110.89ZM185.624 104.763L172.615 107.725C172.635 107.815 172.657 107.906 172.679 107.996L185.624 104.763ZM189.518 90.2956L179.181 81.8601L179.181 81.8601L189.518 90.2956ZM194.613 85.9762L188.12 74.3208L188.113 74.3245L194.613 85.9762ZM200.783 83.9571L202.321 97.2102C202.36 97.2057 202.398 97.201 202.437 97.1962L200.783 83.9571ZM215.031 93.7434L201.69 93.8917C201.691 93.9785 201.693 94.0652 201.695 94.152L215.031 93.7434ZM212.397 102.999L224.36 108.907C224.363 108.9 224.366 108.894 224.37 108.887L212.397 102.999ZM207.223 110.453L197.825 100.982C197.786 101.021 197.748 101.06 197.71 101.098L207.223 110.453ZM201.057 114.381L204.952 127.141L201.057 114.381ZM204.827 106.074L208.738 118.83C208.867 118.79 208.995 118.748 209.123 118.705L204.827 106.074ZM207.418 104.255L197.526 95.3022C197.437 95.4004 197.349 95.4999 197.263 95.6007L207.418 104.255ZM209.088 97.1442L196.894 102.559C196.936 102.653 196.979 102.746 197.023 102.839L209.088 97.1442ZM203.188 94.8363L207.099 107.592C207.139 107.58 207.179 107.568 207.219 107.555L203.188 94.8363ZM200.56 96.5836L190.668 87.6307C190.579 87.7289 190.491 87.8284 190.406 87.9292L200.56 96.5836ZM198.889 103.694L186.696 109.109C186.737 109.203 186.78 109.297 186.824 109.39L198.889 103.694ZM201.793 116.04L190.091 109.633C188.168 113.144 187.924 117.333 189.425 121.044C190.927 124.755 194.015 127.596 197.839 128.782L201.793 116.04ZM203.858 112.27L215.56 118.677C215.597 118.61 215.633 118.544 215.668 118.476L203.858 112.27ZM209.244 102.02L221.054 108.227C221.132 108.079 221.207 107.93 221.279 107.78L209.244 102.02ZM214.161 91.7449L202.442 85.368C202.331 85.5711 202.226 85.7769 202.126 85.9854L214.161 91.7449ZM216.242 87.9204L220.197 75.178C214.123 73.2929 207.563 75.9571 204.523 81.5436L216.242 87.9204ZM228.529 91.7337L240.253 98.1024C242.161 94.5914 242.394 90.4105 240.889 86.7091C239.384 83.0078 236.3 80.1756 232.484 78.9913L228.529 91.7337ZM213.374 119.634L209.419 132.376C215.497 134.262 222.06 131.594 225.098 126.002L213.374 119.634ZM194.122 114.255L198.077 101.513C198.254 101.568 198.407 101.643 198.513 101.711C198.613 101.775 198.607 101.79 198.509 101.687L188.848 110.89L179.188 120.092C182.151 123.203 185.82 125.648 190.167 126.997L194.122 114.255ZM188.848 110.89L198.641 101.829C198.652 101.84 198.665 101.856 198.676 101.872C198.688 101.888 198.691 101.896 198.688 101.89C198.685 101.883 198.631 101.78 198.568 101.53L185.624 104.763L172.679 107.996C173.774 112.381 175.847 116.484 179.055 119.951L188.848 110.89ZM185.624 104.763L198.633 101.801C198.663 101.936 198.644 101.956 198.654 101.803C198.665 101.637 198.712 101.266 198.9 100.658L186.158 96.7034L173.416 92.7488C171.968 97.4147 171.431 102.528 172.615 107.725L185.624 104.763ZM186.158 96.7034L198.9 100.658C199.212 99.6536 199.571 99.0786 199.855 98.731L189.518 90.2956L179.181 81.8601C176.515 85.127 174.634 88.824 173.416 92.7488L186.158 96.7034ZM189.518 90.2956L199.855 98.731C200.329 98.1495 200.748 97.8316 201.113 97.6278L194.613 85.9762L188.113 74.3245C184.634 76.2654 181.656 78.8271 179.181 81.8601L189.518 90.2956ZM194.613 85.9762L201.106 97.6315C201.615 97.348 201.996 97.2479 202.321 97.2102L200.783 83.9571L199.245 70.704C195.283 71.1637 191.551 72.4096 188.12 74.3208L194.613 85.9762ZM200.783 83.9571L202.437 97.1962C202.717 97.1612 202.971 97.1753 203.323 97.2845L207.277 84.542L211.232 71.7996C207.307 70.5815 203.231 70.2056 199.129 70.718L200.783 83.9571ZM207.277 84.542L203.323 97.2845C203.622 97.3773 203.71 97.4382 203.66 97.4083C203.634 97.3933 203.578 97.3583 203.502 97.2988C203.426 97.2389 203.338 97.161 203.245 97.0643L212.873 87.8285L222.502 78.5927C219.253 75.2052 215.296 73.061 211.232 71.7996L207.277 84.542ZM212.873 87.8285L203.245 97.0643C202.63 96.4239 202.193 95.6837 201.937 94.9831C201.696 94.3232 201.69 93.9029 201.69 93.8917L215.031 93.7434L228.372 93.5951C228.316 88.4945 226.74 83.0109 222.502 78.5927L212.873 87.8285ZM215.031 93.7434L201.695 94.152C201.68 93.6546 201.769 93.6328 201.596 94.2407C201.429 94.8282 201.084 95.7708 200.425 97.1111L212.397 102.999L224.37 108.887C226.578 104.396 228.54 98.9824 228.367 93.3348L215.031 93.7434ZM212.397 102.999L200.434 97.0915C199.445 99.0944 198.523 100.29 197.825 100.982L207.223 110.453L216.62 119.924C219.827 116.742 222.354 112.968 224.36 108.907L212.397 102.999ZM207.223 110.453L197.71 101.098C197.375 101.439 197.157 101.592 197.076 101.643C197.003 101.69 197.036 101.658 197.162 101.62L201.057 114.381L204.952 127.141C209.645 125.709 213.558 123.04 216.736 119.808L207.223 110.453ZM201.057 114.381L197.162 101.62C197.414 101.543 197.684 101.508 197.919 101.512C198.141 101.516 198.206 101.553 198.077 101.513L194.122 114.255L190.167 126.997C194.864 128.455 199.924 128.676 204.952 127.141L201.057 114.381ZM201.747 106.012L197.792 118.754C201.104 119.782 204.891 120.009 208.738 118.83L204.827 106.074L200.916 93.3176C202.831 92.7306 204.564 92.9163 205.701 93.2693L201.747 106.012ZM204.827 106.074L209.123 118.705C212.64 117.509 215.455 115.394 217.572 112.909L207.418 104.255L197.263 95.6007C197.881 94.8762 198.968 93.9736 200.53 93.4423L204.827 106.074ZM207.418 104.255L217.31 113.208C219.663 110.608 221.108 107.653 221.981 104.841L209.238 100.886L196.496 96.9315C196.514 96.8735 196.744 96.1652 197.526 95.3022L207.418 104.255ZM209.238 100.886L221.981 104.841C223.221 100.843 223.341 96.0827 221.154 91.449L209.088 97.1442L197.023 102.839C196.515 101.763 196.236 100.597 196.19 99.4519C196.145 98.3411 196.328 97.4732 196.496 96.9315L209.238 100.886ZM209.088 97.1442L221.282 91.7294C218.929 86.4303 214.52 83.4297 210.24 82.1014L206.285 94.8438L202.331 107.586C201.685 107.386 200.651 106.952 199.555 106.053C198.411 105.114 197.492 103.904 196.894 102.559L209.088 97.1442ZM206.285 94.8438L210.24 82.1014C206.684 80.9978 202.864 80.9433 199.158 82.1176L203.188 94.8363L207.219 107.555C205.54 108.087 203.784 108.037 202.331 107.586L206.285 94.8438ZM203.188 94.8363L199.277 82.0803C195.666 83.1877 192.807 85.2667 190.668 87.6307L200.56 96.5836L210.452 105.536C209.885 106.163 208.779 107.077 207.099 107.592L203.188 94.8363ZM200.56 96.5836L190.406 87.9292C188.232 90.4793 186.886 93.3251 186.051 96.0147L198.794 99.9694L211.536 103.924C211.557 103.859 211.388 104.448 210.714 105.238L200.56 96.5836ZM198.794 99.9694L186.051 96.0147C184.859 99.8567 184.651 104.504 186.696 109.109L198.889 103.694L211.083 98.2797C211.567 99.3686 211.807 100.51 211.835 101.591C211.862 102.639 211.686 103.442 211.536 103.924L198.794 99.9694ZM198.889 103.694L186.824 109.39C189.218 114.462 193.497 117.421 197.792 118.754L201.747 106.012L205.701 93.2693C206.353 93.4716 207.351 93.8959 208.404 94.7495C209.495 95.6345 210.371 96.7616 210.955 97.9993L198.889 103.694ZM201.793 116.04L213.496 122.447L215.56 118.677L203.858 112.27L192.155 105.862L190.091 109.633L201.793 116.04ZM203.858 112.27L215.668 118.476L221.054 108.227L209.244 102.02L197.433 95.8137L192.047 106.063L203.858 112.27ZM209.244 102.02L221.279 107.78L226.196 97.5044L214.161 91.7449L202.126 85.9854L197.209 96.2609L209.244 102.02ZM214.161 91.7449L225.881 98.1218L227.962 94.2973L216.242 87.9204L204.523 81.5436L202.442 85.368L214.161 91.7449ZM216.242 87.9204L212.288 100.663L224.575 104.476L228.529 91.7337L232.484 78.9913L220.197 75.178L216.242 87.9204ZM228.529 91.7337L216.806 85.3651L201.65 113.265L213.374 119.634L225.098 126.002L240.253 98.1024L228.529 91.7337ZM213.374 119.634L217.328 106.891L205.748 103.297L201.793 116.04L197.839 128.782L209.419 132.376L213.374 119.634ZM218.767 121.307L207.043 114.939C205.136 118.45 204.902 122.631 206.407 126.332C207.912 130.033 210.996 132.866 214.812 134.05L218.767 121.307ZM233.922 93.4075L237.877 80.665C231.8 78.7789 225.236 81.4472 222.199 87.0389L233.922 93.4075ZM245.503 97.0015L257.222 103.378C259.133 99.8673 259.368 95.6846 257.864 91.9812C256.36 88.2778 253.275 85.4438 249.457 84.259L245.503 97.0015ZM241.202 104.905L227.999 106.825C228.825 112.51 233.198 117.028 238.853 118.039C244.508 119.05 250.176 116.328 252.921 111.282L241.202 104.905ZM240.803 102.159L231.345 92.7486C228.383 95.7254 226.995 99.9229 227.6 104.078L240.803 102.159ZM247.483 98.6888L245.761 85.4583C245.733 85.4619 245.705 85.4656 245.678 85.4694L247.483 98.6888ZM255.512 99.5118L267.232 105.889C269.142 102.378 269.378 98.195 267.874 94.4915C266.37 90.7881 263.284 87.9542 259.467 86.7694L255.512 99.5118ZM249.963 109.71L244.246 121.766C250.644 124.8 258.298 122.307 261.682 116.087L249.963 109.71ZM248.6 109.109L243.508 121.441C243.539 121.453 243.57 121.466 243.601 121.479L248.6 109.109ZM241.997 108.49L237.809 95.8224C237.75 95.8416 237.692 95.8613 237.634 95.8813L241.997 108.49ZM238.096 112.226L226.419 105.772C226.408 105.792 226.397 105.812 226.386 105.832L238.096 112.226ZM231.054 125.121L227.099 137.863C233.166 139.746 239.719 137.091 242.764 131.515L231.054 125.121ZM218.767 121.307L230.491 127.676L245.646 99.7761L233.922 93.4075L222.199 87.0389L207.043 114.939L218.767 121.307ZM233.922 93.4075L229.968 106.15L241.548 109.744L245.503 97.0015L249.457 84.259L237.877 80.665L233.922 93.4075ZM245.503 97.0015L233.783 90.6246L229.483 98.5286L241.202 104.905L252.921 111.282L257.222 103.378L245.503 97.0015ZM241.202 104.905L254.405 102.986L254.006 100.239L240.803 102.159L227.6 104.078L227.999 106.825L241.202 104.905ZM240.803 102.159L250.261 111.569C250.377 111.452 250.33 111.53 250.096 111.651C249.849 111.779 249.557 111.871 249.287 111.908L247.483 98.6888L245.678 85.4694C239.974 86.2481 235.137 88.9367 231.345 92.7486L240.803 102.159ZM247.483 98.6888L249.204 111.919C249.54 111.876 250.27 111.855 251.557 112.254L255.512 99.5118L259.467 86.7694C255.1 85.4143 250.477 84.8446 245.761 85.4583L247.483 98.6888ZM255.512 99.5118L243.793 93.135L238.243 103.334L249.963 109.71L261.682 116.087L267.232 105.889L255.512 99.5118ZM249.963 109.71L255.68 97.6554C254.998 97.3321 254.302 97.0229 253.599 96.7386L248.6 109.109L243.601 121.479C243.745 121.537 243.958 121.629 244.246 121.766L249.963 109.71ZM248.6 109.109L253.692 96.7766C252.901 96.4502 252.108 96.1681 251.321 95.9238L247.366 108.666L243.412 121.409C243.494 121.434 243.523 121.447 243.508 121.441L248.6 109.109ZM247.366 108.666L251.321 95.9238C247.434 94.7174 242.695 94.2069 237.809 95.8224L241.997 108.49L246.185 121.157C244.399 121.748 243.239 121.355 243.412 121.409L247.366 108.666ZM241.997 108.49L237.634 95.8813C231.946 97.8494 228.458 102.082 226.419 105.772L238.096 112.226L249.772 118.681C249.908 118.436 249.021 120.178 246.359 121.099L241.997 108.49ZM238.096 112.226L226.386 105.832L219.344 118.726L231.054 125.121L242.764 131.515L249.805 118.621L238.096 112.226ZM231.054 125.121L235.009 112.378L222.721 108.565L218.767 121.307L214.812 134.05L227.099 137.863L231.054 125.121Z" fill="white" mask="url(#path-3-outside-1_70_44)"/>
</g>
<defs>
<filter id="filter0_dd_70_44" x="212.029" y="97.6039" width="161.884" height="87.8227" filterUnits="userSpaceOnUse" color-interpolation-filters="sRGB">
<feFlood flood-opacity="0" result="BackgroundImageFix"/>
<feColorMatrix in="SourceAlpha" type="matrix" values="0 0 0 0 0 0 0 0 0 0 0 0 0 0 0 0 0 0 127 0" result="hardAlpha"/>
<feOffset dy="-4"/>
<feGaussianBlur stdDeviation="2"/>
<feComposite in2="hardAlpha" operator="out"/>
<feColorMatrix type="matrix" values="0 0 0 0 0 0 0 0 0 0 0 0 0 0 0 0 0 0 0.25 0"/>
<feBlend mode="normal" in2="BackgroundImageFix" result="effect1_dropShadow_70_44"/>
<feColorMatrix in="SourceAlpha" type="matrix" values="0 0 0 0 0 0 0 0 0 0 0 0 0 0 0 0 0 0 127 0" result="hardAlpha"/>
<feOffset dy="4"/>
<feGaussianBlur stdDeviation="2"/>
<feComposite in2="hardAlpha" operator="out"/>
<feColorMatrix type="matrix" values="0 0 0 0 0 0 0 0 0 0 0 0 0 0 0 0 0 0 0.25 0"/>
<feBlend mode="normal" in2="effect1_dropShadow_70_44" result="effect2_dropShadow_70_44"/>
<feBlend mode="normal" in="SourceGraphic" in2="effect2_dropShadow_70_44" result="shape"/>
</filter>
<filter id="filter1_d_70_44" x="0.717004" y="0.323934" width="280.337" height="150.34" filterUnits="userSpaceOnUse" color-interpolation-filters="sRGB">
<feFlood flood-opacity="0" result="BackgroundImageFix"/>
<feColorMatrix in="SourceAlpha" type="matrix" values="0 0 0 0 0 0 0 0 0 0 0 0 0 0 0 0 0 0 127 0" result="hardAlpha"/>
<feOffset/>
<feGaussianBlur stdDeviation="6.09969"/>
<feComposite in2="hardAlpha" operator="out"/>
<feColorMatrix type="matrix" values="0 0 0 0 0 0 0 0 0 0 0 0 0 0 0 0 0 0 0.5 0"/>
<feBlend mode="normal" in2="BackgroundImageFix" result="effect1_dropShadow_70_44"/>
<feBlend mode="normal" in="SourceGraphic" in2="effect1_dropShadow_70_44" result="shape"/>
</filter>
</defs>
</svg>
