<svg width="800" height="544" viewBox="0 0 800 544" fill="none" xmlns="http://www.w3.org/2000/svg">
<path d="M680 0H120C53.7258 0 0 53.7258 0 120V424C0 490.274 53.7258 544 120 544H680C746.274 544 800 490.274 800 424V120C800 53.7258 746.274 0 680 0Z" fill="#121312"/>
<path d="M405.033 222.082C405.884 221.26 406.381 220.139 406.42 218.954H406.437C407.011 196.42 401.795 178.818 390.947 166.633C379.493 153.771 361.949 147.167 338.798 147C315.69 147 295.783 154.22 281.226 167.88C267.458 180.806 259.689 198.701 259.339 218.264C258.749 251.997 277.807 273.45 299.06 294.214C315.515 311.141 318.534 319.511 318.368 329.06C318.168 340.108 312.911 346.446 303.936 346.446C300.234 346.446 297.264 345.297 295.134 343.035C291.807 339.541 290.335 333.227 290.875 324.777C290.965 324.212 290.933 323.633 290.781 323.083C290.716 322.848 290.63 322.62 290.524 322.401C290.381 322.108 290.203 321.834 289.993 321.582C289.573 321.052 289.04 320.622 288.432 320.323C287.826 320.023 287.159 319.862 286.483 319.852H237.902C236.718 319.848 235.578 320.307 234.725 321.131C233.873 321.954 233.375 323.077 233.336 324.261C232.196 347.686 237.653 365.836 249.557 378.205C261.286 390.385 278.921 396.557 302.005 396.557C347.209 396.557 376.914 368.315 377.688 324.627C378.162 297.607 368.304 277.168 343.706 254.093C325.023 235.975 318.46 225.427 318.667 213.823C318.85 203.416 325.106 197.46 334.806 197.46C344.505 197.46 349.247 204.131 349.247 217.832C349.247 220.868 351.817 223.364 354.895 223.364H401.861C403.045 223.366 404.182 222.904 405.033 222.082Z" fill="#3EE233"/>
<path d="M258.474 263.585V263.478H258.449C258.49 261.215 256.918 259.144 254.689 258.853C254.497 258.811 254.29 258.811 254.09 258.811H168.16V258.91C165.938 259.176 164.133 260.684 163.692 262.672L154.741 301.551C154.622 302.075 154.626 302.619 154.751 303.141C154.876 303.663 155.121 304.15 155.465 304.563C155.913 305.091 156.472 305.515 157.101 305.806C157.73 306.096 158.416 306.245 159.108 306.242H172.202C172.959 306.242 173.948 306.352 174.306 306.817C174.647 307.266 174.623 308.274 174.265 309.571C171.719 318.913 165.664 329.153 158.143 335.075C150.615 340.989 138.187 344.533 129.477 339.193C119.654 333.162 117.99 318.613 117.582 308.265C116.725 286.037 121.076 263.719 129.62 243.173C135.733 228.465 147.263 201.929 166.812 201.929C177.892 201.929 183.465 211.079 183.881 229.879C183.891 230.299 183.977 230.711 184.132 231.097C184.304 231.527 184.562 231.923 184.894 232.259C185.524 232.892 186.374 233.262 187.267 233.288H238.26C239.452 233.288 240.596 232.821 241.449 231.989C242.302 231.156 242.796 230.023 242.826 228.83C242.794 201.645 236.588 180.883 224.359 167.091C212.796 154.055 196.176 147.526 175.006 147.708C105.412 147.708 69.2681 218.024 61.6147 287.711C57.3727 324.828 64.3767 355.638 81.3299 374.456C94.1576 388.697 109.28 395.909 131.707 395.909C156.671 395.909 175.354 390.368 190.511 378.49C208.329 364.539 221.822 341.306 231.788 307.499C231.899 307.126 232.126 306.799 232.438 306.565C232.75 306.329 233.129 306.204 233.518 306.202H244.324C246.852 306.202 249.049 304.595 249.531 302.4L258.474 263.585Z" fill="#3EE233"/>
<path fill-rule="evenodd" clip-rule="evenodd" d="M551.995 388.338L552.302 155.975C552.311 155.393 552.204 154.814 551.986 154.275C551.888 154.033 551.769 153.799 551.63 153.58C551.461 153.31 551.261 153.06 551.035 152.833C550.846 152.639 550.638 152.467 550.418 152.314C550.162 152.138 549.888 151.988 549.599 151.87C549.061 151.649 548.484 151.537 547.902 151.541H475.215C472.769 151.541 471.696 153.645 470.997 155.034L365.75 386.914V386.957L365.709 387.016C364.544 389.867 366.757 392.921 369.843 392.921H420.653C423.398 392.921 425.22 392.089 426.11 390.359L436.2 366.109C437.44 362.874 437.673 362.574 441.2 362.574H489.747C493.124 362.574 493.19 362.641 493.141 365.943L492.051 388.488C492.047 388.736 492.064 388.984 492.103 389.227C492.153 389.554 492.242 389.875 492.367 390.184C492.584 390.724 492.906 391.213 493.315 391.628C493.724 392.04 494.212 392.367 494.749 392.588C495.286 392.812 495.862 392.924 496.443 392.921H547.777C548.413 392.93 549.042 392.797 549.621 392.535C550.2 392.274 550.715 391.889 551.129 391.406C551.487 390.988 551.75 390.496 551.899 389.967C552.048 389.437 552.081 388.882 551.995 388.338ZM462.071 310.759C461.688 310.759 461.305 310.747 460.923 310.717C460.745 310.702 460.572 310.648 460.417 310.56C460.262 310.471 460.128 310.349 460.025 310.203C459.976 310.134 459.934 310.059 459.9 309.981C459.864 309.896 459.837 309.807 459.82 309.715C459.803 309.616 459.797 309.517 459.804 309.417C459.809 309.338 459.822 309.26 459.841 309.185C459.899 308.994 459.97 308.763 460.06 308.493C460.126 308.294 460.202 308.074 460.291 307.839L496.693 217.765C497.02 216.877 497.398 216.008 497.824 215.161C498.415 213.947 499.13 213.863 499.355 214.762C499.546 215.51 495.179 307.248 495.179 307.248C494.838 310.684 494.68 310.824 491.294 311.109L462.104 310.776H462.038L462.071 310.759Z" fill="#3EE233"/>
<path fill-rule="evenodd" clip-rule="evenodd" d="M616.954 151.46H655.544L655.586 151.435C712.502 151.435 740.918 177.232 740.019 228.14C738.971 287.794 702.619 331.633 647.883 341.738C640.105 343.17 632.194 343.726 624.291 343.686L597.863 343.568C597.43 343.566 597.013 343.735 596.702 344.035C596.391 344.338 596.21 344.75 596.199 345.183C596.194 345.475 596.271 345.764 596.423 346.013C596.575 346.263 596.795 346.467 597.056 346.596L600.275 348.27L608.594 352.612L616.954 356.962C617.818 357.413 618.684 357.864 619.55 358.309C621.397 359.275 622.112 360.872 621.696 362.935L615.84 389.363C615.357 391.566 613.586 392.84 610.99 392.84H562.759C562.068 392.84 561.384 392.69 560.756 392.399C560.128 392.109 559.572 391.686 559.124 391.16C558.779 390.746 558.533 390.259 558.406 389.735C558.279 389.211 558.274 388.666 558.392 388.14L612.096 154.97C612.629 152.541 614.916 151.46 616.954 151.46ZM641.378 290.215H642.41C667.739 289.191 681.548 259.26 682.056 230.22C682.347 213.442 676.224 203.617 665.244 203.284H629.965C629.537 203.284 629.126 203.45 628.82 203.749C628.514 204.047 628.337 204.454 628.326 204.882C628.319 205.175 628.393 205.465 628.542 205.717C628.69 205.971 628.907 206.176 629.166 206.312C629.166 206.312 651.477 218.075 653.007 218.924C654.205 219.58 654.221 220.695 653.83 222.634C653.826 222.677 650.412 237.685 646.815 253.51C642.801 271.17 638.561 289.851 638.583 289.882C638.649 289.965 639.057 290.215 641.378 290.215Z" fill="#3EE233"/>
</svg>
