<svg width="800" height="800" viewBox="0 0 800 800" fill="none" xmlns="http://www.w3.org/2000/svg">
<g clip-path="url(#clip0_417_2)">
<path d="M800 0H0V800H800V0Z" fill="#F5DE19"/>
<path d="M537.4 625C544.216 638.846 554.806 650.483 567.95 658.571C581.093 666.66 596.254 670.869 611.686 670.714C642.829 670.714 662.743 655.143 662.743 633.571C662.743 607.857 642.286 598.657 608 583.657L589.2 575.6C534.914 552.486 498.914 523.543 498.914 462.343C498.914 405.971 541.772 363.029 609 363.029C630.763 361.457 652.507 366.328 671.52 377.033C690.533 387.739 705.973 403.805 715.914 423.229L657.143 460.8C653.315 451.169 646.65 442.93 638.031 437.174C629.413 431.418 619.248 428.418 608.886 428.571C604.365 428.119 599.799 428.613 595.479 430.022C591.16 431.432 587.181 433.726 583.797 436.758C580.413 439.79 577.697 443.493 575.824 447.633C573.95 451.772 572.959 456.257 572.914 460.8C572.914 483.343 586.886 492.486 619.143 506.514L637.943 514.571C701.829 541.971 737.943 569.886 737.943 632.657C737.943 700.343 684.772 737.429 613.372 737.429C585.552 739.201 557.813 732.885 533.503 719.242C509.194 705.599 489.352 685.213 476.372 660.543L537.4 625ZM271.829 631.514C283.629 652.457 294.372 670.171 320.2 670.171C344.886 670.171 360.486 660.514 360.486 622.943V367.314H435.657V623.943C435.657 701.771 389.943 737.2 323.4 737.2C299.879 738.486 276.519 732.624 256.391 720.385C236.263 708.146 220.31 690.104 210.629 668.629L271.829 631.514Z" fill="black"/>
</g>
<defs>
<clipPath id="clip0_417_2">
<rect width="800" height="800" rx="120" fill="white"/>
</clipPath>
</defs>
</svg>
