<svg width="800" height="800" viewBox="0 0 800 800" fill="none" xmlns="http://www.w3.org/2000/svg">
<g clip-path="url(#clip0_417_9)">
<path d="M0 400V0H800V800H0" fill="#007ACC"/>
<path d="M175.4 401.4V434H279.4V730H353.2V434H457.2V402C457.2 384 457.2 369.4 456.4 369C456.4 368.4 393 368.2 316 368.2L176 368.8V401.6L175.4 401.4ZM642.8 368C663.2 372.8 678.8 382 692.8 396.6C700.2 404.6 711.2 418.6 712 422.2C712 423.4 677.4 446.8 656.4 459.8C655.6 460.4 652.4 457 649.2 451.8C638.8 437 628.2 430.6 611.6 429.4C587.6 427.8 571.6 440.4 571.6 461.4C571.6 467.8 572.8 471.4 575.2 476.6C580.6 487.6 590.6 494.2 621.6 507.8C678.8 532.4 703.6 548.6 718.6 571.8C735.6 597.8 739.4 638.6 728 669.2C715.2 702.6 684 725.2 639.4 732.6C625.4 735 593.4 734.6 578.4 732C546.4 726 515.8 710 497 689.4C489.6 681.4 475.4 660 476.2 658.6L483.8 653.8L513.8 636.4L536.4 623.2L541.6 630.2C548.2 640.6 563 654.6 571.6 659.4C597.6 672.8 632.4 671 649.6 655.4C657 648.6 660.2 641.4 660.2 631.4C660.2 622.2 658.8 618 654.2 611C647.8 602.2 635 595 599 579C557.6 561.4 540 550.2 523.6 533C514.2 522.6 505.6 506.4 501.6 493C498.6 481.4 497.6 453 500.4 441.6C509 401.6 539.2 373.6 582.4 365.6C596.4 362.8 629.4 364 643.2 367.6L642.8 368Z" fill="white"/>
</g>
<defs>
<clipPath id="clip0_417_9">
<rect width="800" height="800" rx="120" fill="white"/>
</clipPath>
</defs>
</svg>
