<svg width="800" height="800" viewBox="0 0 800 800" fill="none" xmlns="http://www.w3.org/2000/svg">
<g clip-path="url(#clip0_418_63)">
<path d="M800 0H0V800H800V0Z" fill="#3AADFA"/>
<path d="M599.073 564.324C597.754 576.197 594.796 587.613 590.194 598.573C583.757 613.907 574.82 627.28 563.383 638.689C551.944 650.099 538.542 659.009 523.176 665.424C507.81 671.837 491.554 675.04 474.405 675.032L324.347 674.965C307.197 674.965 290.943 671.74 275.582 665.312C260.224 658.884 246.83 649.962 235.401 638.541C223.974 627.122 215.048 613.741 208.626 598.402C202.2 583.061 198.992 566.831 199 549.71L199.067 399.9C199.067 382.778 202.297 366.55 208.737 351.215C215.173 335.88 224.111 322.508 235.549 311.098C246.988 299.691 260.39 290.779 275.754 284.366C291.12 277.951 307.378 274.75 324.527 274.758L474.585 274.825C483.159 274.825 489.948 271.264 494.953 264.132C497.813 260.568 499.244 255.93 499.247 250.224C499.281 200.286 481.782 158.546 446.785 125H474.653C491.802 125 508.055 128.227 523.416 134.653C538.776 141.08 552.17 150.004 563.599 161.424C575.026 172.843 583.95 186.222 590.373 201.563C596.8 216.904 600.008 233.135 600 250.256L599.966 299.725C584.033 293.561 566.711 290.167 548.599 290.159C490.639 290.125 440.744 324.694 418.485 374.304L324.471 374.261C307.322 374.261 298.746 382.809 298.738 399.931L298.671 549.741C298.671 566.862 307.231 575.426 324.38 575.434L474.438 575.501C485.152 575.501 492.372 571.869 496.105 564.595C496.505 564.753 495.704 564.441 496.105 564.595L530.772 475.614C513.719 468.627 501.708 451.878 501.717 432.337C501.717 406.526 522.703 385.604 548.556 385.616C574.411 385.616 595.367 406.568 595.355 432.379C595.355 452.446 582.664 469.554 564.874 476.171L599.061 564.31L599.073 564.324Z" fill="#0070AF"/>
</g>
<defs>
<clipPath id="clip0_418_63">
<rect width="800" height="800" rx="120" fill="white"/>
</clipPath>
</defs>
</svg>
